<?xml version="1.0" encoding="utf-8"?>
<!-- Generator: Adobe Illustrator 22.1.0, SVG Export Plug-In . SVG Version: 6.00 Build 0)  -->
<svg version="1.1" id="圖層_1" xmlns="http://www.w3.org/2000/svg" xmlns:xlink="http://www.w3.org/1999/xlink" x="0px" y="0px"
	 viewBox="0 0 96 423" style="enable-background:new 0 0 96 423;" xml:space="preserve">
<style type="text/css">
	.st0{enable-background:new    ;}
	.st1{fill:#1EEE78;}
</style>
<g id="global_energy_transition_Japan_title" transform="translate(-11136 10422)">
	<g class="st0">
		<path class="st1" d="M11201.9-10384.6c0,0.6-0.3,1-0.8,1.2c-0.8,0.4-1.6,0.4-2.5,0c-0.4-0.2-0.6-0.6-0.6-1.2v-15h0
			c-1.8,1.4-3.4,2.5-4.9,3.1c-0.2,0.1-0.4,0-0.4-0.1l0.1-0.4c5-4,8.4-9.2,10.1-15.3h-6.8l-2.2,0.3c-0.3,0.1-0.5,0.1-0.5-0.1
			l-0.4-1.3c0-0.2,0.1-0.2,0.4-0.2l2.6,0.2h1.8v-8c0-0.1,0-0.1,0.2-0.1c1.4,0,2.6,0.2,3.8,0.5c0.5,0.1,0.7,0.3,0.7,0.6
			c0,0.3-0.2,0.6-0.6,0.7c-0.2,0.1-0.4,0.2-0.4,0.5v5.9h1l0.4-0.2l1.2-1.1c0.2-0.1,0.3-0.2,0.5,0c0.9,0.5,1.7,1,2.4,1.8
			c0.4,0.4,0.6,0.7,0.5,1c0,0.3-0.4,0.4-0.8,0.5c-0.2,0-0.4,0.2-0.6,0.7c-1.2,2.4-2.4,4.4-3.6,6.1l-0.7,0.9h0.3
			c1.9,0.2,3.3,0.8,4.3,2c0.4,0.6,0.5,1.3,0.4,2.1c-0.1,0.6-0.5,1.2-1.1,1.4c-0.6,0.2-1.2,0.2-1.7-0.2c-0.5-0.3-0.8-0.8-1-1.6
			c-0.2-1.1-0.7-2-1.3-2.5V-10384.6z M11210.3-10418.2h12.6c0.3,0,0.5-0.1,0.7-0.4l2-2.6c0.2-0.2,0.5-0.3,0.8-0.1
			c1.4,0.8,2.6,2,3.5,3.2c0.2,0.2,0.2,0.4,0.2,0.6c-0.1,0.2-0.3,0.2-0.7,0.2h-19.1l-2.3,0.4c-0.2,0.1-0.4,0.1-0.4-0.1l-0.4-1.4
			c0-0.2,0.1-0.2,0.4-0.2L11210.3-10418.2z M11211.5-10385.2c0,0.6-0.2,1.1-0.6,1.3c-0.5,0.3-1.1,0.4-1.7,0.5
			c-0.5,0-0.9-0.1-1.2-0.3c-0.2-0.1-0.3-0.4-0.2-0.9v-17.2c0-0.2,0-0.3,0.2-0.3c1.4,0.2,2.6,0.7,3.8,1.4h13.4c0.2,0,0.3-0.1,0.4-0.2
			l1-1h0.4c1.1,0.4,2.2,1,3.2,1.7c0.7,0.5,0.6,1-0.3,1.4c-0.2,0.1-0.4,0.3-0.4,0.6v12.8c0,0.4-0.2,0.8-0.6,1s-1,0.4-1.8,0.4
			c-0.5,0-0.9-0.1-1.1-0.4c-0.2-0.3-0.3-0.6-0.2-1.1v-1.6h-14.2V-10385.2z M11213.8-10404.3c0,0.6-0.2,1.1-0.6,1.4
			c-0.5,0.3-1.2,0.5-1.8,0.5c-0.5,0-0.9-0.1-1.2-0.4c-0.2-0.2-0.3-0.5-0.2-1v-10.3c0-0.2,0-0.4,0.2-0.3c1.2,0.2,2.2,0.6,3.3,1.2h9.2
			c0.2,0,0.3-0.1,0.4-0.2l0.9-1l0.4-0.1c1.2,0.4,2.4,1,3.4,1.8c0.8,0.5,0.6,1-0.3,1.4c-0.2,0.1-0.4,0.3-0.4,0.7v6.2
			c0,0.5-0.2,0.8-0.6,1c-0.4,0.2-1.1,0.4-1.9,0.4c-0.6,0-0.9-0.2-1.1-0.4c-0.2-0.2-0.3-0.6-0.3-1.1v-0.3h-9.4V-10404.3z
			 M11216.9-10399.5h-5.4v5.1h5.4V-10399.5z M11216.9-10388v-5.4h-5.4v5.4H11216.9z M11223.2-10405.8v-6.2c-0.1-0.2-0.2-0.2-0.4-0.1
			h-9v6.3H11223.2z M11220.6-10394.4h5.2v-5.1c-0.1-0.2-0.2-0.2-0.4-0.1h-4.8V-10394.4z M11225.8-10388v-5.4h-5.2v5.4H11225.8z"/>
	</g>
	<g class="st0">
		<path class="st1" d="M11217-10342.4c-0.8,0.2-1.6,0.2-2.3-0.1c-0.4-0.2-0.6-0.6-0.6-1.1v-2.5h-14.7v2.3c0,0.6-0.3,1.1-0.8,1.4
			c-0.8,0.2-1.6,0.2-2.3-0.1c-0.4-0.2-0.6-0.6-0.6-1.1v-9.1v-0.4c0-0.1,0.1-0.2,0.2-0.2l3.7,0.5c0.6,0.2,1,0.4,1,0.8l-1.2,1.3v3.5
			h5.7v-8h-2.4c0,0.6-0.2,1-0.5,1.3c-0.4,0.4-1,0.6-1.9,0.6c-0.5,0-0.8-0.1-1.1-0.4c-0.2-0.2-0.3-0.5-0.3-0.9v-19.1l0.1-0.3h0.3
			c1,0.3,2.1,0.7,3.3,1.3h2.2c0.5-1.6,0.9-3.2,1-4.6c0-0.2,0.1-0.3,0.3-0.3l3.5,0.8c0.6,0.2,0.9,0.5,0.9,0.8c0,0.3-0.2,0.5-0.7,0.6
			c-0.3,0-0.6,0.2-0.8,0.5c-0.8,0.8-1.6,1.6-2.5,2.2h10c0.4,0,0.6,0,0.8-0.2l1.1-1.2c0.2-0.3,0.5-0.4,0.8-0.3
			c1.5,0.5,2.6,1.1,3.4,1.7c0.8,0.6,0.7,1.2-0.4,1.6c-0.2,0.1-0.3,0.2-0.3,0.4v7c0,0.5-0.2,1-0.7,1.2c-0.4,0.3-1,0.4-1.8,0.4
			c-0.5,0-0.9-0.1-1.2-0.4c-0.2-0.2-0.2-0.4-0.2-0.8v-0.4h-15.2v3.3h19.1c0.2,0,0.5-0.1,0.6-0.3l2-2.4c0.2-0.2,0.4-0.2,0.7,0
			c1.3,0.8,2.3,1.8,3.2,3c0.2,0.2,0.2,0.4,0.2,0.6c-0.1,0.2-0.3,0.3-0.7,0.3h-25v3h20.1l0.5-0.2l1.2-1.2c0.1-0.1,0.3-0.1,0.5,0
			c1,0.5,1.9,1.1,2.7,1.8c0.3,0.2,0.5,0.4,0.5,0.7s-0.2,0.5-0.6,0.6l-0.2,0.3c-0.3,4.5-1.1,7.8-2.3,10c-1.6,2.4-3.6,3.6-6.1,3.6
			c0-1.2-0.5-2.1-1.4-2.7C11217.7-10343,11217.4-10342.7,11217-10342.4z M11218-10368.6v-3c-0.1-0.2-0.2-0.2-0.4-0.1h-14.8v3.1
			H11218z M11218-10364.7v-2.8h-15.2v2.8H11218z M11208.8-10355.2v8h5.3v-5.4v-0.4c0-0.1,0.1-0.2,0.2-0.2l3.7,0.5
			c0.6,0.2,1,0.4,1,0.8l-1.2,1.3v5.8l1.6,0.1c1-0.2,1.8-0.8,2.4-1.6c0.9-1.6,1.5-4.6,1.7-9H11208.8z"/>
	</g>
	<g class="st0">
		<path class="st1" d="M11214.6-10324.3c-2.6,4.3-4.8,6.7-6.3,7.2v15.5c0,0.5-0.2,0.9-0.7,1.2c-0.4,0.3-1,0.4-1.8,0.4
			c-0.5,0-0.9-0.1-1.2-0.4c-0.2-0.2-0.2-0.4-0.2-0.8v-1.8h-6v1.8c0,0.7-0.2,1.3-0.6,1.6c-0.4,0.3-1,0.5-1.9,0.5
			c-0.5,0-0.8-0.1-1.1-0.4c-0.2-0.2-0.3-0.5-0.3-1v-26.6l0.1-0.3h0.3c1.1,0.3,2.3,0.8,3.6,1.4h0.7c0.8-2.2,1.2-4.7,1.2-7.6l0.1-1
			c0-0.1,0.1-0.2,0.3-0.2c1.2,0.2,2.6,0.4,3.9,0.8c0.5,0.2,0.8,0.4,0.7,0.7c0,0.3-0.2,0.5-0.8,0.5c-0.2,0-0.3,0.1-0.3,0.3
			c-1.2,2.8-2.6,5-4.2,6.4h2.8c0.4,0,0.6,0,0.8-0.2l1.1-1.1c0.2-0.3,0.5-0.4,0.8-0.3c1.5,0.6,2.6,1.2,3.4,1.7
			c0.8,0.6,0.7,1.2-0.4,1.6c-0.2,0.1-0.3,0.2-0.3,0.4v5.9l0.1-0.2c2.9-4.1,4.7-9.6,5.5-16.3c0-0.2,0.2-0.4,0.5-0.3
			c1.6,0.2,3.1,0.6,4.4,1.3c0.4,0.2,0.6,0.4,0.5,0.7c0,0.4-0.4,0.6-1,0.6c-0.3,0-0.5,0.3-0.6,0.7l-2.3,5.5h7.9c0.4,0,0.6,0,0.8-0.2
			l1.4-1.4c0.2-0.3,0.6-0.3,1-0.1c2.4,1.4,3.7,2.5,3.7,3c0,0.3-0.3,0.6-1,0.8c-0.4,0.2-0.6,0.5-0.6,1c0.2,14-1.1,22-3.7,24
			c-1.3,1-2.8,1.5-4.3,1.5c-0.3,0-0.4-0.1-0.5-0.4c0-1.7-1.2-3-3.6-4c-0.4-0.1-0.5-0.3-0.4-0.6c0.1-0.3,0.3-0.4,0.7-0.3
			c3,0.4,4.8,0.4,5.5,0c0.3-0.2,0.6-0.7,1-1.7c0.6-2.4,1-6.3,1.2-11.7c0.2-5.5,0.1-8.5-0.1-8.9c0-0.1-0.2-0.1-0.5-0.1h-8.2l-0.9,0.1
			L11214.6-10324.3z M11204.4-10315.3v-9.4c-0.1-0.2-0.2-0.2-0.4-0.1h-5.6v9.5H11204.4z M11204.4-10304v-10.2h-6v10.2H11204.4z
			 M11212.3-10318.5c0-0.2,0.2-0.2,0.4-0.2l1.9,0.7c1.4,0.6,2.7,1.5,3.9,2.6c1,1,1.6,2,1.9,2.8c0.3,0.8,0.4,1.5,0.1,2.4
			c-0.2,0.7-0.7,1.2-1.4,1.4c-1.5,0.3-2.4-0.5-2.6-2.3c-0.5-3.2-1.8-5.4-4-6.9C11212.3-10318.2,11212.2-10318.4,11212.3-10318.5z"/>
	</g>
	<g class="st0">
		<path class="st1" d="M11209.9-10261.1h-9.8l-2.3,0.4c-0.2,0.1-0.4,0.1-0.4-0.1l-0.4-1.4c0-0.2,0.1-0.2,0.4-0.2l2.7,0.3h9.8v-4.4
			h-7.2v0.4c0,0.7-0.2,1.1-0.6,1.4c-0.5,0.3-1.1,0.5-1.8,0.5c-0.5,0-0.9-0.1-1.2-0.4c-0.2-0.2-0.3-0.4-0.2-0.9v-13.9
			c0-0.2,0-0.4,0.2-0.3c1.6,0.4,2.9,0.9,3.9,1.6h7v-3.8h-13l-2.3,0.4c-0.2,0.1-0.4,0.1-0.4-0.1l-0.4-1.4c0-0.2,0.1-0.2,0.4-0.2
			l2.7,0.2h13v-3.4h-0.4c-5.8,0.5-10.4,0.7-13.7,0.6c-0.2,0-0.4-0.2-0.4-0.4s0.1-0.2,0.4-0.3c10.6-0.8,18.8-2.6,24.4-5.2
			c0.2-0.1,0.4-0.2,0.5-0.1c1.2,0.6,2.2,1.5,3.2,2.4c0.4,0.4,0.5,0.7,0.3,1c-0.2,0.2-0.4,0.2-0.8,0.2c-0.4-0.1-0.8-0.1-1.1,0
			l-8.6,1.4v3.8h9.4c0.3,0,0.5-0.1,0.6-0.3l2-2.5c0.2-0.2,0.4-0.2,0.7-0.1c1.3,0.8,2.4,1.9,3.4,3.1c0.2,0.2,0.2,0.4,0.2,0.6
			c-0.1,0.2-0.3,0.3-0.7,0.3h-15.6v3.8h5.6c0.4,0,0.6,0,0.8-0.2l1-1.2c0.2-0.3,0.5-0.4,0.8-0.3c1.5,0.5,2.6,1.1,3.4,1.7
			c0.8,0.6,0.7,1.2-0.4,1.7c-0.2,0-0.3,0.2-0.3,0.4v9.8c0,0.5-0.4,1-1,1.4c1.2,0.8,2.2,1.7,3.1,3c0.2,0.2,0.2,0.4,0.2,0.5
			c-0.1,0.2-0.3,0.3-0.7,0.3h-12.5v4.9h9.6c0.3,0,0.5-0.1,0.6-0.3l2-2.5c0.2-0.2,0.4-0.2,0.7-0.1c1.3,0.8,2.4,1.9,3.4,3.1
			c0.2,0.2,0.2,0.4,0.2,0.6c-0.1,0.2-0.3,0.3-0.7,0.3h-33.2l-2.3,0.3c-0.2,0.1-0.4,0.1-0.4-0.1l-0.4-1.4c0-0.2,0.1-0.2,0.4-0.1
			l2.7,0.2h13.5V-10261.1z M11209.9-10277.1h-7.2v4h7.2V-10277.1z M11209.9-10272h-7.2v4.4h7.2V-10272z M11213.8-10273.1h7.1v-3.9
			c-0.1-0.2-0.2-0.2-0.4-0.2h-6.7V-10273.1z M11213.8-10267.6h7.1v-4.4h-7.1V-10267.6z M11222.4-10264.6c-0.6,0-1.1-0.2-1.4-0.4
			c-0.2-0.2-0.2-0.4-0.2-0.8v-0.7h-7.1v4.4h6.3c0.3,0,0.5-0.1,0.6-0.3L11222.4-10264.6z"/>
	</g>
	<g class="st0">
		<path class="st1" d="M11210.4-10225.4h-8l-2.3,0.3c-0.2,0.1-0.4,0.1-0.4-0.1l-0.4-1.4c0-0.2,0.1-0.2,0.4-0.2l2.7,0.3h8v-10.8h-8.3
			c-2.2,4.4-4.5,7.5-6.9,9.4c-0.2,0.2-0.4,0.2-0.5,0.1c-0.1-0.2-0.1-0.3,0-0.5c3.4-4.4,5.5-10.6,6-18.2c0-0.2,0.2-0.4,0.5-0.3
			c1.4,0.1,2.8,0.4,4.4,1.1c0.4,0.2,0.6,0.4,0.5,0.7c0,0.4-0.4,0.6-1,0.6c-0.3,0-0.4,0.3-0.6,0.7l-2,5.4h7.8v-9.7
			c0-0.1,0-0.1,0.2-0.1c1.4,0,2.8,0.2,4,0.5c0.5,0.2,0.8,0.4,0.8,0.6c0,0.3-0.2,0.6-0.7,0.7c-0.3,0.1-0.4,0.2-0.4,0.5v7.5h5.6
			c0.3,0,0.5-0.1,0.6-0.3l2.1-2.6c0.2-0.2,0.5-0.3,0.8-0.1c1.4,0.9,2.6,2,3.5,3.2c0.2,0.2,0.2,0.4,0.2,0.6c-0.1,0.2-0.3,0.3-0.7,0.3
			h-12v10.8h4.4c0.3,0,0.5-0.1,0.7-0.3l2.1-2.6c0.2-0.2,0.5-0.3,0.7-0.1c1.4,0.9,2.6,2,3.5,3.2c0.2,0.2,0.2,0.4,0.2,0.6
			c-0.1,0.2-0.3,0.3-0.6,0.3h-11v11.1h8.4c0.3,0,0.5-0.1,0.7-0.4l2.1-2.6c0.2-0.2,0.4-0.3,0.7-0.1c1.4,0.8,2.6,2,3.5,3.2
			c0.2,0.2,0.2,0.4,0.2,0.6c-0.1,0.2-0.3,0.2-0.7,0.2h-32.4l-2.3,0.4c-0.2,0.1-0.4,0.1-0.4-0.1l-0.4-1.4c0-0.2,0-0.2,0.4-0.2
			l2.7,0.3h13.6V-10225.4z"/>
	</g>
	<g class="st0">
		<path class="st1" d="M11138-10396.2c-0.1,0.1-0.2,0.1-0.3,0c0-0.1,0.4-0.8,1.5-1.9c3.6-4.7,5.8-9,6.5-13.1c0-0.1,0.1-0.2,0.2-0.2
			c1.2,0.3,2.4,0.6,3.6,1.1c0.4,0.2,0.6,0.5,0.6,0.8c-0.1,0.3-0.4,0.4-0.8,0.5l-0.4,0.2c-0.8,1.4-1.6,2.8-2.7,4.3v19.7
			c0,0.6-0.2,1-0.7,1.2c-0.8,0.4-1.6,0.3-2.4,0c-0.4-0.2-0.6-0.6-0.5-1.2v-15.2C11141.1-10398.5,11139.6-10397.2,11138-10396.2z
			 M11144.3-10420.1c0-0.1,0.1-0.2,0.2-0.2c1.3,0.4,2.5,0.8,3.6,1.4c0.4,0.2,0.6,0.5,0.6,0.8c-0.1,0.3-0.4,0.4-0.9,0.4l-0.4,0.2
			c-2.5,4-5.6,7-9.2,9h-0.3c-0.1-0.1-0.1-0.2,0-0.3c2.9-3.2,5-6.7,6.2-10.7L11144.3-10420.1z M11147.6-10384.6h-0.3
			c-0.1-0.1-0.1-0.2,0-0.3c3.5-3.4,5.3-8.9,5.3-16.6c0-0.2,0.1-0.3,0.2-0.3c1.2,0.1,2.4,0.2,3.7,0.5c0.5,0.1,0.8,0.3,0.8,0.6
			s-0.2,0.5-0.5,0.6c-0.2,0-0.3,0.2-0.4,0.4c-0.4,2-0.9,3.9-1.4,5.6c1,1.8,2.8,3.3,5.4,4.4v-15.4c0-0.1,0-0.1,0.2-0.1
			c1.4,0,2.6,0.2,3.8,0.5c0.5,0.1,0.8,0.3,0.8,0.6s-0.2,0.5-0.6,0.6c-0.2,0.1-0.4,0.2-0.4,0.5v4.3h2.2c0.3,0,0.5-0.1,0.6-0.2
			l1.9-2.3c0.2-0.2,0.4-0.2,0.6,0c1.2,0.8,2.2,1.7,3,2.8c0.2,0.2,0.2,0.4,0.2,0.6c-0.1,0.2-0.3,0.3-0.7,0.3h-7.9v8.8
			c3.9,0.5,7.2,0.4,9.9-0.1c0.3,0,0.4,0,0.5,0.1c0.1,0.1,0,0.3-0.2,0.5c-1.3,1-2,2.2-2,3.8l-0.2,0.3c-2,0.4-4.6,0.4-7.8-0.2
			c-4.6-1.1-7.8-4-9.7-8.5C11153.2-10389.2,11150.8-10386.4,11147.6-10384.6z M11158.3-10404.6c-0.3,0.1-0.4,0.1-0.5,0
			c-0.1-0.2,0-0.3,0.1-0.5l2.8-3.7c-1.1,0.3-1.9-0.2-2.3-1.6c-0.4-1.5-1.1-2.6-2.1-3.5c-2,4.3-4.5,7.4-7.3,9.3
			c-0.2,0.2-0.4,0.2-0.5,0c-0.1-0.2-0.1-0.3,0.1-0.5c3.1-3.8,5.1-9,5.7-15.5c0-0.3,0.2-0.4,0.5-0.3c1.5,0.2,2.9,0.6,4.2,1.3
			c0.3,0.2,0.5,0.4,0.4,0.7c0,0.3-0.4,0.5-1,0.6c-0.2,0-0.8,1.1-1.7,3.3c1,0.2,2,0.7,2.9,1.3c1.3,1,2,2,2,2.9
			c1.6-3.6,2.7-6.8,3.2-9.7c0-0.2,0.2-0.3,0.5-0.2c1.6,0.3,2.9,0.8,4,1.6c0.4,0.2,0.5,0.4,0.4,0.7c-0.1,0.4-0.4,0.5-1,0.5
			c-0.2,0-0.4,0.2-0.6,0.6l-1.6,3.2h0c2.9,0.8,4.9,2.4,6,4.4c0.3,0.7,0.4,1.4,0.3,2.2c-0.1,0.6-0.5,1.1-1.1,1.4
			c-1.3,0.5-2.2-0.2-2.6-1.8c-0.6-2.2-1.7-3.9-3.2-5C11163.8-10409.1,11161.2-10406.3,11158.3-10404.6z"/>
	</g>
	<g class="st0">
		<path class="st1" d="M11146.5-10342c0,0.6-0.3,1.1-0.9,1.4c-0.8,0.3-1.6,0.3-2.4-0.1c-0.4-0.2-0.6-0.6-0.6-1.1v-14.4
			c-1,3.5-2.7,6.2-5.1,7.9c-0.2,0.2-0.4,0.2-0.6,0c-0.1-0.2-0.1-0.3,0-0.5c2.6-5,4.5-11,5.5-17.8h-2l-2.6,0.3
			c-0.2,0.1-0.3,0-0.3-0.1l-0.3-1.4c0-0.2,0.1-0.2,0.3-0.2l2.8,0.3h2.1v-9.8v-0.4c0-0.1,0-0.2,0.2-0.2c1.2,0.1,2.5,0.3,3.9,0.5
			c0.7,0.2,1,0.4,1,0.8c0,0.4-0.2,0.6-0.8,0.8c-0.2,0-0.4,0.2-0.4,0.6v7.6h0.3c0.3,0,0.5-0.1,0.6-0.3l1.5-2.2
			c0.2-0.4,0.4-0.4,0.8-0.1c0.8,0.6,1.5,1.4,2.2,2.5c0.2,0.2,0.3,0.5,0.2,0.8c-0.1,0.2-0.3,0.3-0.6,0.3h-5v3.4h0.2
			c2.4,0.6,4.2,1.8,5.2,3.5c0.4,0.6,0.5,1.4,0.3,2.2c-0.1,0.6-0.5,1.1-1.2,1.4c-0.6,0.2-1.2,0.2-1.7-0.2c-0.4-0.4-0.7-0.9-0.9-1.6
			c-0.5-1.6-1.1-2.8-2-3.7V-10342z M11161.8-10347c-4.4,2.5-8.6,4-12.6,4.6c-0.2,0-0.3,0-0.3-0.2c0-0.2,0-0.3,0.2-0.3
			c6.5-2.4,12.1-6.2,16.8-11.4c2.1-2.5,3.4-4.4,3.8-5.5c0-0.1,0.2-0.2,0.3-0.1c1.2,0.5,2.4,1.1,3.5,1.8c0.5,0.3,0.7,0.6,0.6,0.9
			c-0.1,0.2-0.4,0.3-1,0.3c-0.1,0-0.3,0.1-0.5,0.4c-2.1,2.5-4.5,4.8-7.2,6.9c3,0.4,5.4,1.8,6.9,3.8c0.5,0.6,0.7,1.4,0.7,2.2
			c0,0.8-0.4,1.3-1,1.7c-1.3,0.7-2.4,0.2-3.1-1.5c-1.1-2.4-2.8-4.2-4.8-5.3L11161.8-10347z M11165.8-10366.2c0-0.2,0.2-0.2,0.3-0.2
			c1.4,0.4,2.6,0.8,3.9,1.4c0.5,0.2,0.7,0.5,0.6,0.8c-0.1,0.3-0.4,0.4-0.8,0.4c-0.3,0-0.4,0.2-0.6,0.4c-4.4,6.6-10.5,11.1-18.4,13.6
			c-0.2,0.1-0.4,0-0.4-0.1s0-0.3,0.2-0.4c7.2-3.8,12.2-9,15.1-15.6L11165.8-10366.2z M11157.7-10370.2h-4l-2.3,0.4
			c-0.2,0.1-0.4,0.1-0.4-0.1l-0.4-1.4c0-0.2,0.1-0.2,0.4-0.2l2.7,0.3h6v-6.8c0-0.1,0-0.1,0.2-0.1c1.4,0,2.7,0.2,3.8,0.5
			c0.5,0.1,0.7,0.3,0.7,0.6c0,0.3-0.2,0.6-0.6,0.7c-0.3,0.1-0.4,0.2-0.4,0.5v4.6h4.1c0.2,0,0.5-0.1,0.6-0.4l2.1-2.6
			c0.2-0.2,0.5-0.3,0.8-0.1c1.4,0.8,2.6,1.9,3.5,3.2c0.2,0.2,0.2,0.4,0.2,0.5c-0.1,0.2-0.3,0.3-0.6,0.3h-11.9
			c-1.5,3.1-3.5,5.7-5.9,7.5c1,0.4,1.8,1.2,2.4,2.2c0.4,0.7,0.5,1.5,0.3,2.3c-0.2,0.7-0.6,1.2-1.3,1.5s-1.3,0.2-1.8-0.3
			c-0.5-0.4-0.8-1-1-1.8c-0.4-2.1-1.5-3.7-3-4.7c-0.2-0.1-0.2-0.2-0.2-0.4c0-0.2,0.2-0.2,0.4-0.2c0.8,0,2,0.3,3.2,0.9
			C11156.4-10365.3,11157.2-10367.7,11157.7-10370.2z"/>
	</g>
	<g class="st0">
		<path class="st1" d="M11162.7-10309.2c1-1,2.4-3,4.2-6c0-0.1,0.2-0.2,0.3-0.1c1.1,0.6,2.2,1.3,3.2,2.2c0.4,0.3,0.5,0.6,0.4,0.9
			c-0.1,0.2-0.4,0.3-1,0.2c-0.1,0-0.3,0-0.4,0.1c-2.2,2.2-4.9,3.8-7.8,4.8c3.1,3.1,7.3,4.9,12.4,5.4c0.2,0,0.3,0.1,0.4,0.2l-0.2,0.3
			c-1.4,0.7-2.4,1.9-2.9,3.6c-0.1,0.3-0.2,0.4-0.6,0.3c-2.2-0.6-4.1-1.5-5.7-2.5c-4.2-2.7-6.8-7.2-7.7-13.2c-0.4,2.4-1,4.6-2,6.6
			c-2.7,5.3-8.5,8.4-17.4,9c-0.2,0-0.3-0.1-0.3-0.3c0-0.2,0.1-0.2,0.3-0.3c2.8-0.6,5.7-1.7,8.5-3.3l2.1-1.6c3.4-2.9,5.1-7.6,5.1-14
			c0-0.2,0.1-0.3,0.3-0.3c1.2,0,2.5,0.2,3.7,0.4c0.6,0.1,0.9,0.4,0.9,0.6c0,0.3-0.2,0.5-0.7,0.7c0.5,3.3,1.6,5.9,3.2,7.7
			L11162.7-10309.2z M11147-10314.6c0.1,0,0.2,0.1,0.2,0.3c0,1.9-0.3,3.8-1,5.6c-0.6,1.8-1.6,3-2.8,3.9c-0.6,0.4-1.2,0.6-1.9,0.5
			c-0.6-0.1-1.2-0.4-1.5-0.9c-0.8-1.4,0.1-2.7,2.6-3.8c1.7-1.1,3.1-3,4.1-5.5C11146.8-10314.5,11146.8-10314.6,11147-10314.6z
			 M11145.4-10334.3l0.2-0.7c0-0.2,0.2-0.2,0.4-0.2c1,0.4,2,0.8,3.1,1.4c0.4,0.2,0.6,0.5,0.6,0.8c0,0.2-0.3,0.4-0.8,0.4
			c-0.2,0-0.4,0.2-0.6,0.4c-1.7,2.5-3.6,4.3-5.7,5.4l0.9,0.4c2.6,1.3,4.4,3.1,5,5.2c0.3,0.7,0.3,1.5,0,2.2c-0.2,0.7-0.7,1.1-1.4,1.3
			c-0.7,0.2-1.3,0-1.7-0.4c-0.4-0.4-0.7-1-0.8-1.8c-0.5-3.1-1.8-5.4-3.8-6.8c-0.1-0.1-0.2-0.2-0.1-0.4c0-0.1,0.2-0.2,0.4-0.2
			l0.9,0.4C11143.5-10328.9,11144.6-10331.4,11145.4-10334.3z M11155.8-10334.1l0.2-0.7c0-0.2,0.1-0.2,0.4-0.2c1,0.4,2,0.8,3,1.4
			c0.4,0.3,0.6,0.6,0.6,0.8c0,0.3-0.3,0.4-0.8,0.5c-0.2,0-0.4,0.2-0.6,0.4c-1.6,2.3-3.4,4-5.4,5.1c2.9,1.1,4.9,2.8,5.9,5
			c0.3,0.7,0.4,1.4,0.2,2.2c-0.2,0.7-0.6,1.2-1.3,1.4c-0.6,0.2-1.2,0.1-1.8-0.3c-0.4-0.4-0.7-1-0.9-1.7c-0.7-3.1-2.3-5.4-4.6-6.7
			c-0.2-0.1-0.2-0.2-0.2-0.4c0-0.2,0.2-0.2,0.3-0.2l1.5,0.4C11153.8-10328.8,11154.8-10331.2,11155.8-10334.1z M11166-10334.8
			c0-0.2,0.2-0.2,0.4-0.2c1,0.4,2,0.8,3,1.3c0.4,0.2,0.7,0.5,0.6,0.8c0,0.3-0.3,0.4-0.8,0.5c-0.2,0-0.4,0.2-0.5,0.4
			c-1.6,2.4-3.4,4.2-5.4,5.3c1.4,0.6,2.7,1.4,3.8,2.5c1.7,1.8,2.4,3.5,2,5c-0.2,0.7-0.7,1.2-1.4,1.3c-0.6,0.2-1.2,0-1.7-0.4
			c-0.4-0.4-0.6-1-0.8-1.8c-0.4-3-1.8-5.2-4-6.8c-0.2-0.1-0.2-0.2-0.2-0.4c0-0.1,0.2-0.2,0.4-0.2l1.1,0.4
			C11164.4-10329.1,11165.5-10331.7,11166-10334.8z"/>
	</g>
	<g class="st0">
		<path class="st1" d="M11145.7-10269.4h-4.4v1.7c0,0.6-0.2,1.1-0.8,1.3c-0.8,0.3-1.5,0.2-2.3-0.1c-0.4-0.2-0.6-0.6-0.6-1v-20.4
			v-0.4c0-0.1,0.1-0.2,0.2-0.2l3.7,0.5c0.7,0.2,1,0.4,1,0.8l-1.2,1.3v15.4h9.2c0.4,0,0.6-0.1,0.6-0.3c0.6-1.2,1.1-1.9,1.3-1.9
			c-0.6,0-1.1-0.1-1.4-0.3c-0.2-0.2-0.3-0.6-0.3-1.1v0h-3.6v0c0,0.6-0.2,1-0.6,1.3c-0.5,0.3-1.1,0.5-1.7,0.5c-0.5,0-0.9-0.1-1.2-0.3
			c-0.2-0.2-0.3-0.5-0.2-0.9v-18.4c0-0.2,0-0.3,0.2-0.3c1.2,0.2,2.3,0.6,3.4,1.2h2.4c0.6,0.1,1,0,1.2-0.2l0.8-1.2
			c0.2-0.2,0.4-0.2,0.6-0.1c1.3,0.5,2.4,1,3.2,1.6c0.3,0.2,0.4,0.5,0.4,0.8c0,0.2-0.3,0.5-0.8,0.6c-0.2,0.1-0.4,0.2-0.4,0.5v14.8
			c0,0.5-0.2,1-0.8,1.2l-1,0.4h0.2c1.2,0.8,2.2,1.6,3.1,2.5c0.1,0.2,0.2,0.3,0.1,0.5c-0.1,0.1-0.2,0.2-0.6,0.2h-6.1v13.8
			c0,0.6-0.3,1-0.9,1.3c-0.8,0.3-1.5,0.3-2.2-0.1c-0.4-0.2-0.6-0.6-0.6-1.2v-7.2c-0.6,0-1.3,0.6-1.8,1.7c-2,3.2-4.2,5.5-6.5,6.9
			c-0.3,0.1-0.4,0.1-0.5,0c-0.1-0.2,0-0.3,0.1-0.5c1.6-1.8,3.1-5.4,4.2-10.7c0-0.2,0.2-0.3,0.5-0.3c1.5,0.3,2.8,0.9,3.9,1.6
			V-10269.4z M11150.7-10285.6v-4.2c-0.1-0.2-0.3-0.2-0.5-0.1h-2.5l-0.6,0.1v4.2H11150.7z M11150.7-10280.2v-4.3h-3.6v4.3H11150.7z
			 M11150.7-10275.1v-4.1h-3.6v4.1H11150.7z M11150.5-10265.6c0-0.1,0.2-0.2,0.4-0.1h0c2.5,0.8,4.1,2,4.8,3.4
			c0.2,0.7,0.2,1.4-0.2,2.2c-0.3,0.6-0.8,1-1.5,1.2c-1.4,0.2-2.2-0.7-2.3-2.5c0.1-1.5-0.4-2.8-1.2-3.8
			C11150.5-10265.2,11150.4-10265.4,11150.5-10265.6z M11157.8-10266.1c0-0.3,0.2-0.4,0.5-0.3c1.6,0.3,3,0.9,4.1,1.6
			c0.3,0.2,0.5,0.4,0.4,0.7c-0.1,0.3-0.4,0.5-1,0.5c-0.2,0-0.4,0.2-0.6,0.6c-2.3,4.6-4.8,7.6-7.2,8.8c-0.2,0.1-0.4,0.1-0.5,0
			c-0.1-0.1,0-0.3,0.1-0.5c1.8-2,3-4.8,3.6-8.3L11157.8-10266.1z M11161-10287.3l-5,0.3c-0.2,0-0.3-0.1-0.3-0.3
			c0-0.2,0.1-0.3,0.3-0.3c5.6-1.2,9.9-2.8,12.8-4.5l0.6-0.1c1.1,0.6,2.2,1.3,3.2,2.2c0.4,0.3,0.5,0.6,0.4,0.8
			c-0.2,0.2-0.4,0.3-0.7,0.2c-0.4-0.1-0.7-0.1-1.1,0c-2.3,0.6-4.7,1-7.2,1.3l-0.7,0.1l1.4,0.6c0.4,0.2,0.6,0.5,0.6,0.8
			c0,0.3-0.3,0.4-0.7,0.5c-0.2,0-0.4,0.2-0.5,0.4c-1,1.4-2.2,2.7-3.7,3.8c0.5,0.4,0.9,0.8,1.1,1.2c0.4,0.6,0.5,1.4,0.3,2.2
			c-0.1,0.8-0.6,1.2-1.2,1.5c-0.7,0.2-1.2,0.1-1.8-0.3c-0.4-0.4-0.8-0.9-1-1.7c-0.2-1.8-1.1-3.1-2.3-3.9c-0.1-0.1-0.2-0.2-0.2-0.4
			c0-0.2,0.2-0.2,0.4-0.2c1.3,0,2.6,0.4,3.7,1.1C11160.2-10284.1,11160.8-10285.8,11161-10287.3z M11158.2-10268.2
			c-0.2,0.4-0.4,0.6-0.6,0.6c-0.3,0-0.5-0.3-0.7-0.8l-0.9-3.4c0-0.2,0-0.4,0.4-0.4l4.1-0.1l0.2-0.3c2.7-4.3,4.4-8.2,5-11.7
			c0-0.1,0.1-0.2,0.3-0.2c1.2,0.4,2.4,0.9,3.6,1.6c0.4,0.2,0.6,0.5,0.6,0.7c0,0.2-0.3,0.3-0.7,0.4c-0.2,0-0.3,0.1-0.4,0.2
			c-1.7,3.2-4.1,6.2-7.1,9.2c3.6-0.5,6.3-1,8.3-1.5c-0.4-1.1-1-2.1-1.8-2.7c-0.1-0.1-0.2-0.2-0.1-0.4c0-0.1,0.2-0.2,0.4-0.1h0.2
			c3,1,4.9,2.6,5.6,4.8c0.3,0.7,0.2,1.4-0.1,2.2c-0.2,0.6-0.7,1.1-1.4,1.2c-0.6,0.1-1.2-0.1-1.7-0.6c-0.4-0.4-0.6-1-0.6-1.9
			l-0.3-1.6l-3.5,1.6v15.8c0,0.6-0.3,1-0.9,1.3c-0.8,0.3-1.5,0.3-2.2-0.1c-0.4-0.2-0.6-0.6-0.6-1.2v-14.5
			C11159.9-10269.1,11158.2-10268.5,11158.2-10268.2z M11168.8-10265.6c0.1-0.1,0.2-0.2,0.4-0.1l1.3,0.7c2,1.1,3.4,2.7,3.9,4.6
			c0.2,0.7,0,1.4-0.3,2.2c-0.4,0.6-0.9,1-1.6,1c-1.5,0.1-2.2-0.8-2.1-2.6c0.2-2.3-0.4-4.1-1.6-5.3
			C11168.7-10265.2,11168.7-10265.4,11168.8-10265.6z"/>
	</g>
	<g class="st0">
		<path class="st1" d="M11146-10226c0,0.5-0.2,0.8-0.7,1c-0.6,0.2-1.2,0.2-1.8-0.1c-0.3-0.2-0.5-0.5-0.5-0.9v-4.8l-0.2,0.2
			c-1.2,2.4-2.7,4.2-4.4,5.3h-0.3v-0.2c1-1.6,1.8-3.8,2.3-6.5l0.1-0.6c0-0.1,0.1-0.2,0.3-0.2l2.1,0.7v-2.3c-2.1,0.5-3.2,0.9-3.2,1.2
			c-0.1,0.3-0.2,0.4-0.4,0.5s-0.4-0.1-0.5-0.4c-0.6-1.2-0.9-2.2-1-3.1c0-0.2,0.1-0.3,0.3-0.3c0.8,0.1,2.2,0.1,4.3,0h0.3
			c1.4-2,2.6-4.2,3.5-6.6l0.2-0.6c0-0.2,0.2-0.2,0.4-0.1l2.6,1.3c0.4,0.2,0.6,0.5,0.5,0.7c0,0.3-0.3,0.4-0.7,0.4
			c-0.2,0-0.9,0.8-2.1,2.4h0.2c2,0.6,3.2,1.8,3.6,3.5c0.1,0.5,0,1.1-0.3,1.6c-0.3,0.4-0.7,0.7-1.2,0.7c-0.5,0-0.9-0.2-1.2-0.6
			c-0.2-0.3-0.3-1.1-0.3-2.3l-1.9,0.7v1.8c1.9,0.5,3.2,1.5,3.9,3.1c0.2,0.5,0.2,1-0.1,1.6c-0.2,0.4-0.5,0.7-1,0.8
			c-1,0.2-1.6-0.4-1.6-1.7c-0.1-1.3-0.5-2.3-1.2-3.1V-10226z M11169-10226.8c0,0.4-0.2,0.7-0.6,0.9c1.1,0.8,2.1,1.6,2.9,2.8
			c0.2,0.2,0.2,0.4,0.2,0.6c-0.1,0.2-0.3,0.3-0.6,0.3h-5.4c-1.4,2.1-3.1,3.9-5.1,5.4c3.6,0.8,7.5,1,11.8,0.6c0.4,0,0.5,0,0.6,0.2
			c0.1,0.2,0,0.3-0.2,0.4c-1.5,0.9-2.2,2.2-2.2,3.7c0,0.2-0.2,0.3-0.4,0.3c-1.9,0-4-0.3-6.5-0.9c-2.4-0.6-4.6-1.4-6.4-2.3
			c-4.6,2.1-10.4,3.2-17.3,3.3c-0.2,0-0.3-0.1-0.3-0.2c0-0.2,0.1-0.3,0.3-0.3c5.7-0.8,10.6-2.4,14.6-4.6c-1.8-1.5-3.3-3.4-4.2-5.6
			h-0.1l-0.1,0.1c-3.7,2.5-7.3,4-10.9,4.4c-0.2,0-0.3,0-0.3-0.2c0-0.2,0-0.3,0.2-0.3c1.2-0.5,2.6-1.2,4-2.1l0.6-0.4
			c3-2.4,4.9-4.4,5.5-6.2c0.1-0.2,0.2-0.2,0.3-0.1c1.2,0.5,2.2,1.2,3.3,1.9c0.4,0.3,0.6,0.6,0.4,0.8c-0.2,0.2-0.4,0.3-0.7,0.3
			c-0.2,0-0.4,0.1-0.6,0.3l-0.5,0.4h13.7c0.3,0,0.5-0.1,0.6-0.3l1.6-2l-0.7-0.2c-0.3-0.2-0.5-0.5-0.5-1v-4.1
			c-0.4,0.1-0.7,0.3-0.8,0.5c-1.2,2.2-2.6,3.9-4.2,4.8h-0.2v-0.3c0.9-1.6,1.6-3.6,2-6l0.1-0.5c0-0.1,0.1-0.2,0.3-0.2
			c1.6,0.4,2.6,0.8,2.8,1v-2.4c-1.9,0.5-3,0.8-3,1c-0.1,0.3-0.2,0.4-0.4,0.5c-0.2,0-0.4-0.1-0.5-0.4c-0.5-1.1-0.8-2.2-1-3.1
			c0-0.2,0-0.3,0.3-0.2h3.4c1.2-1.5,2.5-4,3.9-7.5c0-0.2,0.2-0.2,0.4-0.1c0.8,0.3,1.7,0.8,2.6,1.3c0.4,0.2,0.6,0.5,0.5,0.7
			c0,0.2-0.3,0.4-0.7,0.4c-0.2,0-0.4,0.1-0.5,0.3c-1.3,1.8-2.9,3.4-4.8,4.8l4.6-0.3c-0.2-0.6-0.5-1.2-0.9-1.6l-0.1-0.3l0.3,0
			c2.1,0.6,3.4,1.7,3.8,3.2c0.2,0.5,0.1,1.1-0.2,1.6c-0.2,0.5-0.6,0.8-1.1,0.8c-0.5,0-1-0.2-1.3-0.5c-0.1-0.1-0.3-0.9-0.4-2.2
			l-1.9,0.6v1.9h0c2.2,0.6,3.7,1.8,4.4,3.6c0.2,0.6,0.2,1.1,0,1.7c-0.2,0.5-0.6,0.8-1,0.9c-1.1,0.2-1.7-0.3-1.8-1.7
			c-0.2-1.6-0.7-2.8-1.6-3.7V-10226.8z M11143.6-10247.4c0-0.2,0.1-0.3,0.3-0.3l3,1c0.6,0.2,0.8,0.5,0.8,0.8c0,0.3-0.3,0.4-0.7,0.5
			c-0.2,0-0.4,0.1-0.7,0.4c-1,1.2-2,2.2-3.2,3.1l0.8,0.9c0.3,0.6,0.3,1.2,0.1,1.9c-0.2,0.6-0.6,1-1.2,1.1c-0.5,0.2-1,0-1.4-0.3
			c-0.3-0.3-0.5-0.8-0.6-1.5c-0.1-1.5-0.7-2.6-1.6-3.3l-0.1-0.3c0-0.1,0.2-0.2,0.3-0.2c0.8,0,1.6,0.2,2.5,0.8
			C11142.6-10244.4,11143.1-10245.9,11143.6-10247.4z M11147-10238.7l-2.4,2.2l3.3-0.3c-0.1-0.7-0.4-1.3-0.8-1.8L11147-10238.7z
			 M11154.6-10238.5l-2.5,0.3c-0.2,0.1-0.3,0-0.3-0.1l-0.3-1.4c0-0.2,0.1-0.2,0.4-0.2l2.8,0.3h1.7l0.5-0.2c0.8-1.1,1.3-1.8,1.5-1.9
			h-4.8l-2.5,0.3c-0.2,0.1-0.3,0-0.3-0.1l-0.3-1.4c0-0.2,0.1-0.2,0.4-0.2l2.8,0.3h3.4c0.2,0,0.8-0.7,1.8-1.9
			c0.2-0.3,0.4-0.3,0.6-0.1c0.6,0.5,1.1,1.2,1.6,2c0.2,0.3,0.3,0.6,0.2,0.8c-0.1,0.2-0.2,0.3-0.6,0.3h-1.9l0.1,0.1
			c0.6,0.5,1.1,1.2,1.5,2c0.2,0.3,0.3,0.6,0.2,0.8c-0.1,0.2-0.3,0.3-0.6,0.3h-1.1l0.1,0c0.6,0.5,1.1,1.2,1.5,2
			c0.2,0.3,0.3,0.6,0.2,0.8c-0.1,0.2-0.3,0.3-0.6,0.3h-5.3l-2.5,0.3c-0.2,0.1-0.3,0-0.3-0.1l-0.3-1.4c0-0.2,0.1-0.2,0.4-0.2l2.8,0.3
			h1.7l0.5-0.2c0.8-1.1,1.3-1.8,1.5-1.8H11154.6z M11154.3-10246.3h2.1c0.2,0,0.8-0.6,1.8-1.9c0.2-0.3,0.4-0.3,0.7-0.1
			c0.6,0.5,1.1,1.2,1.5,2c0.2,0.3,0.3,0.6,0.2,0.8c-0.1,0.2-0.3,0.3-0.6,0.3h-5.8l-2.6,0.3c-0.2,0.1-0.3,0-0.3-0.1l-0.3-1.4
			c0-0.2,0.1-0.2,0.4-0.2L11154.3-10246.3z M11156.8-10218.2c1.8-1.2,3.3-2.6,4.3-4.1h-9.7c0.7,0.8,1.5,1.5,2.5,2.2
			C11154.7-10219.3,11155.7-10218.7,11156.8-10218.2z M11154.3-10227.6c0,0.5-0.2,0.8-0.4,1c-0.4,0.2-0.8,0.4-1.3,0.4
			c-0.4,0-0.7,0-0.9-0.2c-0.1-0.1-0.2-0.3-0.2-0.6v-6.8c0-0.2,0-0.2,0.1-0.2c1,0.2,1.9,0.6,2.5,0.9h2.6l0.4-0.2l1.1-0.6
			c0.1-0.1,0.2-0.1,0.4,0c0.7,0.3,1.4,0.7,2,1.3l0.1,0.1c0.2,0.2,0,0.5-0.4,1v4.2c0,0.4-0.2,0.6-0.5,0.8c-0.6,0.2-1.2,0.2-1.8,0
			c-0.3-0.2-0.4-0.4-0.4-0.8v-0.4h-3.2V-10227.6z M11157.4-10228.8v-3.3h-2.4l-0.8,0.1v3.2H11157.4z M11165.2-10247.3
			c0-0.2,0.1-0.3,0.3-0.3l3,0.8c0.6,0.2,0.8,0.4,0.8,0.8c0,0.3-0.2,0.5-0.7,0.5c-0.2,0-0.4,0.2-0.7,0.4c-0.8,1-1.8,1.9-2.8,2.6
			c0.5,0.4,0.9,0.8,1.1,1.2c0.3,0.6,0.3,1.2,0.1,1.9c-0.2,0.6-0.5,0.9-1.1,1c-0.6,0.1-1,0-1.4-0.3c-0.4-0.3-0.6-0.8-0.6-1.5
			c-0.1-1.5-0.6-2.6-1.6-3.4l-0.1-0.3c0-0.1,0.2-0.2,0.3-0.2l1.1,0.2l1.3,0.5C11164.5-10244.7,11164.9-10246,11165.2-10247.3z"/>
	</g>
	<g class="st0">
		<path class="st1" d="M11138.2-10182.7c0-0.1,0-0.2,0.2-0.2c1,0,2.2,0.2,3.4,0.4c0.4,0.1,0.7,0.3,0.7,0.5c0,0.3-0.2,0.5-0.6,0.6
			c-0.2,0-0.3,0.2-0.4,0.4c-0.9,4.4-2.4,8-4.3,10.8c-0.1,0.2-0.2,0.2-0.4,0.2c-0.1,0-0.2-0.2-0.1-0.4c0.9-4.2,1.4-8.1,1.5-11.5
			V-10182.7z M11146.4-10169.6c0,0.6-0.3,1-0.9,1.3c-0.8,0.3-1.5,0.3-2.2-0.1c-0.4-0.2-0.6-0.6-0.6-1.2v-16.2
			c-2.1,0.5-3.2,1-3.2,1.2c-0.1,0.4-0.2,0.6-0.5,0.6c-0.3,0-0.5-0.1-0.7-0.5c-0.8-2-1.2-3.2-1.2-3.8c0-0.3,0.1-0.4,0.4-0.4h4.5
			c2.6-4.2,4.4-8.5,5.2-12.5c0-0.2,0.2-0.2,0.4-0.2l3,1c0.4,0.2,0.6,0.4,0.6,0.8c0,0.3-0.2,0.4-0.7,0.5c-0.2,0-0.4,0.2-0.5,0.4
			c-1.6,3.7-3.8,7-6.5,9.9l5-0.4c-0.3-1-0.8-1.7-1.2-2.2c-0.1-0.1-0.2-0.2-0.1-0.4c0-0.1,0.2-0.2,0.4-0.2c1.4,0.4,2.6,0.9,3.4,1.6
			l-0.3-1.2c0-0.2,0.1-0.2,0.4-0.2l2.7,0.3h7.9l1.1-4.1h-6l-0.8,1.8c-0.3,0.4-0.9,0.6-1.8,0.5c-0.7-0.1-1.2-0.3-1.4-0.6
			c-0.2-0.2-0.1-0.6,0-1c1.7-4.1,2.8-7.9,3.2-11.2c0-0.2,0.1-0.3,0.4-0.3l3.1,0.4c0.6,0.1,0.9,0.3,0.9,0.6c0,0.3-0.2,0.5-0.8,0.6
			c-0.2,0-0.4,0.3-0.4,0.7l-0.4,1.5h4.9l0.5-0.3l1.2-1.1h0.5c1.1,0.6,2.1,1.2,3,2c0.2,0.2,0.3,0.4,0.3,0.7c0,0.3-0.3,0.4-0.8,0.5
			c-0.2,0-0.3,0.1-0.4,0.3l-2.6,9h2.5c0.3,0,0.5-0.1,0.7-0.3l2-2.5c0.2-0.2,0.4-0.2,0.7-0.1c1.4,0.8,2.5,1.9,3.4,3.1
			c0.2,0.2,0.2,0.4,0.2,0.6c-0.1,0.2-0.3,0.2-0.6,0.2h-9.8c0.4,2.8,1.3,5.3,2.6,7.7c1.1-1.3,2.1-3.1,3-5.3c0-0.2,0.2-0.2,0.3-0.1
			c1.2,0.6,2.3,1.2,3.3,2c0.4,0.3,0.6,0.6,0.4,0.9c-0.2,0.2-0.5,0.3-1,0.2c-0.2,0-0.3,0-0.4,0.1c-1.2,1.1-2.8,2.2-5,3.2
			c2,2.8,4.3,5.1,6.8,6.8l0.3,0.3l-0.2,0.2c-1.4,0.4-2.4,1.4-3,2.8c-0.1,0.2-0.2,0.2-0.5,0c-1.9-1.6-3.5-4.1-4.8-7.5
			c-0.9-2.2-1.5-4.4-1.9-6.6v12.7c0,1.1-0.2,2-0.5,2.7c-0.8,1.3-2.4,2-4.6,2c-0.3,0-0.4-0.2-0.4-0.4c0.2-1.6-0.6-2.8-2.4-3.7
			c-0.2-0.1-0.3-0.2-0.2-0.4c0-0.2,0.1-0.3,0.3-0.3l3.2,0.2c0.7,0,1-0.3,1-0.9v-5.5l-0.4,0.3c-1.7,1.4-3.6,2.9-5.8,4.5
			c-0.5,0.4-0.8,0.6-0.8,0.8c0,0.4-0.1,0.6-0.3,0.7c-0.4,0.2-1-0.4-2-1.7c-0.3,0.4-0.7,0.6-1.3,0.6c-1.4,0-2-0.8-1.9-2.6
			c0.1-2.4-0.6-4.5-1.8-6.1V-10169.6z M11142.2-10205l0.1-0.7c0-0.2,0.2-0.3,0.4-0.2c1,0.2,2,0.4,3.1,0.8c0.4,0.2,0.6,0.4,0.6,0.7
			s-0.2,0.5-0.6,0.5c-0.2,0.1-0.4,0.2-0.5,0.5c-1.1,2.3-2.4,4-3.8,5.1c0.9,0.9,1.5,1.6,1.6,1.9c0.3,0.7,0.3,1.4,0,2.3
			c-0.2,0.6-0.7,1.1-1.4,1.2c-0.7,0.1-1.2,0-1.7-0.5c-0.4-0.4-0.7-1-0.8-1.8c0-1.9-0.8-3.4-2-4.3c-0.1-0.1-0.2-0.2-0.1-0.4
			c0-0.1,0.2-0.2,0.4-0.2c1.2,0.3,2.2,0.7,3,1.2C11141.4-10200.5,11142-10202.5,11142.2-10205z M11152-10176.9
			c3.8-1.5,6.6-2.8,8.7-3.8v-9.6h-7l-2.3,0.4h-0.1c0.5,0.5,0.9,1,1.2,1.4c0.2,0.7,0.2,1.4-0.1,2.2c-0.2,0.7-0.7,1.1-1.4,1.2
			c-0.6,0.1-1.2-0.1-1.6-0.5c-0.1-0.2-0.4-1-0.7-2.3c-1,0.2-1.8,0.6-2.2,0.8v3.6h0l1.7,1
			C11150.4-10180.7,11151.7-10178.9,11152-10176.9L11152-10176.9z M11153.4-10187.7c0-0.1,0.2-0.2,0.4-0.2c2.4,0,4.2,0.8,5.3,2.5
			c0.4,0.7,0.4,1.4,0.2,2.2c-0.2,0.7-0.6,1.2-1.3,1.4c-1.5,0.4-2.4-0.3-2.6-2.1c-0.2-1.5-0.8-2.6-1.8-3.5
			C11153.4-10187.4,11153.3-10187.5,11153.4-10187.7z M11158.4-10201.2l-1.4,4.8h5.9l1.4-4.9h-4.8L11158.4-10201.2z"/>
	</g>
	<g class="st0">
		<path class="st1" d="M11140.3-10150.5c-0.7,0.1-1,0.2-1.1,0.4c-0.1,0.4-0.3,0.5-0.5,0.5c-0.3,0-0.5-0.2-0.6-0.5
			c-0.4-0.9-0.6-2.2-0.8-3.8c0-0.2,0.1-0.3,0.4-0.3l3.6,0.3c1.2-3.1,1.8-6.1,1.8-9c0-0.2,0.1-0.2,0.3-0.2c1.3,0.2,2.6,0.5,4,1
			c0.4,0.2,0.7,0.4,0.6,0.7c0,0.2-0.2,0.4-0.6,0.5c-0.2,0-0.3,0.1-0.4,0.3c-1,2.4-2.6,4.8-4.4,6.8h8.8c-0.4-1.4-1.2-2.5-2.3-3.3
			c-0.1-0.1-0.2-0.2-0.1-0.4c0-0.1,0.2-0.2,0.3-0.2c3.3,0.6,5.5,2.1,6.6,4.3c0.3,0.7,0.4,1.5,0.1,2.3c-0.2,0.7-0.7,1.2-1.4,1.4
			c-0.7,0.2-1.3,0-1.8-0.4c-0.4-0.5-0.8-1.4-1-2.6L11140.3-10150.5z M11143.2-10127.4c0,0.8-0.2,1.3-0.6,1.6c-0.4,0.4-1,0.6-1.8,0.6
			c-0.5,0-0.9-0.1-1.2-0.4c-0.2-0.2-0.3-0.5-0.3-0.9v-22.2l0.1-0.3h0.3c1,0.3,2.1,0.7,3.2,1.3h5.4c0.4,0,0.7-0.1,0.9-0.3l1.2-1.4
			c0.2-0.2,0.4-0.2,0.7-0.1c1.6,0.7,2.8,1.4,3.4,2c0.8,0.7,0.6,1.3-0.6,1.8c-0.4,0.2-0.5,0.5-0.5,0.9v15.8c0,1.5-0.6,2.5-1.5,3.2
			c-1,0.6-2,0.9-3.1,0.8c-0.2,0-0.2-0.1-0.3-0.3c-0.1-1.6-1-2.7-2.6-3.1c-0.3-0.1-0.4-0.2-0.3-0.5c0-0.2,0.2-0.3,0.6-0.3
			c1.7,0,2.8-0.2,3-0.4c0.2-0.3,0.3-0.6,0.3-0.9v-5h-6.3V-10127.4z M11149.5-10142.2v-4.2c0-0.3-0.2-0.4-0.4-0.3h-5.2l-0.8,0.1v4.4
			H11149.5z M11149.5-10136.7v-4.4h-6.3v4.4H11149.5z M11161-10151l0.2,0.8c0.1,0.3,0.3,0.4,0.6,0.6l0.3,0.1
			c3.8,0.3,6.3,0.2,7.5-0.3c0.5-0.3,1.1-1.5,1.6-3.6c0.1-0.2,0.2-0.4,0.4-0.3c0.2,0,0.3,0.1,0.4,0.4c0,2,0.3,3.1,0.8,3.5
			c0.7,0.3,1.1,0.8,1.1,1.5c0,0.8-0.4,1.3-1.2,1.7c-0.9,0.4-1.8,0.7-3,0.8l-4.9,0.1c-2.7,0-4.6-0.2-5.6-0.7
			c-0.8-0.4-1.4-0.9-1.7-1.6c-0.2-0.7-0.4-1.3-0.4-1.9v-11.2v-1.2c0-0.2,0.1-0.3,0.4-0.3c1.1,0.1,2.3,0.2,3.6,0.5
			c0.7,0.1,1,0.4,1,0.7l-1.1,1.3v4.7c3.6-1.7,6-3.5,7.2-5.2h0.3c0.9,0.7,1.7,1.5,2.5,2.4c0.3,0.5,0.4,0.8,0.2,1
			c-0.2,0.2-0.4,0.2-0.8,0c-0.2-0.1-0.4,0-0.6,0.1c-3,1.5-5.9,2.4-8.7,2.6V-10151z M11161.4-10131l0.2,0.8c0.1,0.3,0.4,0.4,0.7,0.6
			l0.3,0.1c3.9,0.3,6.6,0.2,7.8-0.3c0.6-0.4,1.1-1.6,1.6-3.8c0.1-0.2,0.2-0.4,0.4-0.3c0.2,0,0.3,0.1,0.4,0.4c0,2,0.2,3.2,0.8,3.7
			c0.7,0.3,1,0.8,1,1.5c0,0.8-0.4,1.3-1.1,1.7c-0.9,0.4-2,0.7-3.1,0.8l-5,0.1c-2.8,0-4.7-0.2-5.7-0.7c-0.8-0.4-1.4-0.9-1.8-1.6
			c-0.2-0.7-0.3-1.3-0.3-1.9v-13.1v-1.2c0-0.2,0.1-0.3,0.3-0.3c1.2,0.1,2.3,0.2,3.6,0.5c0.7,0.1,1,0.3,1,0.7l-1.1,1.3v6
			c2.4-1.2,4.9-3.1,7.4-5.6c0.1-0.1,0.2-0.1,0.3,0c1,0.7,1.8,1.5,2.6,2.4c0.4,0.5,0.5,0.8,0.3,1.1s-0.5,0.2-0.9,0
			c-0.1-0.1-0.3,0-0.6,0.1c-3,1.5-6.1,2.5-9.1,2.8V-10131z"/>
	</g>
	<g class="st0">
		<path class="st1" d="M11156.2-10104.9c-0.5,4.3-1.5,8.1-3,11.3c-3.4,5.9-8.7,9.4-15.8,10.6c-0.2,0-0.3,0-0.4-0.2
			c0-0.2,0-0.3,0.2-0.4c2.4-1,4.8-2.5,7-4.4c1.2-1,2.2-2.1,3.2-3.3c2.9-3.8,4.6-9,5.1-15.8h-11.8l-2.3,0.4c-0.2,0.1-0.4,0.1-0.4-0.1
			l-0.4-1.4c0-0.2,0.1-0.2,0.4-0.2l2.7,0.3h11.8c0.2-3.1,0.3-7,0.3-11.6c0-0.2,0.1-0.2,0.2-0.2l3.8,0.4c0.6,0.1,0.9,0.4,0.9,0.7
			c0,0.3-0.3,0.5-0.8,0.7c-0.2,0-0.3,0.2-0.3,0.3c0,3.3-0.1,6.6-0.4,9.7h10.4c0.3,0,0.5-0.1,0.7-0.4l2-2.6c0.2-0.2,0.5-0.2,0.8-0.1
			c1.4,0.9,2.6,2,3.5,3.3c0.2,0.2,0.2,0.4,0.2,0.5c-0.1,0.2-0.3,0.3-0.7,0.3h-16.6c0.4,3.1,1.4,6.2,2.9,9.1
			c3.5,6.1,8.2,9.9,14.1,11.2c0.2,0,0.2,0.1,0.2,0.2c0,0.2,0,0.3-0.2,0.4c-1.3,0.4-2.3,1.4-2.8,3c-0.1,0.2-0.2,0.3-0.4,0.2
			c-1.7-0.8-3.2-1.6-4.6-2.6c-5.4-3.8-8.7-10.4-9.7-19.8V-10104.9z"/>
	</g>
	<g class="st0">
		<path class="st1" d="M11145.7-10054.4h-4.4v1.7c0,0.6-0.2,1.1-0.8,1.3c-0.8,0.3-1.5,0.2-2.3-0.1c-0.4-0.2-0.6-0.6-0.6-1v-20.4
			v-0.4c0-0.1,0.1-0.2,0.2-0.2l3.7,0.5c0.7,0.2,1,0.4,1,0.8l-1.2,1.3v15.4h9.2c0.4,0,0.6-0.1,0.6-0.3c0.6-1.2,1.1-1.9,1.3-1.9
			c-0.6,0-1.1-0.1-1.4-0.3c-0.2-0.2-0.3-0.6-0.3-1.1v0h-3.6v0c0,0.6-0.2,1-0.6,1.3c-0.5,0.3-1.1,0.5-1.7,0.5c-0.5,0-0.9-0.1-1.2-0.3
			c-0.2-0.2-0.3-0.5-0.2-0.9v-18.4c0-0.2,0-0.3,0.2-0.3c1.2,0.2,2.3,0.6,3.4,1.2h2.4c0.6,0.1,1,0,1.2-0.2l0.8-1.2
			c0.2-0.2,0.4-0.2,0.6-0.1c1.3,0.5,2.4,1,3.2,1.6c0.3,0.2,0.4,0.5,0.4,0.8c0,0.2-0.3,0.5-0.8,0.6c-0.2,0.1-0.4,0.2-0.4,0.5v14.8
			c0,0.5-0.2,1-0.8,1.2l-1,0.4h0.2c1.2,0.8,2.2,1.6,3.1,2.5c0.1,0.2,0.2,0.3,0.1,0.5c-0.1,0.1-0.2,0.2-0.6,0.2h-6.1v13.8
			c0,0.6-0.3,1-0.9,1.3c-0.8,0.3-1.5,0.3-2.2-0.1c-0.4-0.2-0.6-0.6-0.6-1.2v-7.2c-0.6,0-1.3,0.6-1.8,1.7c-2,3.2-4.2,5.5-6.5,6.9
			c-0.3,0.1-0.4,0.1-0.5,0c-0.1-0.2,0-0.3,0.1-0.5c1.6-1.8,3.1-5.4,4.2-10.7c0-0.2,0.2-0.3,0.5-0.3c1.5,0.3,2.8,0.9,3.9,1.6
			V-10054.4z M11150.7-10070.6v-4.2c-0.1-0.2-0.3-0.2-0.5-0.1h-2.5l-0.6,0.1v4.2H11150.7z M11150.7-10065.2v-4.3h-3.6v4.3H11150.7z
			 M11150.7-10060.1v-4.1h-3.6v4.1H11150.7z M11150.5-10050.6c0-0.1,0.2-0.2,0.4-0.1h0c2.5,0.8,4.1,2,4.8,3.4
			c0.2,0.7,0.2,1.4-0.2,2.2c-0.3,0.6-0.8,1-1.5,1.2c-1.4,0.2-2.2-0.7-2.3-2.5c0.1-1.5-0.4-2.8-1.2-3.8
			C11150.5-10050.2,11150.4-10050.4,11150.5-10050.6z M11157.8-10051.1c0-0.3,0.2-0.4,0.5-0.3c1.6,0.3,3,0.9,4.1,1.6
			c0.3,0.2,0.5,0.4,0.4,0.7c-0.1,0.3-0.4,0.5-1,0.5c-0.2,0-0.4,0.2-0.6,0.6c-2.3,4.6-4.8,7.6-7.2,8.8c-0.2,0.1-0.4,0.1-0.5,0
			c-0.1-0.1,0-0.3,0.1-0.5c1.8-2,3-4.8,3.6-8.3L11157.8-10051.1z M11161-10072.3l-5,0.3c-0.2,0-0.3-0.1-0.3-0.3
			c0-0.2,0.1-0.3,0.3-0.3c5.6-1.2,9.9-2.8,12.8-4.5l0.6-0.1c1.1,0.6,2.2,1.3,3.2,2.2c0.4,0.3,0.5,0.6,0.4,0.8
			c-0.2,0.2-0.4,0.3-0.7,0.2c-0.4-0.1-0.7-0.1-1.1,0c-2.3,0.6-4.7,1-7.2,1.3l-0.7,0.1l1.4,0.6c0.4,0.2,0.6,0.5,0.6,0.8
			c0,0.3-0.3,0.4-0.7,0.5c-0.2,0-0.4,0.2-0.5,0.4c-1,1.4-2.2,2.7-3.7,3.8c0.5,0.4,0.9,0.8,1.1,1.2c0.4,0.6,0.5,1.4,0.3,2.2
			c-0.1,0.8-0.6,1.2-1.2,1.5c-0.7,0.2-1.2,0.1-1.8-0.3c-0.4-0.4-0.8-0.9-1-1.7c-0.2-1.8-1.1-3.1-2.3-3.9c-0.1-0.1-0.2-0.2-0.2-0.4
			c0-0.2,0.2-0.2,0.4-0.2c1.3,0,2.6,0.4,3.7,1.1C11160.2-10069.1,11160.8-10070.8,11161-10072.3z M11158.2-10053.2
			c-0.2,0.4-0.4,0.6-0.6,0.6c-0.3,0-0.5-0.3-0.7-0.8l-0.9-3.4c0-0.2,0-0.4,0.4-0.4l4.1-0.1l0.2-0.3c2.7-4.3,4.4-8.2,5-11.7
			c0-0.1,0.1-0.2,0.3-0.2c1.2,0.4,2.4,0.9,3.6,1.6c0.4,0.2,0.6,0.5,0.6,0.7c0,0.2-0.3,0.3-0.7,0.4c-0.2,0-0.3,0.1-0.4,0.2
			c-1.7,3.2-4.1,6.2-7.1,9.2c3.6-0.5,6.3-1,8.3-1.5c-0.4-1.1-1-2.1-1.8-2.7c-0.1-0.1-0.2-0.2-0.1-0.4c0-0.1,0.2-0.2,0.4-0.1h0.2
			c3,1,4.9,2.6,5.6,4.8c0.3,0.7,0.2,1.4-0.1,2.2c-0.2,0.6-0.7,1.1-1.4,1.2c-0.6,0.1-1.2-0.1-1.7-0.6c-0.4-0.4-0.6-1-0.6-1.9
			l-0.3-1.6l-3.5,1.6v15.8c0,0.6-0.3,1-0.9,1.3c-0.8,0.3-1.5,0.3-2.2-0.1c-0.4-0.2-0.6-0.6-0.6-1.2v-14.5
			C11159.9-10054.1,11158.2-10053.5,11158.2-10053.2z M11168.8-10050.6c0.1-0.1,0.2-0.2,0.4-0.1l1.3,0.7c2,1.1,3.4,2.7,3.9,4.6
			c0.2,0.7,0,1.4-0.3,2.2c-0.4,0.6-0.9,1-1.6,1c-1.5,0.1-2.2-0.8-2.1-2.6c0.2-2.3-0.4-4.1-1.6-5.3
			C11168.7-10050.2,11168.7-10050.4,11168.8-10050.6z"/>
	</g>
</g>
</svg>
