<?xml version="1.0" encoding="utf-8"?>
<!-- Generator: Adobe Illustrator 22.1.0, SVG Export Plug-In . SVG Version: 6.00 Build 0)  -->
<svg version="1.1" id="圖層_1" xmlns="http://www.w3.org/2000/svg" xmlns:xlink="http://www.w3.org/1999/xlink" x="0px" y="0px"
	 viewBox="0 0 92 373" style="enable-background:new 0 0 92 373;" xml:space="preserve">
<style type="text/css">
	.st0{enable-background:new    ;}
	.st1{fill:#1EEE78;}
</style>
<g id="global_energy_transition_South_Korea_title" transform="translate(-11311 10422)">
	<g class="st0">
		<path class="st1" d="M11376.8-10394.4l-2.5,0.3c-0.2,0.1-0.3,0-0.3-0.1l-0.3-1.4c0-0.2,0.1-0.2,0.4-0.2l2.8,0.3h3.7v-4.9h-4.8
			l-2.6,0.3c-0.1,0.1-0.2,0-0.3-0.1l-0.3-1.4c0-0.2,0.1-0.2,0.4-0.2l2.8,0.3h1.9c-0.3-0.4-0.4-0.9-0.4-1.6c-0.1-2.3-0.8-4.1-2.1-5.2
			h-3.4v23c0,0.8-0.2,1.3-0.5,1.6c-0.4,0.4-1.1,0.6-1.9,0.6c-0.5,0-0.9-0.1-1.2-0.4c-0.2-0.2-0.3-0.5-0.3-0.9v-26l0.1-0.2h0.3
			c1.1,0.2,2.3,0.7,3.6,1.4h8.9v-5.5h-13.2l-2.3,0.4c-0.2,0.1-0.4,0.1-0.4-0.1l-0.4-1.4c0-0.2,0.1-0.2,0.4-0.2l2.7,0.3h13.2v-5.4
			c0-0.1,0-0.1,0.2-0.1c1.4,0,2.7,0.2,4,0.5c0.5,0.2,0.8,0.3,0.8,0.6c0,0.4-0.2,0.6-0.7,0.7c-0.3,0.1-0.4,0.2-0.4,0.5v3.2h9.4
			c0.3,0,0.5-0.1,0.6-0.3l2-2.5c0.2-0.2,0.4-0.2,0.7-0.1c1.3,0.8,2.4,1.9,3.4,3.2c0.2,0.2,0.2,0.4,0.2,0.5c-0.1,0.2-0.3,0.3-0.7,0.3
			h-15.6v5.5h7.4c0.4,0,0.7-0.1,0.9-0.3l1.2-1.4c0.2-0.2,0.4-0.2,0.7-0.1c1.6,0.7,2.8,1.4,3.4,2c0.8,0.7,0.6,1.3-0.6,1.8
			c-0.4,0.1-0.5,0.4-0.5,0.9v18.9c0,1.5-0.6,2.5-1.5,3.2c-1,0.6-2,0.9-3.1,0.8c-0.2,0-0.3,0-0.4-0.3c-0.4-1.8-1.5-2.8-3.4-3.1
			c-0.3,0-0.4-0.2-0.4-0.5c0-0.2,0.2-0.4,0.6-0.3c2.3,0,3.6-0.1,3.9-0.4c0.2-0.3,0.3-0.6,0.3-0.9v-19c0-0.3-0.2-0.4-0.4-0.3h-7.8
			l3.4,0.5c0.6,0.1,1,0.4,1,0.7c0,0.3-0.2,0.5-0.6,0.6c-0.2,0-0.5,0.2-0.7,0.6c-0.9,1.6-2.1,3.1-3.4,4.3h3c0.1,0,0.8-0.7,2-2.1
			c0.2-0.2,0.4-0.3,0.7-0.1c0.7,0.6,1.3,1.3,1.8,2.2c0.2,0.3,0.3,0.6,0.2,0.8c-0.1,0.2-0.3,0.3-0.6,0.3h-7.5v4.9h2.4
			c0.1,0,0.8-0.7,2-2.1c0.2-0.3,0.4-0.3,0.7-0.1c0.7,0.6,1.3,1.3,1.8,2.2c0.2,0.2,0.3,0.5,0.2,0.8c-0.1,0.2-0.3,0.3-0.6,0.3h-6.4v9
			c0,0.6-0.3,1-0.9,1.3c-0.7,0.3-1.5,0.3-2.2-0.1c-0.4-0.2-0.6-0.6-0.6-1.2v-9H11376.8z M11383.4-10401.4c0.8-2.3,1.3-4.4,1.4-6.4
			c0-0.2,0.1-0.4,0.2-0.4h-8.4c2.2,1.1,3.6,2.6,4.2,4.4c0.2,0.8,0.1,1.6-0.4,2.4H11383.4z"/>
	</g>
	<g class="st0">
		<path class="st1" d="M11368.8-10355.5v1c0,0.6-0.2,1-0.6,1.3c-0.5,0.3-1.1,0.5-1.7,0.5c-0.5,0-0.9-0.1-1.2-0.3
			c-0.2-0.2-0.3-0.5-0.2-1v-13.7c0-0.2,0-0.3,0.2-0.3c1.4,0.2,2.6,0.7,3.7,1.4h1.3v-5.2h-3.2l-2.5,0.3c-0.2,0.1-0.3,0-0.3-0.1
			l-0.3-1.4c0-0.2,0.1-0.2,0.4-0.2l2.8,0.3h3.2v-5.7c0-0.1,0-0.1,0.2-0.1c1.4,0,2.6,0.2,3.8,0.5c0.5,0.1,0.7,0.3,0.7,0.6
			c0,0.3-0.2,0.6-0.6,0.7c-0.3,0.1-0.4,0.2-0.4,0.5v3.6h1.1c0.3,0,0.5-0.1,0.6-0.3l1.5-2.2c0.2-0.4,0.5-0.4,0.8-0.1
			c0.8,0.6,1.5,1.4,2.1,2.5c0.2,0.3,0.3,0.5,0.2,0.8c-0.1,0.2-0.3,0.3-0.6,0.3h-5.8v5.2h0.9c0.2,0,0.3-0.1,0.4-0.2l1-1h0.4
			c1.2,0.4,2.2,1,3.2,1.7c0.7,0.5,0.6,1-0.2,1.4c-0.2,0.1-0.4,0.3-0.4,0.6v9.4c0,0.4-0.2,0.8-0.6,1c-0.4,0.2-1,0.4-1.8,0.4
			c-0.5,0-0.9-0.1-1.1-0.4c-0.2-0.3-0.3-0.6-0.2-1v-0.9h-1.6v6h0.7c0.2,0,0.4-0.1,0.6-0.3l1.5-2.2c0.2-0.4,0.5-0.4,0.8-0.1
			c0.8,0.6,1.5,1.4,2.2,2.5c0.2,0.3,0.3,0.5,0.2,0.8c-0.1,0.2-0.2,0.3-0.6,0.3h-5.4v6.9c0,0.6-0.3,1-0.9,1.3
			c-0.7,0.3-1.5,0.3-2.2-0.1c-0.4-0.2-0.6-0.6-0.6-1.2v-6.9h-3.4l-2.5,0.3c-0.2,0.1-0.3,0-0.3-0.1l-0.3-1.4c0-0.2,0.1-0.2,0.4-0.2
			l2.8,0.3h3.4v-6H11368.8z M11368.8-10361.6h6.8v-3.8c-0.1-0.2-0.2-0.2-0.4-0.1h-5.5l-0.8,0.1V-10361.6z M11368.8-10356.6h6.8v-4
			h-6.8V-10356.6z M11385-10373l-2.1,0.3c-0.3,0.1-0.5,0.1-0.6-0.1l-0.4-1.4c0-0.2,0.1-0.2,0.4-0.2l2.6,0.2h0.8l0.9-3.6
			c0-0.1,0.1-0.2,0.2-0.2c1.1,0,2.2,0,3.3,0.3c0.4,0.1,0.6,0.2,0.6,0.5c0,0.2-0.2,0.4-0.6,0.6c-0.2,0-0.3,0.2-0.4,0.5l-0.6,2h3.1
			l0.5-0.2c0.2-0.4,0.6-0.8,1-1.1c0.4-0.2,1.5,0.5,3.2,1.9l0.2,0.2c0.1,0.2-0.1,0.7-0.8,1.4v3.8h0.3c0.2,0,0.4-0.1,0.5-0.2l1.5-2
			c0.2-0.3,0.5-0.3,0.8-0.1c0.7,0.6,1.4,1.4,1.9,2.3c0.2,0.3,0.3,0.6,0.2,0.8c-0.1,0.2-0.3,0.3-0.6,0.3h-18l-2.5,0.3
			c-0.2,0.1-0.3,0-0.3-0.1l-0.3-1.4c0-0.2,0.1-0.2,0.4-0.2l2.8,0.3h0.9l1.5-4.9H11385z M11393-10347.6h2.7c0.3,0,0.5-0.1,0.6-0.3
			l1.5-2.2c0.2-0.4,0.4-0.4,0.8-0.1c0.8,0.6,1.5,1.4,2.2,2.5c0.2,0.2,0.3,0.5,0.2,0.8c-0.1,0.2-0.3,0.3-0.6,0.3h-7.4v4.8
			c0,0.6-0.3,1-0.9,1.3c-0.7,0.3-1.5,0.2-2.3-0.1c-0.4-0.2-0.6-0.6-0.6-1v-5h-4.8l-0.3,1c-0.1,0.6-0.5,0.9-1.1,1.1
			c-0.8,0.2-1.6,0.1-2.2-0.2c-0.4-0.2-0.5-0.6-0.3-1.1l1.3-5.8c0-0.2,0.1-0.3,0.3-0.2c1.1,0.2,2.2,0.5,3.4,0.9
			c0.6,0.2,0.8,0.5,0.8,0.8c-0.1,0.3-0.3,0.5-0.8,0.5c-0.2,0-0.4,0.2-0.4,0.4l-0.4,1.5h4.5v-5.4h-5.6l-2.5,0.3
			c-0.2,0.1-0.3,0-0.3-0.1l-0.3-1.4c0-0.2,0.1-0.2,0.4-0.2l2.8,0.2h5.6v-2.1v-0.4c0-0.1,0.1-0.2,0.2-0.2l3.7,0.5
			c0.7,0.2,1,0.4,1,0.8l-1.2,1.4v0h2.6c0.3,0,0.5,0,0.6-0.2l1.5-2.2c0.2-0.4,0.4-0.4,0.8-0.1c0.8,0.6,1.5,1.4,2.2,2.5
			c0.2,0.3,0.3,0.6,0.2,0.8c-0.1,0.2-0.3,0.3-0.6,0.3h-7.2V-10347.6z M11385.6-10357.5c0,0.6-0.2,1-0.6,1.3
			c-0.5,0.3-1.1,0.4-1.7,0.5c-0.5,0-0.9-0.1-1.2-0.3c-0.2-0.2-0.3-0.5-0.2-1v-8.6c0-0.2,0-0.3,0.2-0.3c1.2,0.2,2.2,0.6,3.1,1.1h8.1
			c0.2,0,0.3-0.1,0.4-0.2l1-1h0.4c1.2,0.4,2.2,1,3.2,1.7c0.7,0.5,0.6,1-0.2,1.4c-0.2,0.1-0.4,0.3-0.4,0.6v4.6c0,0.4-0.2,0.8-0.6,1
			c-0.4,0.2-1,0.4-1.8,0.4c-0.5,0-0.9-0.1-1.1-0.4c-0.2-0.3-0.3-0.6-0.2-1v-0.4h-8.3V-10357.5z M11394-10359.1v-4.4
			c-0.1-0.2-0.2-0.2-0.4,0h-7.9v4.5H11394z M11387.3-10368.1h5.6v-4.9h-4L11387.3-10368.1z"/>
	</g>
	<g class="st0">
		<path class="st1" d="M11390.8-10324.6c0.4,0,0.6-0.1,0.8-0.3l1.2-1.4c0.2-0.2,0.4-0.2,0.7-0.1c1.6,0.7,2.8,1.4,3.4,2
			c0.8,0.7,0.6,1.4-0.7,1.8c-0.3,0.2-0.5,0.5-0.4,0.9v10c0.3,0,0.4-0.1,0.6-0.3l1.6-2.2c0.2-0.3,0.5-0.4,0.8-0.2
			c0.9,0.7,1.6,1.6,2.3,2.6c0.2,0.3,0.3,0.6,0.2,0.8c0,0.2-0.2,0.3-0.6,0.3h-5v9.4c0,1.5-0.6,2.5-1.5,3.2c-1,0.6-2,0.9-3.1,0.8
			c-0.2,0-0.3,0-0.4-0.3c-0.4-1.8-1.5-2.8-3.4-3.1c-0.3,0-0.4-0.2-0.4-0.5c0-0.2,0.2-0.4,0.6-0.3c2.2,0,3.6-0.1,3.9-0.4
			c0.2-0.3,0.4-0.6,0.4-0.9v-7.8h-18.2v11.3c0,0.8-0.2,1.3-0.6,1.6c-0.4,0.4-1,0.6-1.9,0.6c-0.5,0-0.8-0.1-1.1-0.4
			c-0.2-0.2-0.3-0.5-0.3-0.9v-12.1h-2.2l-2.6,0.3c-0.2,0.1-0.3,0-0.3-0.1l-0.3-1.4c0-0.2,0.1-0.2,0.3-0.2l2.8,0.3h2.2v-14.1l0.1-0.3
			h0.3c1.1,0.3,2.3,0.8,3.6,1.4h7.1v-5.8h-12.6l-2.3,0.4c-0.2,0.1-0.4,0.1-0.4-0.1l-0.4-1.4c0-0.2,0.1-0.2,0.4-0.2l2.7,0.3h24.3
			c0.2,0,0.5-0.1,0.6-0.3l2-2.5c0.2-0.2,0.4-0.2,0.7-0.1c1.3,0.8,2.4,1.9,3.4,3.2c0.2,0.2,0.2,0.4,0.2,0.5c-0.1,0.2-0.3,0.3-0.7,0.3
			h-14.1v5.8H11390.8z M11381.1-10323.6h-7.2v5.6h7.2V-10323.6z M11381.1-10316.9h-7.2v5.2h7.2V-10316.9z M11384.9-10317.9h7.1v-5.4
			c0-0.3-0.2-0.4-0.4-0.3h-6.7V-10317.9z M11384.9-10311.7h7.1v-5.2h-7.1V-10311.7z"/>
	</g>
	<g class="st0">
		<path class="st1" d="M11381.4-10268.4h-8l-2.3,0.3c-0.2,0.1-0.4,0.1-0.4-0.1l-0.4-1.4c0-0.2,0.1-0.2,0.4-0.2l2.7,0.3h8v-10.8h-8.3
			c-2.2,4.4-4.5,7.5-6.9,9.4c-0.2,0.2-0.4,0.2-0.5,0.1c-0.1-0.2-0.1-0.3,0-0.5c3.4-4.4,5.5-10.6,6-18.2c0-0.2,0.2-0.4,0.5-0.3
			c1.4,0.1,2.8,0.4,4.4,1.1c0.4,0.2,0.6,0.4,0.5,0.7c0,0.4-0.4,0.6-1,0.6c-0.3,0-0.4,0.3-0.6,0.7l-2,5.4h7.8v-9.7
			c0-0.1,0-0.1,0.2-0.1c1.4,0,2.8,0.2,4,0.5c0.5,0.2,0.8,0.4,0.8,0.6c0,0.3-0.2,0.6-0.7,0.7c-0.3,0.1-0.4,0.2-0.4,0.5v7.5h5.6
			c0.3,0,0.5-0.1,0.6-0.3l2.1-2.6c0.2-0.2,0.5-0.3,0.8-0.1c1.4,0.9,2.6,2,3.5,3.2c0.2,0.2,0.2,0.4,0.2,0.6c-0.1,0.2-0.3,0.3-0.7,0.3
			h-12v10.8h4.4c0.3,0,0.5-0.1,0.7-0.3l2.1-2.6c0.2-0.2,0.5-0.3,0.7-0.1c1.4,0.9,2.6,2,3.5,3.2c0.2,0.2,0.2,0.4,0.2,0.6
			c-0.1,0.2-0.3,0.3-0.6,0.3h-11v11.1h8.4c0.3,0,0.5-0.1,0.7-0.4l2.1-2.6c0.2-0.2,0.4-0.3,0.7-0.1c1.4,0.8,2.6,2,3.5,3.2
			c0.2,0.2,0.2,0.4,0.2,0.6c-0.1,0.2-0.3,0.2-0.7,0.2h-32.4l-2.3,0.4c-0.2,0.1-0.4,0.1-0.4-0.1l-0.4-1.4c0-0.2,0-0.2,0.4-0.2
			l2.7,0.3h13.6V-10268.4z"/>
	</g>
	<g class="st0">
		<path class="st1" d="M11367.3-10236.5c-0.7,0.1-1,0.2-1.1,0.4c-0.1,0.4-0.3,0.5-0.5,0.5c-0.3,0-0.5-0.2-0.6-0.5
			c-0.4-0.9-0.6-2.2-0.8-3.8c0-0.2,0.1-0.3,0.4-0.3l3.6,0.3c1.2-3.1,1.8-6.1,1.8-9c0-0.2,0.1-0.2,0.3-0.2c1.3,0.2,2.6,0.5,4,1
			c0.4,0.2,0.7,0.4,0.6,0.7c0,0.2-0.2,0.4-0.6,0.5c-0.2,0-0.3,0.1-0.4,0.3c-1,2.4-2.6,4.8-4.4,6.8h8.8c-0.4-1.4-1.2-2.5-2.3-3.3
			c-0.1-0.1-0.2-0.2-0.1-0.4c0-0.1,0.2-0.2,0.3-0.2c3.3,0.6,5.5,2.1,6.6,4.3c0.3,0.7,0.4,1.5,0.1,2.3c-0.2,0.7-0.7,1.2-1.4,1.4
			c-0.7,0.2-1.3,0-1.8-0.4c-0.4-0.5-0.8-1.4-1-2.6L11367.3-10236.5z M11370.2-10213.4c0,0.8-0.2,1.3-0.6,1.6c-0.4,0.4-1,0.6-1.8,0.6
			c-0.5,0-0.9-0.1-1.2-0.4c-0.2-0.2-0.3-0.5-0.3-0.9v-22.2l0.1-0.3h0.3c1,0.3,2.1,0.7,3.2,1.3h5.4c0.4,0,0.7-0.1,0.9-0.3l1.2-1.4
			c0.2-0.2,0.4-0.2,0.7-0.1c1.6,0.7,2.8,1.4,3.4,2c0.8,0.7,0.6,1.3-0.6,1.8c-0.4,0.2-0.5,0.5-0.5,0.9v15.8c0,1.5-0.6,2.5-1.5,3.2
			c-1,0.6-2,0.9-3.1,0.8c-0.2,0-0.2-0.1-0.3-0.3c-0.1-1.6-1-2.7-2.6-3.1c-0.3-0.1-0.4-0.2-0.3-0.5c0-0.2,0.2-0.3,0.6-0.3
			c1.7,0,2.8-0.2,3-0.4c0.2-0.3,0.3-0.6,0.3-0.9v-5h-6.3V-10213.4z M11376.5-10228.2v-4.2c0-0.3-0.2-0.4-0.4-0.3h-5.2l-0.8,0.1v4.4
			H11376.5z M11376.5-10222.7v-4.4h-6.3v4.4H11376.5z M11388-10237l0.2,0.8c0.1,0.3,0.3,0.4,0.6,0.6l0.3,0.1
			c3.8,0.3,6.3,0.2,7.5-0.3c0.5-0.3,1.1-1.5,1.6-3.6c0.1-0.2,0.2-0.4,0.4-0.3c0.2,0,0.3,0.1,0.4,0.4c0,2,0.3,3.1,0.8,3.5
			c0.7,0.3,1.1,0.8,1.1,1.5c0,0.8-0.4,1.3-1.2,1.7c-0.9,0.4-1.8,0.7-3,0.8l-4.9,0.1c-2.7,0-4.6-0.2-5.6-0.7
			c-0.8-0.4-1.4-0.9-1.7-1.6c-0.2-0.7-0.4-1.3-0.4-1.9v-11.2v-1.2c0-0.2,0.1-0.3,0.4-0.3c1.1,0.1,2.3,0.2,3.6,0.5
			c0.7,0.1,1,0.4,1,0.7l-1.1,1.3v4.7c3.6-1.7,6-3.5,7.2-5.2h0.3c0.9,0.7,1.7,1.5,2.5,2.4c0.3,0.5,0.4,0.8,0.2,1
			c-0.2,0.2-0.4,0.2-0.8,0c-0.2-0.1-0.4,0-0.6,0.1c-3,1.5-5.9,2.4-8.7,2.6V-10237z M11388.4-10217l0.2,0.8c0.1,0.3,0.4,0.4,0.7,0.6
			l0.3,0.1c3.9,0.3,6.6,0.2,7.8-0.3c0.6-0.4,1.1-1.6,1.6-3.8c0.1-0.2,0.2-0.4,0.4-0.3c0.2,0,0.3,0.1,0.4,0.4c0,2,0.2,3.2,0.8,3.7
			c0.7,0.3,1,0.8,1,1.5c0,0.8-0.4,1.3-1.1,1.7c-0.9,0.4-2,0.7-3.1,0.8l-5,0.1c-2.8,0-4.7-0.2-5.7-0.7c-0.8-0.4-1.4-0.9-1.8-1.6
			c-0.2-0.7-0.3-1.3-0.3-1.9v-13.1v-1.2c0-0.2,0.1-0.3,0.3-0.3c1.2,0.1,2.3,0.2,3.6,0.5c0.7,0.1,1,0.3,1,0.7l-1.1,1.3v6
			c2.4-1.2,4.9-3.1,7.4-5.6c0.1-0.1,0.2-0.1,0.3,0c1,0.7,1.8,1.5,2.6,2.4c0.4,0.5,0.5,0.8,0.3,1.1s-0.5,0.2-0.9,0
			c-0.1-0.1-0.3,0-0.6,0.1c-3,1.5-6.1,2.5-9.1,2.8V-10217z"/>
	</g>
	<g class="st0">
		<path class="st1" d="M11364.1-10196.2c0-0.2,0.2-0.2,0.4-0.2c2.6,0.5,4.6,1.9,5.6,4c0.3,0.7,0.2,1.5-0.1,2.3
			c-0.3,0.7-0.7,1.2-1.5,1.2c-1.5,0.2-2.3-0.6-2.4-2.5c-0.1-2-0.8-3.5-1.8-4.5C11364-10195.9,11364-10196.1,11364.1-10196.2z
			 M11374.5-10195.5c0.2,0,0.2,0.2,0.2,0.5l-5,14.6c-0.2,1.5,0.1,3.2,0.9,5.1s1,3.4,0.6,4.8c-0.3,1-0.9,1.6-1.7,1.7
			c-0.8,0.2-1.4,0-1.9-0.5c-0.8-0.9-1.1-2.3-0.9-4.2c0.2-1.7,0.2-3.2-0.1-4.6c-0.3-0.7-1-1.3-2-1.7c-0.2-0.1-0.3-0.2-0.2-0.4
			c0-0.1,0.2-0.2,0.4-0.2c1.4,0,2.2-0.2,2.3-0.5l7-14.2C11374.2-10195.5,11374.4-10195.6,11374.5-10195.5z M11366.3-10205.3
			c0-0.2,0.1-0.2,0.4-0.2h0.2c3,0.5,5,1.6,5.9,3.4c0.3,0.7,0.4,1.5,0.2,2.3c-0.2,0.8-0.6,1.2-1.3,1.4c-1.6,0.4-2.5-0.3-2.7-2.1
			c-0.3-1.9-1.1-3.4-2.5-4.4C11366.3-10205,11366.3-10205.2,11366.3-10205.3z M11385.6-10184.3v0.1c0,0.6-0.2,1.1-0.6,1.4
			c-0.5,0.3-1.1,0.5-1.8,0.5c-0.5,0-0.9-0.1-1.2-0.4c-0.2-0.2-0.3-0.5-0.2-1v-14.2c0-0.2,0-0.4,0.2-0.3c1.5,0.3,2.7,0.8,3.6,1.4h2.3
			v-5.4h-8.2v6.4c0,4.8-0.3,9.1-0.8,13.2c-0.9,6.5-3.2,11.3-6.6,14.2c-0.2,0.2-0.4,0.2-0.5,0l1.2-2.8c1.9-4.9,3-13.1,3-24.5v-8.9
			c0-0.3,0.1-0.4,0.3-0.3c1.2,0.4,2.5,1,4,1.8h14.6c0.2,0,0.5-0.1,0.6-0.3l2-2.5c0.2-0.2,0.4-0.2,0.7-0.1c1.3,0.8,2.4,1.9,3.3,3.1
			c0.2,0.2,0.2,0.4,0.2,0.6c-0.1,0.2-0.3,0.2-0.6,0.2h-8.8c-0.8,2.2-1.9,4-3.2,5.4h4.7c0.6,0.1,1,0,1.1-0.3l0.9-1.3
			c0.2-0.2,0.4-0.2,0.6-0.1c1.4,0.5,2.5,1.1,3.4,1.7c0.3,0.2,0.4,0.5,0.3,0.8c0,0.3-0.3,0.5-0.8,0.6c-0.2,0.1-0.4,0.3-0.4,0.5v10.9
			c0,0.5-0.3,1-0.8,1.3c-0.6,0.2-1.2,0.4-1.6,0.4c-0.4,0-0.8-0.1-1.1-0.4c-0.3-0.2-0.4-0.6-0.4-1.1v-0.6h-2.8v11.5
			c0,1.2-0.2,2.1-0.6,2.8c-0.8,1.3-2.3,2-4.6,2c-0.3,0-0.4-0.2-0.4-0.4c0.2-1.6-0.6-2.8-2.4-3.7c-0.2-0.1-0.3-0.2-0.3-0.4
			c0-0.2,0.2-0.3,0.4-0.2l3,0.1c0.7,0,1-0.3,1-1v-10.6H11385.6z M11381.2-10180.5c0-0.1,0.1-0.2,0.2-0.2c1.3,0.2,2.5,0.6,3.7,1.1
			c0.5,0.2,0.7,0.5,0.6,0.8c0,0.3-0.3,0.4-0.8,0.5c-0.2,0-0.2,0.1-0.3,0.2c-2.3,3.9-5,6.9-8.2,8.8c-0.1,0.1-0.2,0.1-0.2,0v-0.3
			c2.4-3,4-6.4,5-10.2L11381.2-10180.5z M11395-10191v-4.6c-0.1-0.2-0.3-0.3-0.5-0.1h-8.9v4.7H11395z M11395-10185.4v-4.6h-9.4v4.6
			H11395z M11393.8-10180.5c0-0.1,0.2-0.2,0.4-0.1l1.8,0.9c3,1.6,4.9,3.7,5.5,6.3c0.3,0.8,0.2,1.5-0.1,2.4c-0.2,0.7-0.8,1.1-1.5,1.2
			c-1.5,0.2-2.3-0.6-2.4-2.5c-0.3-3.3-1.5-5.9-3.6-7.6C11393.7-10180.2,11393.7-10180.3,11393.8-10180.5z"/>
	</g>
	<g class="st0">
		<path class="st1" d="M11370.2-10141.1v1.2c0,0.7-0.2,1.1-0.6,1.4c-0.5,0.3-1.2,0.5-1.8,0.5c-0.5,0-0.9-0.1-1.2-0.4
			c-0.2-0.2-0.3-0.5-0.2-0.9v-15.6c0-0.2,0-0.4,0.2-0.3c1.6,0.4,2.9,0.9,3.9,1.5h10.3v-8.7v-0.4c0-0.1,0.1-0.2,0.2-0.2
			c1.2,0.1,2.5,0.3,3.8,0.5c0.7,0.2,1,0.4,1,0.8c0,0.4-0.3,0.6-0.9,0.8c-0.2,0-0.3,0.2-0.4,0.6v6.5h9.2c0.4,0,0.6,0,0.8-0.2l1-1.1
			c0.2-0.3,0.5-0.4,0.8-0.3c1.5,0.6,2.6,1.2,3.4,1.7c0.8,0.6,0.7,1.2-0.4,1.6c-0.2,0.1-0.3,0.2-0.3,0.4v12c0,0.5-0.2,0.9-0.7,1.2
			c-0.4,0.3-1,0.4-1.8,0.4c-0.5,0-0.9-0.1-1.2-0.4c-0.2-0.2-0.2-0.4-0.2-0.8v-2h-10.7v14.5c0,0.6-0.3,1.1-0.9,1.4
			c-0.8,0.3-1.6,0.3-2.4-0.1c-0.4-0.2-0.6-0.6-0.6-1.1v-14.6H11370.2z M11380.7-10152.6h-10.5v10.4h10.5V-10152.6z M11384.6-10142.2
			h10.7v-10.3c-0.1-0.2-0.2-0.2-0.4-0.2h-10.3V-10142.2z"/>
	</g>
	<g class="st0">
		<path class="st1" d="M11369.9-10104.8c0.1,0,0.2,0.1,0.3,0.3c0.6,2.3,0.6,4.7,0.2,7.2c-0.4,2.4-1.2,4.2-2.4,5.6
			c-0.4,0.6-1,0.9-1.7,1c-0.7,0-1.2-0.1-1.7-0.5c-0.4-0.4-0.6-1-0.5-1.7c0.1-0.8,0.4-1.3,1-1.7c1.3-1.1,2.4-2.3,3.1-3.7
			c0.7-1.4,1.2-3.4,1.4-6.1C11369.8-10104.7,11369.8-10104.8,11369.9-10104.8z M11374.7-10108.8v-1.2c0-0.2,0-0.3,0.3-0.3
			c1.2,0.1,2.3,0.2,3.6,0.5c0.7,0.1,1,0.3,1,0.7l-1.1,1.3v19.5c0,0.2,0.1,0.5,0.3,0.8c0.2,0.3,0.6,0.4,1.1,0.5l0.5,0.1
			c6.2,0.3,10.4,0.2,12.4-0.3c0.5-0.3,1.1-1.5,1.7-3.5c0.1-0.2,0.2-0.3,0.4-0.3c0.2,0,0.3,0.1,0.4,0.4c0.1,2,0.4,3.1,0.9,3.4
			c0.7,0.4,1.1,0.9,1.1,1.6c0,0.8-0.5,1.3-1.5,1.7c-1.8,0.7-5.3,1-10.6,1c-3.8,0-6.3-0.3-7.6-0.8c-1.2-0.4-1.9-0.9-2.4-1.7
			c-0.4-0.7-0.5-1.3-0.5-2L11374.7-10108.8L11374.7-10108.8z M11379.7-10119.5c0-0.1,0.2-0.2,0.4-0.2c1,0.2,2,0.4,2.8,0.9
			c2.7,1.2,4.6,2.8,5.5,4.8c0.4,0.7,0.5,1.5,0.3,2.4c-0.2,0.7-0.6,1.2-1.3,1.4l-0.8,0.1c-1.4-0.2-2-1-2-2.5c-1-3.1-2.6-5.3-4.7-6.5
			C11379.8-10119.2,11379.7-10119.3,11379.7-10119.5z M11393.4-10105.1c0.1-0.2,0.2-0.2,0.4-0.1c0.8,0.4,1.7,0.9,2.4,1.6
			c3.1,2.4,4.9,5,5.2,8c0.2,0.8,0.1,1.6-0.3,2.3c-0.4,0.6-0.9,1-1.6,1.1c-1.6,0.1-2.3-0.8-2.2-2.7c0-4.1-1.3-7.4-3.8-9.7
			C11393.4-10104.8,11393.3-10104.9,11393.4-10105.1z"/>
	</g>
	<g class="st0">
		<path class="st1" d="M11312.2-10275.4c0.1-0.1,0.2-0.1,0.4,0h0.1c2.4,1,4,2.4,4.6,4.1c0.2,0.8,0.1,1.5-0.3,2.2
			c-0.4,0.6-0.9,1-1.6,1c-1.5,0.1-2.2-0.8-2.1-2.6c0.2-1.7-0.2-3.2-1.1-4.3C11312.2-10275,11312.1-10275.2,11312.2-10275.4z
			 M11325.4-10279c0.2,0.1,0.2,0.3,0.1,0.6l-7.2,15.6c-0.2,1.2,0.1,2.6,0.8,4c0.6,1.4,0.9,2.6,0.6,3.6c-0.2,1-0.8,1.6-1.6,1.8
			c-0.7,0.2-1.4,0-1.9-0.5c-0.6-0.7-0.8-1.8-0.7-3.2c0.2-1.3,0.1-2.5-0.2-3.6c-0.3-1-1.2-1.8-2.6-2.4c-0.2-0.1-0.3-0.3-0.2-0.5
			c0-0.1,0.2-0.1,0.5-0.1l2.2,0.2c0.4,0,0.6,0,0.8-0.2l9.1-15.1C11325-10278.9,11325.2-10279,11325.4-10279z M11327.3-10286.3v2.7
			c0,0.6-0.2,1-0.8,1.2c-0.8,0.3-1.6,0.3-2.4,0c-0.5-0.2-0.7-0.6-0.7-1.2v-2.8h-7.8l-2.3,0.4c-0.2,0.1-0.4,0.1-0.4-0.1l-0.4-1.4
			c0-0.2,0.1-0.2,0.4-0.2l2.7,0.3h7.9v-3.6c0-0.2,0.1-0.2,0.3-0.2l3.5,0.6c0.6,0.1,1,0.3,1,0.7l-1,1.2v1.4h6.8v-3.6
			c0-0.2,0.1-0.2,0.3-0.2l3.5,0.6c0.7,0.1,1,0.3,1,0.7l-1,1.2v1.4h5c0.3,0,0.5-0.1,0.7-0.4l2.1-2.6c0.2-0.2,0.4-0.2,0.7-0.1
			c1.4,0.9,2.6,2,3.5,3.2c0.2,0.2,0.2,0.4,0.2,0.6c-0.1,0.2-0.3,0.3-0.6,0.3h-11.5v2.7c0,0.6-0.2,1-0.7,1.2c-0.8,0.3-1.6,0.3-2.4,0
			c-0.4-0.2-0.7-0.6-0.7-1.2v-2.8H11327.3z M11314.4-10282.6c0-0.2,0.2-0.3,0.4-0.2l1.3,0.1c2.2,0.3,3.8,1.2,4.8,2.5
			c0.4,0.7,0.5,1.5,0.3,2.4c-0.1,0.7-0.5,1.2-1.2,1.5c-1.4,0.6-2.4-0.1-2.8-2c-0.4-1.8-1.2-3.1-2.5-3.9
			C11314.5-10282.4,11314.4-10282.5,11314.4-10282.6z M11330.4-10254.7c0,0.6-0.2,1-0.6,1.3c-0.5,0.3-1.1,0.5-1.7,0.5
			c-0.5,0-0.9-0.1-1.2-0.3c-0.2-0.2-0.3-0.5-0.2-0.9v-11c-2.7,0.4-4.8,0.5-6.1,0.5c-0.3,0-0.4-0.2-0.4-0.3c0-0.2,0.1-0.2,0.4-0.2
			c1.8-0.3,3.5-0.7,5.2-1.3c2.5-0.8,5.2-2.3,8-4.3c-1.6-1.6-2.8-3.2-3.5-4.7c-2.2,2.6-4.6,4.6-7,5.6c-0.2,0-0.3,0-0.3-0.1l0.1-0.4
			c3.4-3.3,5.6-7.4,6.6-12.2c0-0.2,0.2-0.3,0.4-0.3c1.3,0.2,2.6,0.6,3.8,1.1c0.6,0.2,0.8,0.5,0.7,0.8c0,0.3-0.3,0.4-0.8,0.4
			c-0.2,0-0.3,0.1-0.4,0.4l-0.6,1.1h6.3c0.3,0,0.5,0,0.7-0.3l1.2-1.2c0.2-0.2,0.4-0.1,0.8,0.1c1.2,0.8,2.1,1.5,2.8,2.4
			c0.2,0.3,0.2,0.6,0.2,0.8c-0.1,0.3-0.4,0.4-1.1,0.5c-0.3,0-0.5,0.2-0.6,0.5c-1.3,2.2-2.7,4-4.2,5.4c2.8,0.8,6.5,1.2,10.8,0.8
			c0.3,0,0.5,0,0.6,0.2s0,0.3-0.3,0.4c-0.8,0.4-1.4,0.9-2,1.7c-0.4,0.5-0.6,1.2-0.6,1.9c0,0.2-0.2,0.4-0.5,0.4
			c-3.8-0.2-7.2-1.5-10.5-3.5c-2.5,1.6-5.2,2.8-8.2,3.4c1.2,0.4,2.2,0.8,2.8,1.2h8.5c0.2,0,0.3-0.1,0.4-0.2l1-1l0.4,0
			c1.2,0.4,2.3,1,3.4,1.8c0.7,0.6,0.6,1-0.3,1.4c-0.2,0.1-0.4,0.3-0.4,0.6v7.1c0,0.5-0.2,0.8-0.6,1c-0.4,0.2-1,0.4-1.9,0.4
			c-0.5,0-0.9-0.2-1.1-0.4c-0.2-0.2-0.3-0.6-0.3-1.1v-0.8h-9.3V-10254.7z M11339.7-10256.4v-6.6c-0.1-0.2-0.2-0.3-0.4-0.1h-8.9v6.7
			H11339.7z M11335.2-10272.2c1.5-1.6,2.8-3.4,3.9-5.5v-0.2h-6.4l-1,0.1l-1,1.4c0.5,0.9,1.1,1.6,1.8,2.3
			C11333.2-10273.5,11334.2-10272.8,11335.2-10272.2z"/>
	</g>
	<g class="st0">
		<path class="st1" d="M11341.5-10212.2c0,0.7-0.2,1.2-0.5,1.4c-0.4,0.3-1,0.5-1.7,0.5c-0.4,0-0.8-0.1-1.1-0.4
			c-0.2-0.2-0.3-0.4-0.3-0.9v-16.4c-0.3,0.3-0.6,0.5-1,0.6c-1.4,0.2-2.1-0.5-2.2-2.1c-0.3-2.6-1.2-4.6-2.6-6.1
			c-2.2,4.6-4.9,8-8.1,10.1h-0.1v10.9c0,1.4-0.5,2.4-1.4,3c-1,0.6-2,0.9-3,0.8c-0.2,0-0.2-0.1-0.2-0.2c-0.1-1.6-1-2.7-2.6-3.1
			c-0.2-0.1-0.4-0.2-0.3-0.4c0-0.2,0.2-0.3,0.6-0.3c1.8,0,2.9-0.1,3.2-0.4c0.2-0.2,0.3-0.5,0.3-0.8v-9.8h-3.2
			c-0.4,6.1-2,11-4.9,14.8l-0.4,0.1l-0.1-0.3c1.3-4.6,2-12,2.1-22.5v-14c0-0.2,0-0.4,0.2-0.3c1.1,0.4,2.2,1,3.6,1.8h1.4
			c0.4,0,0.6,0,0.8-0.2l1.1-1.2c0.2-0.2,0.4-0.2,0.6-0.1c1.4,0.6,2.4,1.2,3,1.8c0.6,0.6,0.4,1.2-0.6,1.6c-0.2,0.1-0.4,0.4-0.4,0.8
			v17.5l0.2-0.3c2.8-4.4,4.7-8.4,5.4-12.3c0-0.2,0.2-0.2,0.4-0.2c1,0.3,2,0.6,3,1.1c0.4,0.2,0.7,0.4,0.6,0.7c0,0.3-0.3,0.5-0.7,0.5
			l-0.3,0.2h0.1c2.4,1.2,4.2,2.9,5.2,5v-7.6c-0.2,0.5-0.6,0.8-1.2,0.9c-0.6,0.1-1-0.1-1.4-0.5c-0.4-0.4-0.5-0.8-0.5-1.5
			c-0.2-2.6-1-4.4-2.6-5.7l-0.1-0.3c0-0.1,0.2-0.2,0.3-0.1l0.5,0.2c2.5,1,4.1,2.5,4.9,4.6v-5.4v-0.2h0.3c0.9,0.2,1.8,0.6,2.9,1.1
			h2.2c0.4,0,0.7,0,0.9-0.2l1.2-1.4c0.2-0.2,0.4-0.2,0.6-0.1c1.6,0.7,2.7,1.4,3.3,2c0.7,0.6,0.5,1.3-0.6,1.7
			c-0.3,0.2-0.5,0.4-0.5,0.9v22.4c0,1.4-0.5,2.5-1.5,3.2c-1,0.6-2,0.9-3,0.9c-0.2,0-0.3-0.1-0.2-0.4c0-0.5-0.1-1.1-0.4-1.8
			c-0.4-0.6-0.9-1.1-1.6-1.5V-10212.2z M11320.6-10226.6v-8.6h-3v1.7l-0.2,6.9H11320.6z M11320.6-10236.2v-8.6
			c-0.1-0.2-0.2-0.3-0.4-0.2h-1.6l-1,0.1v8.7H11320.6z M11327.7-10246.2c0-0.2,0.2-0.2,0.4-0.2c1,0.2,2,0.5,3,0.8
			c0.4,0.2,0.6,0.4,0.6,0.7c0,0.3-0.2,0.4-0.6,0.6c-0.2,0-0.3,0.2-0.4,0.4c-1.5,3.5-3.5,6.1-5.8,7.6c-0.1,0.1-0.2,0.1-0.3,0
			c-0.1-0.1-0.1-0.2,0-0.3c1.5-2.4,2.6-5.4,3.2-9L11327.7-10246.2z M11329.6-10213.2c0,0.5-0.2,0.9-0.5,1.1c-0.4,0.3-1,0.4-1.5,0.4
			c-0.4,0-0.8-0.1-1-0.3c-0.2-0.1-0.2-0.4-0.2-0.8v-13.8c0-0.2,0-0.3,0.1-0.2c1.1,0.2,2.2,0.6,3.2,1.2h2.4l0.4-0.2l0.9-0.7h0.3
			c0.9,0.3,1.8,0.8,2.7,1.4l0.3,0.3c0,0.2-0.3,0.6-0.8,1.3v9.8c0,0.4-0.2,0.7-0.5,0.9c-0.4,0.2-0.9,0.3-1.5,0.4
			c-0.4,0-0.7-0.1-0.9-0.4c-0.2-0.2-0.2-0.5-0.2-0.9v-0.9h-3.1V-10213.2z M11332.7-10215.6v-8.9c-0.1-0.1-0.3-0.1-0.4,0h-2.1
			l-0.6,0.1v8.8H11332.7z M11341.5-10244.6v23.6c1.6,0.2,2.5,0.2,2.8,0c0.2-0.3,0.3-0.6,0.3-0.9v-22.5c0-0.2-0.2-0.3-0.4-0.3h-2
			L11341.5-10244.6z"/>
	</g>
	<g class="st0">
		<path class="st1" d="M11335.6-10189.8c-0.1,3.2-0.4,6.1-0.8,8.9c-0.9,6.3-3.2,10.8-6.6,13.6c-0.2,0.2-0.4,0.2-0.5,0
			c-0.1-0.2,0.1-0.8,0.8-2c2-4.2,3.1-11.1,3.3-20.4l-0.6,0.2h-16.4l-2.3,0.3c-0.2,0.1-0.4,0.1-0.4-0.1l-0.4-1.4
			c0-0.2,0.1-0.2,0.4-0.2l2.7,0.3h7.6c0.9-2.3,1.5-4.5,1.8-6.6c0-0.3,0.1-0.4,0.3-0.4l3.4,0.6c0.6,0.1,1,0.4,1,0.8
			c0,0.2-0.2,0.4-0.7,0.6c-0.2,0-0.5,0.2-0.7,0.6c-1.1,1.7-2.3,3.2-3.7,4.4h2.2c0.2,0,0.4-0.1,0.6-0.3l1.8-2.2
			c0.2-0.2,0.4-0.2,0.6,0c1.1,0.7,2.1,1.6,2.8,2.7l0.1,0.1v-3.2v-8.5c0-0.3,0.1-0.4,0.3-0.3c1,0.4,2.1,0.8,3.3,1.4
			c4.5-1.2,7.8-2.5,9.7-3.7c0.2-0.1,0.4-0.2,0.5-0.1c1.1,0.6,2.2,1.3,3.2,2.1c0.4,0.3,0.5,0.6,0.4,0.9c-0.2,0.2-0.4,0.3-0.8,0.3h-1
			c-2.8,0.6-6.8,1.2-11.9,1.6v0.5v5.8v2.6h7c0.2,0,0.5-0.1,0.6-0.3l2-2.5c0.2-0.2,0.4-0.2,0.7-0.1c1.3,0.8,2.4,1.9,3.3,3.1
			c0.2,0.2,0.2,0.4,0.2,0.6c-0.1,0.2-0.3,0.3-0.6,0.3h-4.5v21.1c0,0.6-0.3,1-0.9,1.3c-0.8,0.3-1.5,0.3-2.2-0.1
			c-0.4-0.2-0.6-0.6-0.6-1.2v-21.1H11335.6z M11323.1-10168.8c0,0.6-0.3,1-0.8,1.3c-0.8,0.3-1.5,0.2-2.3-0.1c-0.4-0.2-0.6-0.6-0.6-1
			v-8.3c-2,3.6-4.4,6.1-6.9,7.4c-0.3,0.1-0.4,0-0.6-0.1c0-0.2,0-0.3,0.2-0.5c2.6-2.6,4.6-6.8,6-12.3h-2.4l-2.3,0.4
			c-0.2,0.1-0.4,0.1-0.4-0.1l-0.4-1.4c0-0.2,0-0.2,0.4-0.2l2.7,0.3h3.7v-4.2v-0.4c0-0.1,0.1-0.2,0.2-0.2l3.7,0.5
			c0.7,0.2,1,0.4,1,0.8l-1.2,1.3v2.1h1.6c0.3,0,0.5-0.1,0.6-0.3l1.8-2.1c0.2-0.2,0.4-0.2,0.6,0c1.1,0.7,2,1.6,2.7,2.6
			c0.2,0.2,0.2,0.4,0.2,0.5c-0.1,0.2-0.3,0.3-0.7,0.3h-6.7v1.8h0.2c2.6,0.5,4.5,1.8,5.7,3.8c0.4,0.6,0.4,1.3,0.2,2.1
			c-0.1,0.6-0.5,1.1-1.1,1.3c-0.6,0.2-1.1,0.1-1.6-0.3c-0.4-0.3-0.6-0.8-0.8-1.6c-0.4-1.7-1.3-3.2-2.6-4.4V-10168.8z
			 M11319.3-10205.3c0-0.1,0-0.1,0.2-0.1c1.4,0,2.7,0.2,3.8,0.5c0.5,0.1,0.8,0.3,0.8,0.6c0,0.3-0.2,0.6-0.6,0.7
			c-0.3,0.1-0.4,0.2-0.4,0.5v3.6h1.4c0.3,0,0.5-0.1,0.6-0.3l1.8-2.2c0.2-0.2,0.4-0.2,0.6,0c1.1,0.8,2.1,1.6,2.8,2.7
			c0.2,0.2,0.2,0.4,0.2,0.6c-0.1,0.2-0.3,0.3-0.7,0.3h-14.1l-2.3,0.4c-0.2,0.1-0.4,0.1-0.4-0.1l-0.4-1.4c0-0.2,0-0.2,0.4-0.2
			l2.7,0.3h3.6V-10205.3z M11315.3-10197.8c0.1-0.1,0.2-0.1,0.4-0.1c2.2,0.5,3.7,1.8,4.5,3.7c0.2,0.7,0.1,1.4-0.3,2
			c-0.3,0.6-0.7,1-1.4,1c-1.4,0.1-2-0.7-2-2.3c0.1-1.6-0.3-2.9-1.1-3.9C11315.3-10197.5,11315.2-10197.7,11315.3-10197.8z"/>
	</g>
	<g class="st0">
		<path class="st1" d="M11326.9-10156.7v2.4c0,0.6-0.2,1-0.8,1.2c-0.7,0.3-1.5,0.3-2.3,0c-0.4-0.2-0.7-0.6-0.7-1v-2.5h-7.2l-2.3,0.3
			c-0.2,0.1-0.4,0.1-0.4-0.1l-0.4-1.4c0-0.2,0.1-0.2,0.4-0.2l2.7,0.3h7.2v-4c0-0.1,0.1-0.2,0.2-0.2l3.4,0.5c0.7,0.1,1,0.4,1,0.7
			l-0.9,1.2v1.9h7v-3.9c0-0.1,0.1-0.2,0.2-0.2l3.4,0.5c0.6,0.1,1,0.4,1,0.7l-0.9,1.2v1.7h4.6c0.3,0,0.5-0.1,0.6-0.3l1.9-2.3
			c0.2-0.2,0.4-0.2,0.7,0c1.2,0.7,2.2,1.7,3,2.8c0.2,0.2,0.2,0.4,0.2,0.6c-0.1,0.2-0.3,0.3-0.7,0.3h-10.2v2.4c0,0.6-0.2,1-0.8,1.2
			c-0.7,0.3-1.5,0.3-2.3,0c-0.4-0.2-0.6-0.6-0.6-1v-2.5H11326.9z M11324.2-10129.9c-0.6,0.1-1,0.3-1,0.5c-0.1,0.3-0.3,0.5-0.5,0.5
			c-0.2,0-0.4-0.2-0.6-0.5c-0.6-1.3-1-2.5-1.1-3.5c0-0.2,0.1-0.3,0.4-0.3c1.3,0,3.6,0,6.9-0.2h0.2v-3.9h-9.4v10.6
			c0,0.6-0.2,1-0.6,1.3c-0.5,0.3-1.1,0.5-1.7,0.5c-0.5,0-0.9-0.1-1.2-0.3c-0.2-0.2-0.3-0.5-0.2-1v-13.6c0-0.2,0-0.3,0.2-0.2
			c1.6,0.2,2.9,0.8,4,1.6h8.9v-3.5h-6.3v0c0,0.6-0.2,1-0.6,1.3c-0.5,0.3-1.1,0.5-1.7,0.5c-0.5,0-0.9-0.1-1.2-0.3
			c-0.2-0.2-0.3-0.5-0.2-1v-11.7c0-0.2,0-0.3,0.2-0.2c1.2,0.2,2.4,0.6,3.5,1.2h15.8c0.2,0,0.3-0.1,0.4-0.2l0.9-1h0.4
			c1.2,0.4,2.2,1,3.2,1.7c0.7,0.5,0.6,1-0.3,1.4c-0.2,0.1-0.3,0.2-0.3,0.6v8.2c0,0.4-0.2,0.8-0.6,1c-0.4,0.2-1,0.4-1.8,0.4
			c-0.5,0-0.9-0.1-1.1-0.4c-0.2-0.3-0.3-0.6-0.2-1.1v-0.5h-6.4v3.5h8.7c0.4,0,0.6-0.1,0.8-0.3l1.2-1.4c0.2-0.2,0.4-0.2,0.7-0.1
			c1.5,0.7,2.6,1.4,3.3,2c0.7,0.6,0.5,1.2-0.7,1.7c-0.3,0.2-0.4,0.4-0.4,0.9v7.3c0,1.4-0.5,2.5-1.5,3.2c-1,0.6-2,0.9-3.1,0.8
			c-0.2,0-0.2-0.1-0.3-0.3c0-0.5-0.3-1.1-0.8-1.8c-0.6-0.7-1.3-1.1-2.2-1.3c-0.3-0.1-0.4-0.2-0.3-0.5c0-0.2,0.2-0.4,0.6-0.3
			c2,0.1,3.2,0,3.5-0.3c0.2-0.3,0.4-0.6,0.4-0.9v-7.4c0-0.2-0.2-0.3-0.4-0.3h-9.5v3.8l4.6-0.5c-0.4-0.8-1-1.4-1.7-2
			c-0.1-0.1-0.2-0.2-0.1-0.4c0-0.1,0.2-0.2,0.4-0.1c2.8,0.7,4.7,2,5.6,3.9c0.2,0.6,0.3,1.2,0.1,2c-0.2,0.6-0.6,1-1.2,1.2
			s-1.1,0-1.5-0.3c-0.4-0.4-0.6-0.9-0.7-1.6l-0.4-1.6C11332.4-10131.8,11328-10130.7,11324.2-10129.9z M11328.5-10150.8h-6.3v3.4
			h6.3V-10150.8z M11328.5-10146.4h-6.3v3.5h6.3V-10146.4z M11332.2-10147.4h6.4v-3.4c-0.1-0.2-0.2-0.2-0.4-0.1h-6V-10147.4z
			 M11332.2-10142.9h6.4v-3.5h-6.4V-10142.9z"/>
	</g>
	<g class="st0">
		<path class="st1" d="M11312.5-10100.5c-0.2,0-0.4,0-0.4-0.2c0-0.2,0-0.3,0.2-0.4c2.9-1.6,5.8-3.7,8.7-6.4
			c4.4-4.4,6.9-8.2,7.6-11.2c0-0.2,0.1-0.2,0.3-0.2c1.4,0.3,2.7,0.8,4,1.4c0.5,0.3,0.7,0.6,0.6,0.8s-0.3,0.4-0.8,0.5
			c0.8,1.2,1.8,2.6,3,3.7c3.9,3.9,8.5,6.2,13.5,6.8c0.2,0,0.4,0,0.4,0.2c0,0.2-0.1,0.3-0.3,0.4c-0.7,0.3-1.4,0.8-2,1.6
			c-0.5,0.8-0.8,1.4-0.8,2c0,0.3-0.3,0.3-0.6,0.2l-1-0.3c-5.8-2-10.2-6.8-12.8-14C11327.4-10108.4,11320.8-10103.4,11312.5-10100.5z
			 M11328.4-10095.9h-10.6l-2.3,0.4c-0.2,0.1-0.4,0.1-0.4-0.1l-0.4-1.4c0-0.2,0.1-0.2,0.4-0.2l2.7,0.3h10.6v-6.6h-3l-2.3,0.3
			c-0.2,0.1-0.4,0.1-0.4-0.1l-0.4-1.4c0-0.2,0.1-0.2,0.4-0.2l2.7,0.3h6.6c0.3,0,0.5-0.1,0.6-0.3l1.9-2.4c0.2-0.2,0.4-0.2,0.7,0
			c1.3,0.8,2.4,1.8,3.2,3c0.2,0.2,0.2,0.4,0.2,0.6c-0.1,0.2-0.3,0.3-0.7,0.3h-5.6v6.6h7.1c0.3,0,0.5-0.1,0.7-0.4l2.1-2.6
			c0.2-0.2,0.5-0.3,0.7-0.1c1.4,0.9,2.6,2,3.5,3.2c0.2,0.2,0.2,0.4,0.2,0.6c-0.1,0.2-0.3,0.3-0.6,0.3h-13.6v12.7h9.5
			c0.3,0,0.6-0.1,0.7-0.3l2.1-2.7c0.2-0.2,0.5-0.3,0.8-0.1c1.4,0.9,2.7,2,3.7,3.4c0.2,0.2,0.2,0.4,0.2,0.6c-0.1,0.2-0.3,0.3-0.7,0.3
			h-32.8l-2.3,0.3c-0.2,0.1-0.4,0.1-0.4-0.1l-0.4-1.4c0-0.2,0-0.2,0.4-0.1l2.7,0.2h12.7V-10095.9z M11318.6-10094.1
			c0.1-0.2,0.2-0.2,0.4-0.1h0.1c3.2,1.6,5.2,3.8,5.6,6.5c0.2,0.8,0,1.6-0.4,2.3c-0.4,0.6-1,1-1.7,1h-0.2c-1.4-0.1-2-1-1.9-2.8
			c0.2-2.8-0.5-4.9-2-6.5C11318.5-10093.8,11318.5-10093.9,11318.6-10094.1z M11338.6-10094c0-0.2,0.1-0.2,0.3-0.2
			c1.4,0.4,2.7,0.8,4,1.5c0.5,0.2,0.7,0.5,0.6,0.8c0,0.2-0.3,0.3-0.7,0.4c-0.2,0-0.3,0.1-0.4,0.3c-1.7,3.2-3.9,5.6-6.4,7.3
			c-0.2,0.1-0.3,0.1-0.4,0c-0.1-0.1-0.1-0.2,0-0.4c1.6-2.9,2.5-5.9,2.8-8.9L11338.6-10094z"/>
	</g>
</g>
</svg>
