<?xml version="1.0" encoding="utf-8"?>
<!-- Generator: Adobe Illustrator 22.1.0, SVG Export Plug-In . SVG Version: 6.00 Build 0)  -->
<svg version="1.1" id="圖層_1" xmlns="http://www.w3.org/2000/svg" xmlns:xlink="http://www.w3.org/1999/xlink" x="0px" y="0px"
	 viewBox="0 0 75 410" style="enable-background:new 0 0 75 410;" xml:space="preserve">
<style type="text/css">
	.st0{enable-background:new    ;}
	.st1{fill:#1EEE78;}
</style>
<g id="Group_1651" transform="translate(-604 -195)">
	<g class="st0">
		<path class="st1" d="M661.4,203c-0.3,0.3-0.6,0.4-0.9,0.4c-0.3,0-0.6-0.1-0.8-0.4c-0.2-0.2-0.2-0.5-0.2-0.9s0.3-0.6,0.6-0.8
			c0.4-0.2,0.6-0.5,0.9-0.9c0.2-0.3,0.4-0.9,0.5-1.5l0.1-0.1c0.1,0,0.1,0,0.1,0.1l0.3,1.2h6v-4.2c0,0,0-0.1,0.1-0.1
			c0.7,0,1.4,0.1,2,0.3c0.3,0.1,0.4,0.2,0.4,0.3c0,0.2-0.1,0.3-0.3,0.4c-0.1,0-0.2,0.1-0.2,0.2v3.1h2.1c0.4-1.2,0.7-2.3,0.8-3.3
			c0-0.1,0-0.2,0.1-0.2c0.6,0.1,1.2,0.2,1.8,0.3c0.3,0.1,0.5,0.2,0.5,0.4c0,0.2-0.1,0.3-0.4,0.3c-0.1,0-0.2,0.1-0.4,0.3
			c-0.5,0.8-1.1,1.6-1.8,2.2h2.3l0.3-0.2l0.7-0.5c0.1-0.1,0.2-0.1,0.3,0c0.7,0.3,1.3,0.7,1.8,1.1c0.1,0.1,0.2,0.3,0.1,0.4
			c-0.1,0.1-0.2,0.2-0.4,0.2l-0.3,0.1c-0.9,0.7-1.8,1.4-2.6,1.8c-0.1,0.1-0.2,0.1-0.3,0c0-0.1,0-0.1,0-0.3c0.3-0.7,0.6-1.5,0.8-2.2
			h-12.7l-0.7,0.1C662,201.7,661.8,202.5,661.4,203z M664.3,213.9c0,0.3-0.1,0.6-0.3,0.7c-0.3,0.2-0.6,0.2-0.9,0.3
			c-0.3,0-0.5-0.1-0.6-0.2c-0.1-0.1-0.1-0.2-0.1-0.5v-7c0-0.1,0-0.2,0.1-0.1c0.8,0.1,1.4,0.4,1.8,0.7h8.5c0.2,0,0.3,0,0.4-0.1
			l0.5-0.6c0.1-0.2,0.3-0.2,0.4-0.2c0.8,0.3,1.3,0.6,1.7,0.9c0.4,0.3,0.4,0.6-0.2,0.8c-0.1,0-0.2,0.1-0.2,0.2v5.3
			c0,0.3-0.1,0.5-0.4,0.6c-0.2,0.1-0.5,0.2-0.9,0.2c-0.2,0-0.4-0.1-0.6-0.2c-0.1-0.1-0.1-0.2-0.1-0.4v-0.5h-9.2V213.9z M663.3,196.5
			c0-0.1,0.1-0.1,0.2-0.1c1.2,0,2.1,0.4,2.6,1.3c0.2,0.3,0.2,0.7,0.1,1.1c-0.1,0.4-0.3,0.6-0.6,0.7c-0.8,0.2-1.2-0.1-1.3-1
			c-0.1-0.7-0.4-1.3-0.9-1.8C663.3,196.6,663.3,196.6,663.3,196.5z M666.1,206c0,0.3-0.1,0.5-0.3,0.7c-0.2,0.2-0.6,0.2-0.9,0.3
			c-0.2,0-0.4-0.1-0.6-0.2c-0.1-0.1-0.1-0.2-0.1-0.5v-4.4c0-0.1,0-0.2,0.1-0.2c0.7,0.2,1.4,0.4,1.8,0.7h5.2c0.1,0,0.2,0,0.2-0.1
			l0.5-0.5l0.2,0c0.6,0.2,1.2,0.5,1.7,0.9c0.4,0.3,0.3,0.5-0.2,0.7c-0.1,0.1-0.2,0.2-0.2,0.3v2.5c0,0.2-0.1,0.4-0.3,0.5
			c-0.2,0.1-0.5,0.2-0.9,0.2c-0.3,0-0.5-0.1-0.6-0.2c-0.1-0.1-0.1-0.3-0.1-0.5v-0.2L666.1,206L666.1,206z M668,208.3h-3.8v2.2h3.8
			V208.3z M668,213.3v-2.2h-3.8v2.2H668z M671.6,205.4v-2.5c-0.1-0.1-0.1-0.1-0.2,0h-5.3v2.5H671.6z M670,210.5h3.5v-2.2
			c-0.1-0.1-0.1-0.1-0.2-0.1H670V210.5z M673.5,213.3v-2.2H670v2.2H673.5z"/>
	</g>
	<g class="st0">
		<path class="st1" d="M669.4,234.2c-1.8,3.4-4.9,5.8-9.3,6.9c-0.1,0-0.2,0-0.2-0.1c0-0.1,0.1-0.3,0.5-0.4c4-2.3,6.4-4.7,7.3-7.2
			h-3.7l-1.1,0.2c-0.2,0.1-0.2,0.1-0.3,0l-0.2-0.7c0-0.1,0.1-0.1,0.2-0.1l1.3,0.1h3.5l0.2-0.1c0.1-0.2,0.3-0.3,0.6-0.5
			c0.1,0,0.1,0,0.2,0c0.4,0.3,0.8,0.6,1.2,1c0.2,0.2,0.3,0.3,0.2,0.5l-0.2,0.2c0.4,0.6,0.9,1.2,1.4,1.7c2,2,4.3,3.1,6.6,3.3
			c0.1,0,0.2,0,0.2,0.1c0,0.1,0,0.2-0.2,0.2c-0.4,0.2-0.7,0.4-1,0.8c-0.3,0.4-0.4,0.7-0.4,1c0,0.1-0.1,0.1-0.3,0.1l-0.2,0
			c-3-1-5.3-3.3-6.6-7L669.4,234.2z M667.6,245h-3.4l-1.1,0.2c-0.1,0.1-0.2,0-0.2-0.1l-0.2-0.7c0-0.1,0-0.1,0.2-0.1l1.3,0.1h3.4
			v-3.8h-2.5l-1.2,0.2c-0.1,0.1-0.2,0-0.2-0.1l-0.2-0.7c0-0.1,0-0.1,0.2-0.1l1.3,0.1h4.8c0.1,0,0.3-0.1,0.3-0.2l1-1.2
			c0.1-0.1,0.2-0.1,0.3,0c0.7,0.4,1.2,0.9,1.7,1.6c0.1,0.1,0.1,0.2,0.1,0.3c-0.1,0.1-0.2,0.1-0.3,0.1h-3.5v3.8h1.6
			c0.1,0,0.3-0.1,0.3-0.2l1-1.3c0.1-0.1,0.2-0.1,0.4,0c0.7,0.4,1.3,1,1.8,1.6c0.1,0.1,0.1,0.2,0.1,0.3c-0.1,0.1-0.2,0.1-0.3,0.1
			h-4.8v4.5h3.8c0.1,0,0.3-0.1,0.3-0.2l1-1.3c0.1-0.1,0.2-0.1,0.4,0c0.7,0.4,1.3,1,1.8,1.6c0.1,0.1,0.1,0.2,0.1,0.3
			c-0.1,0.1-0.2,0.1-0.3,0.1h-14.2l-1.1,0.2c-0.1,0.1-0.2,0-0.2-0.1l-0.2-0.7c0-0.1,0-0.1,0.2-0.1l1.3,0.1h5.3V245z"/>
	</g>
	<g class="st0">
		<path class="st1" d="M664.6,286c0,0.3-0.2,0.6-0.5,0.7c-0.4,0.2-0.8,0.1-1.2-0.1c-0.2-0.1-0.3-0.3-0.3-0.5v-11.5h-1.4l-1.2,0.2
			c-0.1,0.1-0.2,0-0.2-0.1l-0.2-0.7c0-0.1,0-0.1,0.2-0.1l1.4,0.1h1.4v-5.5v-0.2c0-0.1,0-0.1,0.1-0.1c0.6,0.1,1.2,0.1,1.9,0.3
			c0.3,0.1,0.5,0.2,0.5,0.4c0,0.2-0.1,0.3-0.4,0.4c-0.1,0-0.2,0.1-0.2,0.3v4.4h2.7v-5.7v-0.2c0-0.1,0-0.1,0.1-0.1
			c0.6,0.1,1.3,0.1,1.9,0.3c0.3,0.1,0.5,0.2,0.5,0.4c0,0.2-0.1,0.3-0.4,0.4c-0.1,0-0.2,0.1-0.2,0.3v4.7h2.8v-5.6v-0.2
			c0-0.1,0-0.1,0.1-0.1c0.6,0,1.2,0.1,1.9,0.3c0.3,0.1,0.5,0.2,0.5,0.4c0,0.2-0.1,0.3-0.4,0.4c-0.1,0-0.2,0.1-0.2,0.3v4.5h0.7
			c0.1,0,0.2,0,0.3-0.1l1-1.3c0.1-0.1,0.2-0.1,0.4,0c0.7,0.4,1.2,0.9,1.7,1.6c0.1,0.1,0.1,0.2,0.1,0.3c0,0.1-0.1,0.1-0.3,0.1H674
			v6.4c0,0.3-0.2,0.6-0.5,0.7c-0.4,0.2-0.8,0.1-1.2-0.1c-0.2-0.1-0.3-0.3-0.3-0.5v-0.3h-2.8v0.3c0,0.3-0.2,0.5-0.4,0.7
			c-0.4,0.2-0.8,0.1-1.2-0.1c-0.2-0.1-0.3-0.3-0.3-0.5v-6.5h-2.7v10.1h9.4c0.1,0,0.3-0.1,0.3-0.2l1-1.3c0.1-0.1,0.2-0.1,0.4,0
			c0.7,0.4,1.3,1,1.8,1.6c0.1,0.1,0.1,0.2,0.1,0.3c-0.1,0.1-0.2,0.1-0.3,0.1h-12.7V286z M672.1,280.3v-5.6h-2.8v5.6H672.1z"/>
	</g>
	<g class="st0">
		<path class="st1" d="M669.5,310.9L669.5,310.9c-0.8,1.3-1.8,2.4-3.1,3.4l0.6,0.1c0.3,0.1,0.4,0.2,0.4,0.3c0,0.1-0.1,0.3-0.4,0.3
			c-0.1,0-0.2,0.1-0.1,0.2c0,2.4-0.4,4.2-1.2,5.3c-1.1,1.3-2.8,2.1-5,2.3c-0.1,0-0.1,0-0.2-0.1c0-0.1,0-0.1,0.1-0.2
			c0.7-0.2,1.3-0.5,1.9-0.9c0.6-0.4,1.2-1,1.5-1.6c0.4-0.6,0.6-1.4,0.7-2.2l0.1-2.6c-1.6,0.9-3.1,1.5-4.6,1.7c-0.1,0-0.2,0-0.2-0.1
			s0-0.2,0.1-0.2c1.3-0.5,2.7-1.3,4.1-2.4c1.4-1.1,2.3-2.2,2.9-3.4h-3v0.5c0,0.3-0.1,0.5-0.3,0.7c-0.3,0.2-0.6,0.2-0.9,0.3
			c-0.3,0-0.5-0.1-0.6-0.2c-0.1-0.1-0.1-0.2-0.1-0.5v-7.3c0-0.1,0-0.2,0.1-0.2c0.8,0.2,1.5,0.5,2,0.8h8.3c0.2,0,0.3,0,0.4-0.1
			l0.5-0.6c0.1-0.1,0.3-0.2,0.4-0.1c0.7,0.3,1.3,0.6,1.7,0.9c0.4,0.3,0.4,0.6-0.2,0.8c-0.1,0-0.2,0.1-0.2,0.2v5.1
			c0,0.3-0.1,0.5-0.4,0.6c-0.2,0.1-0.5,0.2-0.9,0.2c-0.2,0-0.4-0.1-0.6-0.2c-0.1-0.1-0.1-0.2-0.1-0.4v-0.5H670
			c0.5,0.7,1.1,1.3,1.8,1.8c2,1.4,4.1,2.2,6.2,2.2c0.1,0,0.2,0,0.2,0.1c0,0.1,0,0.2-0.1,0.2c-0.4,0.2-0.7,0.5-0.9,0.9
			c-0.2,0.4-0.3,0.8-0.3,1c0,0.1-0.1,0.2-0.3,0.1c-1.1-0.2-2.3-0.8-3.6-1.7c-0.1,0-0.2,0.1-0.2,0.3v6.4c0,0.3-0.2,0.5-0.4,0.7
			c-0.4,0.2-0.8,0.1-1.2-0.1c-0.2-0.1-0.3-0.3-0.3-0.5v-7.6v-0.2c0-0.1,0-0.1,0.1-0.1l0.9,0.1C670.9,313.4,670.1,312.2,669.5,310.9z
			 M667.9,305.6h-3.6v2.2h3.6V305.6z M667.9,310.4v-2.1h-3.6v2.1H667.9z M669.8,307.8h3.6v-2.1c-0.1-0.1-0.1-0.1-0.2-0.1h-3.4V307.8
			z M673.4,310.4v-2.1h-3.6v2.1H673.4z"/>
	</g>
	<g class="st0">
		<path class="st1" d="M663.2,358.1c0,0.3-0.1,0.5-0.4,0.6c-0.4,0.2-0.8,0.2-1.3,0c-0.2-0.1-0.3-0.3-0.3-0.6v-7l-1.5,0.6
			c-0.1,0-0.2,0-0.2,0c0-0.1,0-0.1,0.1-0.2c1.8-1.1,3.4-2.6,4.9-4.3h-3.5l-1.3,0.2c-0.1,0-0.1,0-0.1-0.1l-0.2-0.7
			c0-0.1,0-0.1,0.2-0.1l1.4,0.1h1.8v-2.8h-1.3l-1.3,0.2c-0.1,0-0.1,0-0.2-0.1l-0.2-0.7c0-0.1,0-0.1,0.2-0.1l1.4,0.1h1.3v-3.5
			c0,0,0-0.1,0.1-0.1c0.7,0,1.4,0.1,2,0.3c0.3,0.1,0.4,0.2,0.4,0.3c0,0.2-0.1,0.3-0.3,0.4c-0.1,0-0.2,0.1-0.2,0.2v2.4h0.1
			c0.1,0,0.4-0.4,1-1.1c0.1-0.1,0.2-0.2,0.4-0.1c0.3,0.3,0.6,0.6,0.9,1.1c0.4-0.7,0.7-1.3,0.8-1.8c0-0.1,0.1-0.1,0.2,0
			c0.6,0.2,1.1,0.5,1.7,0.8c0.2,0.1,0.3,0.3,0.2,0.4c0,0.1-0.2,0.2-0.4,0.2c-0.1,0-0.2,0.1-0.3,0.2c-0.7,1.2-1.6,2.4-2.6,3.6h1.1
			c0.1,0,0.2,0,0.3-0.1l0.8-1.1c0.1-0.2,0.2-0.2,0.4-0.1c0.4,0.3,0.8,0.7,1.1,1.3c0.1,0.1,0.1,0.3,0.1,0.4c0,0.1-0.1,0.2-0.3,0.2
			h-3.9c-0.7,0.7-1.8,1.6-3.2,2.7v0.4h3c0.3,0.1,0.5,0,0.6-0.1l0.5-0.7c0.1-0.1,0.2-0.1,0.3-0.1c0.7,0.2,1.3,0.5,1.7,0.9
			c0.2,0.1,0.2,0.3,0.2,0.4c0,0.1-0.2,0.3-0.4,0.3c-0.1,0-0.2,0.1-0.2,0.2v6.5c0,0.3-0.1,0.5-0.4,0.7c-0.3,0.1-0.6,0.2-0.8,0.2
			c-0.2,0-0.4-0.1-0.5-0.2c-0.1-0.1-0.2-0.3-0.2-0.6v-1.1h-3.6V358.1z M666.9,353.3v-2.4c-0.1-0.1-0.2-0.1-0.3-0.1h-3.4v2.4H666.9z
			 M666.9,356.3v-2.5h-3.6v2.5H666.9z M666.9,343.8h-2.1v2.8h0.1l1.4-1.9L666.9,343.8z M675.1,341.2l0.2-0.1l0.5-0.5
			c0.1-0.1,0.2-0.1,0.2,0c0.5,0.2,1,0.5,1.5,0.8c0.2,0.1,0.2,0.2,0.2,0.4c0,0.1-0.1,0.2-0.3,0.3c-0.2,0.1-0.3,0.2-0.4,0.5
			c-1,2.4-1.7,4-2.1,4.8c0,0,0.2,0.3,0.5,0.6c1.9,1.8,2.8,3.7,2.7,5.7c-0.1,1.4-0.7,2.3-1.6,2.7c-0.4,0.2-0.9,0.3-1.4,0.2
			c-0.1,0-0.1-0.1-0.1-0.2c0-0.8-0.5-1.4-1.2-1.7c-0.1-0.1-0.1-0.2-0.1-0.3c0-0.1,0.1-0.1,0.2-0.1c0.4,0.1,0.8,0.1,1.2,0.1
			c0.4,0,0.7-0.1,0.8-0.3l0.2-0.4c0.3-1.4-0.1-3.1-1.2-4.9c-0.6-0.9-0.9-1.4-0.9-1.5c0.7-2.2,1.1-4.2,1.3-5.7h-2.1V358
			c0,0.4-0.1,0.6-0.3,0.8c-0.2,0.2-0.5,0.3-0.9,0.3c-0.3,0-0.4-0.1-0.6-0.2c-0.1-0.1-0.2-0.2-0.2-0.5v-17.8l0-0.1h0.2
			c0.5,0.1,1.1,0.4,1.8,0.7H675.1z"/>
	</g>
	<g class="st0">
		<path class="st1" d="M665.5,386.5c0,0.3-0.1,0.5-0.4,0.7c-0.4,0.1-0.8,0.1-1.1,0c-0.2-0.1-0.3-0.3-0.3-0.5v-3.6
			c-1.1,1.7-2.3,2.8-3.5,3.3c-0.1,0-0.2,0-0.3,0c0-0.1,0-0.2,0.1-0.2c1.4-1.3,2.5-3.3,3.3-6h-1.4l-1.2,0.2c-0.1,0.1-0.2,0-0.2-0.1
			l-0.2-0.7c0-0.1,0-0.1,0.2-0.1l1.3,0.1h1.8v-3v-0.2c0,0,0-0.1,0.1-0.1l1.9,0.2c0.3,0.1,0.5,0.2,0.5,0.4l-0.6,0.7v2h0.6
			c0.1,0,0.2,0,0.3-0.1l0.9-1c0.1-0.1,0.2-0.1,0.3,0c0.6,0.4,1,0.8,1.4,1.3c0.1,0.1,0.1,0.2,0.1,0.3c0,0.1-0.1,0.1-0.3,0.1h-3.2v1.1
			l0.3,0c1.2,0.2,2,0.7,2.5,1.5c0.2,0.3,0.2,0.6,0.2,1c-0.1,0.3-0.2,0.6-0.5,0.7c-0.6,0.2-1.1,0-1.3-0.8c-0.3-0.9-0.7-1.5-1.2-1.9
			V386.5z M662.8,388.7c0.1,0,0.1,0,0.1,0.1c0.2,0.9,0.1,1.8-0.1,2.7c-0.2,0.9-0.5,1.5-1,2c-0.3,0.3-0.5,0.4-0.9,0.4
			c-0.3,0-0.6-0.1-0.8-0.4c-0.1-0.1-0.2-0.3-0.2-0.4c-0.1-0.5,0.2-0.9,0.7-1.2c1-0.6,1.6-1.6,2-3.1
			C662.7,388.7,662.7,388.7,662.8,388.7z M664.6,388.5v-0.6c0-0.1,0-0.1,0.2-0.1c0.5,0,1.1,0.1,1.7,0.2c0.3,0.1,0.5,0.2,0.5,0.4
			l-0.5,0.6v3c0,0.1,0,0.2,0.1,0.4s0.3,0.2,0.5,0.3l0.2,0c2.8,0.1,4.7,0.1,5.7-0.2c0.2-0.2,0.5-0.8,0.7-1.9c0-0.1,0.1-0.2,0.2-0.2
			c0.1,0,0.1,0.1,0.2,0.2l0.1,1.1c0.1,0.3,0.2,0.6,0.4,0.7c0.3,0.2,0.5,0.4,0.5,0.8c0,0.4-0.2,0.6-0.7,0.8c-0.5,0.2-1.2,0.4-1.9,0.4
			l-3,0.1c-1.7,0-2.9-0.1-3.6-0.4c-0.5-0.2-0.9-0.5-1.1-0.8c-0.1-0.3-0.2-0.6-0.2-0.9L664.6,388.5L664.6,388.5z M667.8,387.5
			c0-0.1,0.1-0.1,0.2-0.1c1.8,0.4,3,1.1,3.5,2.1c0.2,0.3,0.2,0.7,0.1,1.1c-0.1,0.4-0.3,0.6-0.6,0.7c-0.7,0.2-1.2-0.1-1.3-1
			c-0.3-1.2-0.9-2.1-1.8-2.7C667.9,387.7,667.8,387.6,667.8,387.5z M671.4,386.5c0,0.4-0.1,0.6-0.3,0.7c-0.2,0.2-0.5,0.3-0.9,0.3
			c-0.2,0-0.4-0.1-0.5-0.2c-0.1-0.1-0.2-0.3-0.1-0.5V377v-0.1h0.2c0.5,0.1,1.1,0.3,1.7,0.7h2.8c0.2,0,0.3,0,0.4-0.1l0.5-0.6
			c0.1-0.1,0.3-0.2,0.4-0.1c0.7,0.3,1.3,0.5,1.6,0.8c0.4,0.3,0.3,0.5-0.2,0.8c-0.1,0.1-0.2,0.1-0.2,0.2v8.3c0,0.3-0.1,0.4-0.3,0.6
			c-0.2,0.1-0.5,0.2-0.9,0.2c-0.3,0-0.4-0.1-0.6-0.2c-0.1-0.1-0.1-0.2-0.1-0.4v-0.9h-3.5V386.5z M674.9,380.2v-2.1
			c-0.1-0.1-0.1-0.1-0.2,0h-3.3v2.2H674.9z M674.9,383v-2.2h-3.5v2.2H674.9z M674.9,385.5v-2h-3.5v2H674.9z M674,388.5
			c0-0.1,0.1-0.1,0.2,0h0.1c2,0.8,3.2,2,3.6,3.5c0.1,0.4,0.1,0.7,0,1.1c-0.1,0.3-0.4,0.6-0.7,0.6c-0.7,0.1-1.1-0.3-1.2-1.2
			c-0.2-1.6-0.8-2.9-1.9-3.7C674,388.7,674,388.6,674,388.5z"/>
	</g>
	<g class="st0">
		<path class="st1" d="M659.5,417.1c0-0.1,0.1-0.1,0.2-0.1c1.3,0.3,2.2,1,2.6,1.9c0.1,0.4,0.1,0.7-0.1,1.1c-0.1,0.3-0.4,0.6-0.7,0.6
			c-0.7,0.1-1.1-0.3-1.2-1.2c0-0.9-0.2-1.6-0.8-2.1C659.4,417.3,659.4,417.2,659.5,417.1z M664.4,417.2c0.1,0,0.1,0.1,0.1,0.3
			l-2.3,7.3c-0.1,0.7,0,1.6,0.4,2.5c0.4,0.9,0.5,1.7,0.3,2.4c-0.1,0.5-0.4,0.7-0.8,0.8c-0.4,0.1-0.7,0-0.9-0.3
			c-0.4-0.5-0.5-1.1-0.4-2.1c0.1-0.8,0.1-1.6-0.1-2.3c-0.1-0.4-0.5-0.7-1.1-1c-0.1-0.1-0.1-0.1-0.1-0.2c0-0.1,0.1-0.1,0.2-0.1
			l0.8,0.1c0.2,0,0.3-0.1,0.4-0.2l3.3-7.2C664.3,417.2,664.4,417.1,664.4,417.2z M660.8,412.5c0-0.1,0.1-0.1,0.2-0.1h0.6
			c1,0.1,1.8,0.5,2.4,1.1c0.2,0.3,0.3,0.7,0.2,1.1c0,0.4-0.2,0.6-0.5,0.8c-0.7,0.3-1.2,0-1.4-0.9c-0.2-0.8-0.7-1.4-1.3-1.8
			C660.8,412.6,660.8,412.6,660.8,412.5z M671.8,416.6h-5v2.5c0,2-0.1,3.8-0.4,5.5c-0.4,2.7-1.4,4.7-3,6c-0.1,0.1-0.2,0.1-0.2,0
			c0,0,0.1-0.3,0.3-0.9c0.9-2.1,1.4-5.6,1.4-10.6v-3.7c0-0.1,0-0.2,0.1-0.2c0.5,0.2,1.2,0.5,1.9,0.8h4.8l-0.1-2.7l-0.1-1.1
			c0-0.1,0.1-0.2,0.2-0.2c0.8,0,1.4,0.1,1.8,0.1c0.3,0.1,0.4,0.2,0.4,0.3c0,0.1-0.1,0.3-0.3,0.4c-0.2,0.1-0.3,1.2-0.1,3.1h2
			c0.1,0,0.2,0,0.3-0.1l0.7-1c0.1-0.2,0.2-0.2,0.4-0.1c0.4,0.3,0.7,0.7,1,1.2c0.1,0.1,0.2,0.3,0.1,0.4c0,0.1-0.1,0.2-0.3,0.2h-4.1
			c0.1,2.2,0.4,4.2,0.8,6.1c0.5-1.3,0.9-2.5,1-3.5c0-0.1,0.1-0.2,0.2-0.1c0.7,0.1,1.4,0.4,2,0.7c0.2,0.1,0.3,0.3,0.3,0.4
			c0,0.1-0.2,0.2-0.4,0.2c-0.1,0-0.2,0.1-0.3,0.2c-0.6,1.5-1.3,3.1-2.2,4.6c0.3,0.7,0.6,1.3,1,2c0.1,0.3,0.3,0.4,0.4,0.4l0.2-0.1
			l0.8-1.1c0.1-0.2,0.2-0.3,0.4-0.2c0.1,0,0.2,0.2,0.1,0.4c-0.3,1.3-0.3,2.3-0.1,2.8c0.2,0.5,0.2,0.9,0.1,1.1
			c-0.1,0.2-0.4,0.3-0.6,0.4c-0.3,0-0.7-0.2-1.1-0.5c-0.9-0.7-1.8-1.9-2.4-3.5c-2,2-4.1,3.2-6.5,3.8c-0.1,0-0.1,0-0.2-0.1l0.1-0.1
			c2.2-1.1,4.2-2.9,6-5.3C672.5,423,672,420.1,671.8,416.6z M668.8,418.9h0.3c0.1,0,0.2,0,0.2-0.1l0.7-0.9c0.1-0.1,0.2-0.2,0.3-0.1
			c0.3,0.2,0.6,0.6,0.8,1c0.1,0.1,0.2,0.3,0.1,0.4c0,0.1-0.1,0.2-0.3,0.2h-2.3l-1.3,0.2c-0.1,0-0.1,0-0.2-0.1l-0.1-0.7
			c0-0.1,0-0.1,0.2-0.1L668.8,418.9z M668.9,426.6c0,0.3-0.1,0.5-0.3,0.6c-0.2,0.1-0.5,0.2-0.8,0.2c-0.2,0-0.4-0.1-0.5-0.1
			c-0.1-0.1-0.1-0.2-0.1-0.4v-5.9c0-0.1,0-0.1,0.1-0.1c0.5,0.1,1,0.3,1.5,0.5h0.6l0.2-0.1c0.3-0.3,0.5-0.4,0.6-0.4
			c0.5,0.2,1,0.4,1.4,0.7l0.2,0.2l-0.4,0.7v3.4c0,0.2-0.1,0.4-0.3,0.5c-0.2,0.1-0.4,0.2-0.8,0.2c-0.2,0-0.4-0.1-0.5-0.2
			c-0.1-0.1-0.1-0.3-0.1-0.5v-0.3h-0.9V426.6z M669.8,425v-3.1c-0.1-0.1-0.1-0.1-0.2,0h-0.7v3.1H669.8z M674.1,412.2l0.1-0.1
			c0.6,0,1.1,0.1,1.6,0.3c0.5,0.2,0.8,0.5,1,0.9c0.1,0.2,0.2,0.5,0.1,0.8s-0.3,0.5-0.5,0.5c-0.6,0.1-1-0.2-1.1-0.8
			c-0.2-0.6-0.6-1.1-1.1-1.5L674.1,412.2z"/>
	</g>
	<g class="st0">
		<path class="st1" d="M662.7,465.7c0,0.3-0.2,0.5-0.4,0.6c-0.4,0.2-0.8,0.1-1.1-0.1c-0.2-0.1-0.3-0.3-0.3-0.6v-8.1
			c-0.4,0.5-0.8,0.9-1.2,1.3c-0.1,0.1-0.2,0.1-0.3,0c-0.1-0.1,0-0.2,0-0.3c1.3-1.9,2.1-4.6,2.4-8.3h-0.5l-1.3,0.2
			c-0.1,0-0.1,0-0.2-0.1l-0.1-0.7c0-0.1,0-0.1,0.2-0.1l1.4,0.1h2.7c0.1,0,0.2,0,0.3-0.1l0.8-1.1c0.1-0.2,0.2-0.2,0.4-0.1
			c0.4,0.3,0.8,0.7,1.1,1.3c0.1,0.1,0.1,0.3,0.1,0.4c0,0.1-0.1,0.2-0.3,0.2h-2.7c-0.3,2.1-0.8,3.8-1.5,5.3l-0.2,0.3h1.4
			c0.1,0,0.2,0,0.2-0.1l0.5-0.5h0.2c0.6,0.2,1.1,0.5,1.6,0.9c0.4,0.3,0.3,0.5-0.1,0.7c-0.1,0-0.2,0.1-0.2,0.3v7.4
			c0,0.2-0.1,0.4-0.3,0.5c-0.2,0.1-0.5,0.2-0.9,0.2c-0.3,0-0.4-0.1-0.5-0.2c-0.1-0.1-0.1-0.3-0.1-0.5v-1.1h-1V465.7z M663.7,462.9
			v-6.4c-0.1-0.1-0.1-0.1-0.2-0.1h-0.7v6.5H663.7z M666.8,456.1c-0.1,0.1-0.2,0-0.2-0.1l-0.2-0.7c0-0.1,0-0.1,0.2-0.1l1.1,0.1v-1.2
			c0-0.1,0-0.1,0.1-0.1c0.6,0,1.2,0.1,1.8,0.2c0.3,0.1,0.4,0.2,0.4,0.3l-0.5,0.5v0.4h5.7c0.1,0,0.3-0.1,0.3-0.2l1-1.2
			c0.1-0.1,0.2-0.1,0.3,0c0.6,0.4,1.2,0.9,1.6,1.5c0.1,0.1,0.1,0.2,0.1,0.3c-0.1,0.1-0.2,0.1-0.3,0.1h-8.7l-0.2,2.2
			c-0.4,4.2-1.8,7.2-4.1,8.7c-0.1,0-0.1,0-0.2,0l0.1-0.2c0.5-0.6,0.9-1.4,1.3-2.3c0.8-1.9,1.2-4.8,1.3-8.4L666.8,456.1z
			 M669.3,452.9L669.3,452.9c0,0.3-0.1,0.5-0.4,0.6c-0.4,0.2-0.8,0.2-1.2,0c-0.2-0.1-0.4-0.3-0.3-0.6v-4c0-0.1,0-0.1,0.1-0.1
			l1.8,0.3c0.3,0.1,0.5,0.2,0.5,0.4l-0.5,0.6v2.3h2v-4.2c0,0,0-0.1,0.1-0.1c0.7,0,1.3,0.1,1.9,0.2c0.3,0.1,0.4,0.2,0.4,0.3
			c0,0.2-0.1,0.3-0.3,0.3c-0.1,0-0.2,0.1-0.2,0.2v3.2h2.1V449c0-0.1,0-0.1,0.1-0.1l1.8,0.3c0.3,0.1,0.5,0.2,0.5,0.4l-0.5,0.6v2.9
			c0,0.3-0.1,0.5-0.4,0.6c-0.4,0.2-0.8,0.2-1.2,0c-0.2-0.1-0.4-0.3-0.4-0.6v-0.1H669.3z M675.7,462.4c0.9,1.3,1.7,2.1,2.6,2.5
			c0.1,0,0.2,0.1,0.2,0.1s-0.1,0.1-0.2,0.1c-0.7,0.2-1.2,0.8-1.5,1.5c-0.1,0.1-0.1,0.2-0.3,0c-1.5-1.5-2.4-3.7-2.6-6.5
			c-0.5,2.6-1.4,4.4-2.7,5.5c-1,0.7-2.1,1.1-3.1,1.3c-0.1,0-0.1,0-0.2-0.1c0-0.1,0-0.1,0.1-0.2c0.8-0.3,1.6-0.9,2.4-1.7
			c1.3-1.6,2-4.4,2-8.3c0-0.1,0-0.1,0.1-0.1c0.6,0,1.2,0.1,1.7,0.2c0.3,0.1,0.4,0.2,0.4,0.3c0,0.1-0.1,0.2-0.4,0.3l-0.1,0.2
			c-0.1,1.3,0.2,2.8,0.9,4.2c0.6-1.2,0.9-2.3,0.9-3.4c0,0,0-0.1,0.1-0.1c0.6,0,1.2,0.1,1.8,0.3c0.2,0.1,0.3,0.2,0.3,0.3
			c0,0.1-0.1,0.2-0.3,0.3l-0.1,0.1c-0.6,1.1-1.4,2.1-2.4,2.9L675.7,462.4z M671.3,458.1c0.1,0,0.1,0,0.1,0.1c0.4,1.7,0.1,3.1-0.7,4
			c-0.2,0.2-0.5,0.3-0.8,0.3c-0.3,0-0.5-0.1-0.7-0.3l-0.1-0.2c-0.2-0.5,0-1,0.6-1.3c0.8-0.5,1.3-1.4,1.6-2.6
			C671.2,458.2,671.2,458.1,671.3,458.1z"/>
	</g>
	<g class="st0">
		<path class="st1" d="M611.5,211.6h-2.7l-2.1,0.3c-0.2,0.1-0.4,0.1-0.4-0.1l-0.4-1.3c0-0.1,0.1-0.2,0.4-0.1l2.4,0.3h2.7v-6.1
			c-1.8,2.6-3.6,4.4-5.5,5.4c-0.3,0.1-0.4,0.1-0.5,0c0-0.1,0-0.3,0.1-0.4c2.8-2.8,4.7-7.1,5.7-12.8c0-0.3,0.2-0.3,0.4-0.3
			c1.4,0.3,2.7,0.8,3.7,1.4c0.3,0.2,0.5,0.4,0.4,0.6c-0.1,0.3-0.4,0.5-0.9,0.5c-0.2,0-0.4,0.2-0.5,0.5l-1,1.8h16.2
			c0.3,0,0.5-0.1,0.6-0.3l1.8-2.3c0.2-0.2,0.4-0.2,0.6-0.1c1.2,0.8,2.2,1.7,3,2.8c0.2,0.2,0.2,0.4,0.1,0.5c-0.1,0.2-0.3,0.3-0.6,0.3
			h-4v8.3h1c0.3,0,0.4-0.1,0.5-0.3l1.7-2.1c0.2-0.2,0.4-0.2,0.6,0c1.1,0.6,2,1.5,2.7,2.6c0.2,0.2,0.2,0.4,0.1,0.5
			c-0.1,0.2-0.3,0.3-0.6,0.3h-6.1v8h1.4c0.3,0,0.5-0.1,0.6-0.3l1.7-2.1c0.2-0.2,0.4-0.2,0.6,0c1.1,0.6,1.9,1.5,2.7,2.6
			c0.2,0.2,0.2,0.4,0.1,0.5c-0.1,0.2-0.3,0.3-0.6,0.3h-29.3l-2.1,0.3c-0.2,0.1-0.4,0.1-0.4-0.1l-0.4-1.3c0-0.1,0.1-0.2,0.4-0.1
			l2.4,0.3h3.1V211.6z M612,222c0.1,0,0.2,0.1,0.2,0.3c0.2,1.5,0,3-0.4,4.4c-0.4,1.4-1,2.4-1.9,3.2c-0.5,0.4-1.1,0.5-1.7,0.5
			c-0.6-0.1-1.1-0.4-1.4-0.8l-0.1-0.4c-0.3-1.2,0.2-2.1,1.4-2.5c1.6-0.8,2.9-2.3,3.7-4.4C611.9,222,612,221.9,612,222z M617,202.3
			h-2.2v8.3h2.2V202.3z M617,219.6v-8h-2.2v8H617z M615.4,222c0.1-0.1,0.2-0.1,0.4,0l0.1,0.1c2.5,1.5,3.9,3.3,4.2,5.3
			c0.1,0.7-0.1,1.3-0.5,2c-0.4,0.6-0.8,0.8-1.5,0.8c-1.3-0.1-1.8-0.9-1.6-2.5c0.2-2.1-0.2-3.8-1.2-5.2
			C615.4,222.3,615.4,222.2,615.4,222z M622.4,202.3h-2.1v8.3h2.1V202.3z M622.4,219.6v-8h-2.1v8H622.4z M622.4,222.2
			c0.1-0.1,0.2-0.1,0.4-0.1c2.8,1.1,4.6,2.8,5.2,5.1c0.1,0.7,0.1,1.3-0.3,2c-0.3,0.6-0.8,0.9-1.3,1c-1.4,0.1-2-0.7-1.9-2.3
			c0-2.3-0.7-4-2-5.3C622.3,222.4,622.3,222.3,622.4,222.2z M627.8,202.3h-2v8.3h2V202.3z M627.8,219.6v-8h-2v8H627.8z M628.3,222.4
			c0-0.1,0.1-0.2,0.4-0.2c0.7,0.1,1.5,0.3,2.3,0.6c2.2,0.9,3.8,2.2,4.6,3.9c0.3,0.6,0.4,1.3,0.2,2.1c-0.2,0.7-0.5,1.1-1.2,1.3
			c-1.3,0.5-2.2-0.2-2.5-1.9c-0.6-2.6-1.8-4.4-3.7-5.5C628.4,222.6,628.3,222.5,628.3,222.4z"/>
	</g>
	<g class="st0">
		<path class="st1" d="M606.8,244.5c0.1-0.1,0.2,0,0.3,0.1l0.9,1.7c1,2.3,1.3,4.4,0.6,6.3c-0.2,0.7-0.6,1.2-1.3,1.5
			c-0.5,0.4-1.1,0.4-1.7,0.1c-1.2-0.6-1.3-1.7-0.3-3c1.3-2.2,1.8-4.3,1.3-6.3C606.6,244.7,606.6,244.6,606.8,244.5z M612.1,260.4
			c-1.4,5.4-3.6,8.7-6.6,9.7c-0.2,0.1-0.3,0-0.3-0.1l0.1-0.3c1.8-2.3,3.2-5.8,4-10.7c0.6-3.8,1-11.3,1-22.4c0-0.1,0.1-0.2,0.2-0.2
			l3.3,0.4c0.5,0.1,0.8,0.3,0.8,0.5s-0.2,0.5-0.6,0.6c-0.2,0-0.3,0.1-0.3,0.3c0,3.7-0.1,7.2-0.3,10.6c1-1.5,1.7-3.2,2.1-5
			c0-0.1,0.1-0.2,0.2-0.1c1.1,0.3,2.1,0.7,3.1,1.2c0.4,0.2,0.5,0.5,0.5,0.7c-0.1,0.2-0.3,0.3-0.8,0.3c-0.1,0-0.2,0-0.3,0.2
			c-1.4,1.7-3.1,3-4.9,4c-0.2,3.2-0.5,6.2-0.9,8.8c2.5,0.6,4.2,1.9,5.1,4c0.3,0.6,0.3,1.3,0.1,2c-0.1,0.6-0.5,1-1.2,1.2
			c-1.3,0.3-2.1-0.4-2.3-2c-0.3-1.8-1-3.2-2-4.1L612.1,260.4z M628.2,269.2c0,0.6-0.3,0.9-0.8,1.2c-0.7,0.3-1.4,0.3-2.1-0.1
			c-0.4-0.2-0.5-0.6-0.5-1.1v-6.3c-2.9,3.4-6.3,5.6-10.3,6.7c-0.2,0.1-0.4,0-0.4-0.1c-0.1-0.2,0.3-0.5,0.9-0.8
			c4.6-3.1,7.6-6.8,9-11.1h-5.6l-2.1,0.3c-0.2,0.1-0.3,0.1-0.4-0.1l-0.4-1.3c0-0.1,0.1-0.2,0.4-0.1l2.4,0.2h6.4v-4.2H623v1
			c0,0.5-0.2,0.9-0.7,1.1c-0.7,0.3-1.4,0.3-2.2,0c-0.4-0.2-0.6-0.6-0.6-1v-11.1h-1.6l-2.1,0.3c-0.2,0.1-0.4,0.1-0.4-0.1l-0.4-1.3
			c0-0.2,0.1-0.2,0.4-0.1l2.4,0.2h1.6v-4.9c0-0.1,0.1-0.2,0.3-0.2l3.2,0.5c0.6,0.1,0.9,0.3,0.9,0.6l-0.9,1.1v2.9h6.9v-4.9
			c0-0.1,0.1-0.2,0.3-0.2l3.2,0.5c0.6,0.1,0.9,0.3,0.9,0.6l-0.9,1.1v2.9l0.3-0.2l1.7-2.1c0.1-0.2,0.3-0.2,0.6,0
			c1.1,0.7,2,1.5,2.7,2.6c0.2,0.2,0.2,0.4,0.1,0.5c-0.1,0.2-0.3,0.3-0.6,0.3h-4.8v10.9c0,0.5-0.2,0.9-0.7,1.1
			c-0.7,0.3-1.4,0.3-2.2,0c-0.4-0.2-0.6-0.6-0.6-1v-1h-1.7v4.2h4.9c0.3,0,0.5-0.1,0.6-0.2l1.7-2.1c0.1-0.2,0.3-0.2,0.6,0
			c1.1,0.7,2,1.5,2.7,2.6c0.2,0.2,0.2,0.4,0.1,0.5c-0.1,0.2-0.3,0.3-0.6,0.3h-9.8c0.8,1.8,2,3.4,3.8,5c2,1.7,4.2,2.9,6.4,3.5
			c0.2,0,0.3,0.1,0.3,0.3c0,0.1-0.1,0.2-0.3,0.3c-0.6,0.1-1.3,0.4-1.7,1c-0.5,0.5-0.8,1-0.9,1.5c-0.1,0.3-0.3,0.3-0.6,0.1
			c-3.3-1.9-5.8-5.2-7.3-10V269.2z M629.9,246.6v-4.2H623v4.2H629.9z M629.9,251.3v-3.9H623v3.9H629.9z"/>
	</g>
	<g class="st0">
		<path class="st1" d="M638.6,303.9c0.2,0,0.3,0.1,0.2,0.3c0,0.1-0.1,0.2-0.3,0.2c-1.4,0.2-2.3,1-3,2.6c-0.1,0.3-0.3,0.4-0.5,0.3
			c-3.6-2.3-6.3-5.7-8.1-9.9c-1.5-3.3-2.3-6.7-2.4-10h-2.1c-0.7,1-1.6,2-2.6,3c2.7,1.5,4.5,3.5,5.3,5.6c0.3,0.9,0.6,1.8,0.7,2.8
			c0.3,3.7-0.1,6.6-1.1,8.5c-0.9,1.7-2.7,2.6-5.2,2.6c-0.3,0-0.4-0.1-0.4-0.3c0-0.9-0.3-1.6-1-2.2c-0.6-0.5-1.1-0.8-1.7-1.1
			c-0.3-0.1-0.3-0.3-0.3-0.4c0.1-0.2,0.2-0.3,0.4-0.3c2.6,0.4,4.2,0.1,5-0.8c0.4-0.6,0.8-2.1,0.8-4.1c-4.6,3.5-9.9,5.9-16.1,7
			c-0.2,0-0.3,0-0.4-0.2c0-0.2,0-0.3,0.2-0.4c6.8-2.6,12.3-6.2,16.2-10.8l-0.4-1.6c-3.9,3.7-9,6.2-15.3,7.5c-0.2,0-0.4,0-0.4-0.2
			c0-0.2,0-0.3,0.2-0.4c5.7-2.4,10.3-5.7,13.7-9.8l-1.2-1c-3.7,2.7-8.1,4.6-13,5.4c-0.2,0.1-0.4,0-0.4-0.1c0-0.1,0-0.3,0.2-0.4
			c2.4-0.8,4.9-1.9,7.5-3.5c2.5-1.5,4.2-3.2,5.3-4.9h-4.8l-2.1,0.3c-0.2,0.1-0.3,0.1-0.4-0.1l-0.4-1.3c0-0.2,0.1-0.2,0.4-0.1
			l2.4,0.3h11.7c0.3,0,0.5-0.1,0.6-0.3l1.8-2.1c0.2-0.2,0.3-0.2,0.6,0c1.1,0.6,2.1,1.6,2.9,2.7l2.2-4.3h-21.8l-1.8,0.1
			c0.1,2.2-0.2,3.9-1.1,5c-0.4,0.5-0.9,0.8-1.5,0.9c-0.6,0-1.1-0.2-1.5-0.6c-0.3-0.4-0.4-0.9-0.3-1.5c0.1-0.6,0.4-1.2,1-1.5
			c1.3-1,2.2-2.7,2.4-4.9l0.1-0.2c0.1,0,0.2,0,0.3,0.2l0.4,1.5l1.9,0.1h8.5v-5.1c0-0.1,0-0.1,0.2-0.1c1.3,0,2.4,0.2,3.6,0.5
			c0.5,0.1,0.7,0.3,0.7,0.5c0,0.3-0.2,0.5-0.6,0.6c-0.3,0.1-0.4,0.2-0.4,0.4v3.1h9l0.5-0.3l1.2-0.9c0.2-0.1,0.4-0.1,0.5,0
			c1.2,0.6,2.2,1.3,3.2,2.1c0.3,0.3,0.3,0.4,0.2,0.6c-0.1,0.2-0.4,0.3-0.8,0.3l-0.5,0.1c-2.1,1.7-4.1,3.1-5.8,4.3h-0.5l-0.1-0.3
			h-5.6c0.6,2.7,1.5,5.1,2.8,7.1c1.1-1,2.4-2.7,3.9-5.1c0.1-0.1,0.2-0.1,0.3-0.1c0.9,0.6,1.9,1.3,2.7,2.2c0.3,0.3,0.4,0.6,0.3,0.8
			c-0.1,0.2-0.4,0.3-0.9,0.2h-0.4c-1.5,1.2-3.4,2.2-5.4,2.8C631.2,299.9,634.7,302.8,638.6,303.9z"/>
	</g>
	<g class="st0">
		<path class="st1" d="M610.5,348.5c0,0.7-0.2,1.2-0.5,1.4c-0.4,0.3-0.9,0.5-1.7,0.5c-0.5,0-0.8-0.1-1-0.4c-0.2-0.1-0.3-0.4-0.3-0.8
			v-31.7l0.1-0.3h0.3c1.1,0.3,2.3,0.8,3.6,1.4h20.6c0.3,0,0.5,0,0.7-0.2l0.9-1c0.2-0.3,0.5-0.4,0.8-0.3c1.3,0.5,2.3,1,3.1,1.5
			c0.7,0.6,0.6,1.1-0.4,1.5c-0.2,0.1-0.3,0.2-0.3,0.4V349c0,0.5-0.2,0.9-0.6,1.1c-0.4,0.3-0.9,0.4-1.6,0.4c-0.4,0-0.8-0.1-1-0.4
			c-0.1-0.2-0.2-0.4-0.2-0.7v-1.7h-22.4V348.5z M632.9,346.8v-27c-0.1-0.2-0.2-0.2-0.4-0.1h-22v27.1H632.9z M628,336.8h0.2
			c0.8,0.4,1.5,0.9,2.3,1.5c0.3,0.3,0.5,0.6,0.4,0.8c-0.1,0.2-0.4,0.2-0.7,0.1l-0.4,0.1l-2.2,1l-0.6,0.2c1.5,0.5,2.7,1.2,3.5,1.9
			c0.3,0.4,0.4,0.8,0.4,1.4c0,0.5-0.2,0.9-0.5,1.3c-0.4,0.3-0.8,0.4-1.3,0.4s-0.9-0.4-1.3-1c-1-1.4-3-3-5.8-4.5v5
			c0,0.5-0.2,0.8-0.6,1c-0.7,0.3-1.3,0.3-2.1,0c-0.3-0.2-0.5-0.6-0.4-1v-4.5c-2.3,1.8-4.6,2.9-7.1,3.4c-0.2,0-0.3,0-0.3-0.1
			c0-0.1,0-0.2,0.1-0.3c3.9-2.1,6.6-4.8,7.9-8.3h-1.8v0.4c0,0.5-0.2,0.9-0.5,1.1c-0.4,0.3-0.9,0.4-1.5,0.4c-0.4,0-0.8-0.1-1-0.3
			c-0.2-0.1-0.2-0.4-0.2-0.8v-6.8c0-0.2,0-0.3,0.1-0.3c1,0.2,2,0.5,2.9,1.1h7.5l0.3-0.2l0.9-0.9h0.3c1,0.4,1.9,0.9,2.8,1.5l0.3,0.4
			c0.1,0.1-0.2,0.5-0.8,1.3v3.1c0,0.4-0.2,0.7-0.5,0.9c-0.3,0.2-0.9,0.3-1.5,0.4c-0.4,0-0.8-0.1-0.9-0.3c-0.2-0.2-0.3-0.5-0.2-0.9
			v-0.1h-2.4L622,337v2.2c1.2,0.1,2.4,0.5,3.5,0.9C626.8,338.8,627.7,337.7,628,336.8z M619.9,324.4H616l-2.1,0.3
			c-0.2,0.1-0.4,0.1-0.4-0.1l-0.4-1.3c0-0.2,0.1-0.2,0.4-0.1l2.4,0.3h3.9v-3c0-0.1,0-0.1,0.2-0.1c1.2,0,2.4,0.2,3.5,0.5
			c0.4,0.1,0.6,0.3,0.6,0.5c0,0.3-0.2,0.5-0.6,0.6c-0.2,0.1-0.4,0.2-0.3,0.4v1.1h2.3c0.2,0,0.4-0.1,0.5-0.2l1.5-1.7
			c0.1-0.1,0.3-0.1,0.5,0c0.8,0.6,1.5,1.3,2.1,2.2c0.2,0.2,0.2,0.4,0.1,0.5c-0.1,0.2-0.3,0.2-0.6,0.2h-6.4v2.7h3.7
			c0.2,0,0.4-0.1,0.5-0.2l1.5-1.7c0.1-0.1,0.3-0.1,0.5,0c0.8,0.6,1.5,1.3,2.1,2.2c0.2,0.1,0.2,0.3,0.1,0.5c-0.1,0.2-0.3,0.3-0.6,0.3
			h-16.5l-2.1,0.3c-0.2,0.1-0.4,0.1-0.4-0.1l-0.4-1.3c0-0.2,0.1-0.2,0.4-0.1l2.4,0.3h5.3V324.4z M625.6,334.3v-3.2
			c-0.1-0.2-0.2-0.2-0.4-0.1h-6.8l-0.7,0.1v3.2H625.6z"/>
	</g>
	<g class="st0">
		<path class="st1" d="M617.5,383.2c0.9,0.5,1.8,1.1,2.6,1.8c0.4,0.3,0.5,0.6,0.5,0.8c-0.2,0.3-0.4,0.3-0.8,0.2
			c-0.2,0-0.5,0-0.8,0.2c-3.5,2.1-7.6,3.4-12.3,3.8c-0.3,0-0.4-0.1-0.4-0.1c0-0.1,0.3-0.4,1-0.5c4.3-1.4,7.6-3.5,9.8-6
			C617.2,383.1,617.4,383.1,617.5,383.2z M611.7,383.1c0,0.5-0.2,0.9-0.8,1.2c-0.7,0.3-1.4,0.2-2.1-0.1c-0.4-0.2-0.5-0.5-0.5-0.9
			v-13.8v-0.4c0-0.1,0.1-0.2,0.2-0.2l3.3,0.5c0.6,0.1,0.9,0.4,0.9,0.7l-1.1,1.2v10.3h20.5c0.3,0,0.4-0.1,0.5-0.3l1.8-2.1
			c0.2-0.2,0.4-0.2,0.6,0c1.2,0.7,2.1,1.6,2.9,2.7c0.2,0.2,0.2,0.4,0.1,0.5c-0.1,0.1-0.3,0.2-0.6,0.2h-25.8V383.1z M614.5,361.5
			c0,0.3,0.1,0.5,0.4,0.7c0.2,0.2,0.9,0.4,2,0.6c5.9,0.1,10.4,0.1,13.3,0l1.5-0.2c0.8-0.4,1.6-1.4,2.4-2.8c0.1-0.2,0.2-0.3,0.4-0.3
			c0.2,0,0.3,0.1,0.3,0.4c-0.3,1.4-0.3,2.3,0,2.7c0.6,0.3,0.9,0.7,0.9,1.3c0,0.6-0.5,1.1-1.6,1.4c-1.3,0.4-2.7,0.6-4.4,0.7l-6.9,0.1
			c-6.4,0-10-0.7-11.1-2.1c-0.4-0.6-0.5-1.2-0.5-1.7v-4.6v-1.1c0-0.1,0.1-0.2,0.3-0.3c1,0,2,0.2,3.1,0.4c0.6,0.1,0.9,0.3,0.9,0.6
			l-0.9,1.1v1.3c6.5-0.8,11.4-1.9,14.6-3.4c0.2-0.1,0.4-0.1,0.4,0c1,0.6,1.9,1.3,2.8,2.2c0.3,0.3,0.4,0.6,0.2,0.8
			c-0.1,0.2-0.4,0.3-0.7,0.2l-0.9-0.1c-5.3,0.8-10.8,1.2-16.5,1.1V361.5z M618.8,379.2c0,0.5-0.2,0.9-0.5,1.2
			c-0.5,0.3-1,0.4-1.5,0.5c-0.5,0-0.8-0.1-1-0.3c-0.2-0.1-0.3-0.4-0.2-0.9V367c0-0.2,0-0.3,0.1-0.3c1,0.2,2.1,0.6,3.1,1.1H629
			c0.1,0,0.3-0.1,0.4-0.2l0.8-0.9h0.4c1,0.4,2,0.9,2.9,1.5c0.6,0.5,0.5,0.9-0.3,1.2c-0.2,0.1-0.3,0.3-0.3,0.6v9.2
			c0,0.4-0.2,0.7-0.5,0.9c-0.4,0.2-0.9,0.4-1.6,0.4c-0.5,0-0.8-0.1-1-0.4c-0.2-0.3-0.3-0.6-0.2-0.9V379h-10.8V379.2z M629.6,371.2
			v-2.3c-0.1-0.1-0.2-0.2-0.4-0.1h-9.9l-0.6,0.1v2.3H629.6z M629.6,374.7v-2.6h-10.8v2.6H629.6z M629.6,378.1v-2.4h-10.8v2.4H629.6z
			 M632.2,385c1.8,0.5,3.1,1.2,3.9,1.9c0.4,0.4,0.6,0.8,0.6,1.4c0,0.6-0.1,1.1-0.4,1.5c-0.4,0.4-0.8,0.5-1.3,0.5
			c-0.5,0-1-0.4-1.5-0.9c-1.8-2-4.8-3.7-8.9-5.3c-0.2-0.1-0.3-0.2-0.3-0.3c0-0.2,0.2-0.3,0.4-0.2C627.3,383.8,629.8,384.2,632.2,385
			z"/>
	</g>
	<g class="st0">
		<path class="st1" d="M624.4,406c-2.4,3.9-4.3,6-5.7,6.5v13.9c0,0.4-0.2,0.8-0.6,1.1c-0.4,0.3-0.9,0.4-1.6,0.4
			c-0.5,0-0.8-0.1-1-0.4c-0.1-0.2-0.2-0.4-0.2-0.7v-1.7h-5.4v1.6c0,0.6-0.2,1.2-0.5,1.4c-0.4,0.3-0.9,0.5-1.7,0.5
			c-0.5,0-0.8-0.1-1-0.3c-0.2-0.2-0.3-0.5-0.3-0.9v-23.9l0.1-0.3h0.3c1,0.3,2.1,0.7,3.2,1.3h0.6c0.7-1.9,1-4.2,1-6.8l0.1-0.9
			c0-0.1,0.1-0.2,0.3-0.2c1.1,0.1,2.3,0.4,3.5,0.7c0.5,0.2,0.7,0.4,0.6,0.6c0,0.3-0.2,0.4-0.7,0.5c-0.1,0-0.3,0.1-0.3,0.3
			c-1.1,2.6-2.4,4.5-3.7,5.8h2.5c0.3,0,0.5,0,0.7-0.2l1-1c0.2-0.3,0.5-0.4,0.7-0.3c1.3,0.5,2.4,1,3.1,1.5c0.8,0.6,0.6,1.1-0.3,1.5
			c-0.2,0.1-0.3,0.2-0.3,0.4v5.3l0.1-0.2c2.6-3.7,4.2-8.6,4.9-14.7c0-0.2,0.2-0.3,0.5-0.3c1.4,0.2,2.8,0.6,3.9,1.2
			c0.4,0.2,0.5,0.4,0.5,0.6c0,0.3-0.4,0.5-0.9,0.5c-0.3,0-0.4,0.3-0.5,0.6l-2.1,4.9h7.1c0.3,0,0.6,0,0.7-0.2l1.2-1.3
			c0.2-0.3,0.5-0.3,0.9-0.1c2.2,1.3,3.3,2.2,3.3,2.7c0,0.3-0.3,0.5-0.9,0.8c-0.4,0.2-0.5,0.5-0.5,0.9c0.1,12.6-1,19.8-3.3,21.6
			c-1.2,0.9-2.5,1.4-3.9,1.4c-0.3,0-0.4-0.1-0.4-0.3c0-1.5-1.1-2.7-3.3-3.6c-0.3-0.1-0.4-0.3-0.4-0.5c0.1-0.3,0.3-0.4,0.6-0.3
			c2.7,0.3,4.3,0.3,4.9,0c0.3-0.1,0.6-0.6,0.9-1.5c0.5-2.1,0.9-5.7,1.1-10.5c0.1-5,0.1-7.7-0.1-8c0-0.1-0.2-0.1-0.4-0.1h-7.3
			l-0.8,0.1L624.4,406z M615.2,414.1v-8.5c-0.1-0.2-0.2-0.2-0.4-0.1h-5v8.5H615.2z M615.2,424.3v-9.2h-5.4v9.2H615.2z M622.2,411.2
			c0-0.1,0.2-0.2,0.4-0.2l1.7,0.6c1.3,0.5,2.4,1.3,3.5,2.3c0.9,0.9,1.5,1.8,1.7,2.6c0.3,0.7,0.3,1.4,0.1,2.1c-0.2,0.6-0.6,1-1.3,1.2
			c-1.3,0.3-2.1-0.4-2.3-2.1c-0.4-2.8-1.6-4.9-3.6-6.2C622.2,411.5,622.2,411.4,622.2,411.2z"/>
	</g>
	<g class="st0">
		<path class="st1" d="M608.5,440.3l-2.1,0.3c-0.2,0.1-0.4,0.1-0.4-0.1l-0.4-1.3c0-0.2,0.1-0.2,0.4-0.1l2.4,0.3h23
			c0.3,0,0.5-0.1,0.6-0.3l1.9-2.3c0.1-0.2,0.4-0.3,0.6-0.1c1.3,0.8,2.3,1.7,3.2,2.9c0.2,0.2,0.2,0.3,0.1,0.5
			c-0.1,0.2-0.3,0.3-0.6,0.3H632v25.7c0,0.9-0.2,1.7-0.6,2.3c-0.8,1-2.4,1.7-4.6,1.7c-0.3,0-0.4-0.1-0.4-0.3c0-1-0.1-1.7-0.5-2.1
			c-0.5-0.5-1.1-0.9-2-1.3c-0.2-0.1-0.3-0.2-0.3-0.4c0-0.2,0.1-0.3,0.3-0.3h3.7c0.6,0,0.9-0.2,0.9-0.6v-24.8H608.5z M613.5,460.3
			c0,0.6-0.2,1-0.5,1.2c-0.5,0.3-1,0.4-1.6,0.5c-0.5,0-0.8-0.1-1.1-0.3c-0.2-0.1-0.2-0.4-0.2-0.8v-15.6c0-0.2,0-0.3,0.1-0.3
			c1.4,0.3,2.6,0.8,3.6,1.4h3.8c0.3,0,0.5,0,0.7-0.2l0.9-1c0.2-0.3,0.5-0.4,0.8-0.3c1.3,0.5,2.3,1,3.1,1.5c0.7,0.6,0.6,1.1-0.4,1.5
			c-0.2,0.1-0.3,0.2-0.3,0.4v9.9c0,0.5-0.2,0.9-0.6,1.1c-0.4,0.2-0.9,0.4-1.6,0.4c-0.5,0-0.8-0.1-1.1-0.3c-0.1-0.2-0.2-0.4-0.2-0.7
			v-1.4h-5.4V460.3z M618.9,456.3v-8.9c-0.1-0.1-0.2-0.2-0.4,0h-5v9H618.9z"/>
	</g>
	<g class="st0">
		<path class="st1" d="M605.5,496.5h-0.2c-0.1-0.1,0.4-0.8,1.4-1.7c3.8-4.4,6.1-8.2,6.8-11.4c0-0.1,0.1-0.2,0.2-0.1
			c1.1,0.3,2.2,0.8,3.2,1.3c0.4,0.2,0.5,0.5,0.5,0.8c-0.1,0.3-0.4,0.4-0.8,0.4c-0.1,0-0.3,0-0.3,0.2c-0.8,1.2-1.7,2.4-2.7,3.7v19.7
			c0,0.6-0.3,0.9-0.7,1.1c-0.8,0.3-1.5,0.3-2.3,0c-0.4-0.2-0.5-0.6-0.5-1.1v-16.1C608.6,494.5,607.1,495.6,605.5,496.5z
			 M611.4,476.8c0-0.1,0.1-0.2,0.2-0.1c1.2,0.3,2.2,0.7,3.2,1.2c0.4,0.2,0.6,0.5,0.5,0.7c-0.1,0.3-0.4,0.4-0.8,0.4l-0.3,0.2
			c-2.4,3.6-5.2,6.3-8.4,7.9h-0.3c0-0.1,0-0.2,0-0.3c2.6-2.6,4.5-5.8,5.7-9.5L611.4,476.8z M619.2,489.3l-2.1,0.3
			c-0.2,0.1-0.4,0.1-0.4-0.1l-0.4-1.3c0-0.2,0.1-0.2,0.4-0.1l2.4,0.3h12.6c0.3,0,0.5-0.1,0.6-0.3l1.8-2.3c0.2-0.2,0.4-0.3,0.7-0.1
			c1.3,0.8,2.3,1.7,3.2,2.9c0.2,0.2,0.2,0.3,0.1,0.5c-0.1,0.2-0.3,0.3-0.6,0.3h-6.5v16.8c0,1.1-0.1,1.9-0.5,2.5
			c-0.7,1.2-2.1,1.8-4.2,1.8c-0.3,0-0.4-0.1-0.4-0.3c-0.1-1.5-1-2.7-2.9-3.3c-0.2-0.1-0.3-0.2-0.3-0.4c0-0.2,0.1-0.3,0.3-0.2
			l3.6,0.1c0.6,0,0.9-0.3,0.9-0.9v-16.1H619.2z M621.3,479.7h8.2c0.3,0,0.5-0.1,0.6-0.3l1.9-2.3c0.2-0.2,0.4-0.2,0.6-0.1
			c1.3,0.8,2.3,1.8,3.2,2.9c0.2,0.2,0.2,0.4,0.1,0.5c-0.1,0.2-0.3,0.3-0.6,0.3h-14.1l-2.1,0.3c-0.2,0.1-0.3,0.1-0.4-0.1l-0.4-1.3
			c0-0.2,0.1-0.2,0.4-0.1L621.3,479.7z"/>
	</g>
	<g class="st0">
		<path class="st1" d="M609.4,542.2c0,0.6-0.2,1.2-0.5,1.4c-0.4,0.3-0.9,0.5-1.7,0.5c-0.4,0-0.8-0.1-1-0.3c-0.2-0.2-0.3-0.5-0.3-0.9
			v-21.7l0.1-0.3h0.3c1,0.3,2.1,0.6,3.3,1.3h1.2c0.3,0,0.5,0,0.7-0.2l0.9-1c0.2-0.3,0.5-0.4,0.7-0.3c1.4,0.5,2.4,1,3.1,1.5
			c0.8,0.6,0.6,1.1-0.3,1.5c-0.2,0.1-0.3,0.2-0.3,0.4v17.5c0,0.5-0.2,0.8-0.6,1.1c-0.4,0.3-0.9,0.4-1.6,0.4c-0.4,0-0.8-0.1-1-0.4
			c-0.1-0.2-0.2-0.4-0.2-0.7v-2.7h-2.7V542.2z M612.1,538.5v-15.2c-0.1-0.2-0.2-0.2-0.4-0.1h-2.3v15.3H612.1z M619,540.3l0.2,0.2
			c1.4,3.2,1.5,5.8,0.2,7.8c-0.4,0.5-0.8,0.9-1.4,1c-0.5,0.1-1,0-1.5-0.4c-0.9-0.8-0.6-2.1,0.9-3.5c0.9-1.2,1.4-2.8,1.5-4.8
			C618.9,540.4,618.9,540.4,619,540.3z M622,537c0,0.7-0.1,1.2-0.5,1.4c-0.4,0.3-1,0.5-1.7,0.5c-0.5,0-0.8-0.1-1-0.4
			c-0.2-0.2-0.3-0.5-0.3-0.8V518l0.1-0.3h0.3c1,0.3,2.2,0.7,3.5,1.4h9.9c0.2,0,0.4-0.1,0.5-0.3l1.8-2.1c0.2-0.2,0.4-0.2,0.6,0
			c1.2,0.7,2.1,1.6,2.9,2.7c0.2,0.2,0.2,0.4,0.1,0.5c-0.1,0.1-0.3,0.2-0.6,0.2h-7.5v4.4h1.1c0.3,0,0.5-0.1,0.6-0.2l1.7-2.1
			c0.2-0.2,0.4-0.2,0.6,0c1.1,0.7,2,1.5,2.7,2.6c0.2,0.2,0.2,0.4,0.1,0.5c-0.1,0.2-0.3,0.3-0.6,0.3h-6.2v4.5h0.9
			c0.3,0,0.5-0.1,0.6-0.3l1.7-2.1c0.2-0.2,0.4-0.2,0.6,0c1.1,0.7,1.9,1.5,2.7,2.6c0.2,0.2,0.2,0.3,0.1,0.5c-0.1,0.2-0.3,0.3-0.6,0.3
			h-6v4.4h3.3l0.4-0.2l1.1-1.1c0.1-0.1,0.3-0.1,0.4,0c1.8,0.9,2.8,1.6,2.9,2.1c0,0.3-0.1,0.4-0.5,0.5l-0.2,0.3l-0.3,4.9
			c-0.4,3.5-1.7,6.1-3.8,7.5c-0.9,0.5-1.8,0.7-2.7,0.7c0-1.3-0.9-2.3-2.7-3c-0.3,0-0.5-0.2-0.4-0.5s0.2-0.4,0.5-0.4
			c1.3,0.2,2.2,0.3,2.7,0.2c1-0.3,1.7-0.9,2.1-1.7c0.7-1.5,1-4.4,1-8.6h-11.6l-0.5,0.1V537z M621.7,539.9c0.1-0.1,0.2-0.1,0.3,0
			c1.9,1.9,2.9,3.9,2.8,5.7c0,0.6-0.3,1.1-0.8,1.5c-0.4,0.4-0.8,0.5-1.3,0.4c-1-0.2-1.3-1-0.9-2.3c0.6-1.9,0.5-3.5-0.1-4.9
			C621.6,540.1,621.6,540,621.7,539.9z M626.7,520H622v4.4h4.7V520z M626.7,525.4H622v4.5h4.7V525.4z M626.7,535.3v-4.4H622v4.4h0.5
			H626.7z M624.9,538.9l0.3-0.1c2.2,1,3.5,2.6,3.9,4.7c0.1,0.5,0,1.1-0.4,1.7c-0.3,0.4-0.7,0.7-1.2,0.7c-1.1-0.1-1.5-0.8-1.4-2.1
			c0.2-1.9-0.2-3.5-1.2-4.6C624.8,539.1,624.8,539,624.9,538.9z M628.5,538c0-0.1,0.1-0.1,0.3-0.1c2.1,0.5,3.3,1.5,3.8,3.1
			c0.2,0.5,0.1,1.1-0.1,1.6c-0.2,0.5-0.5,0.8-1.1,0.8c-1,0.1-1.6-0.5-1.6-1.8c0.1-1.3-0.3-2.5-1.2-3.4L628.5,538z"/>
	</g>
	<g class="st0">
		<path class="st1" d="M628.1,560.5c1.8,1.2,2.7,2.9,2.7,5c0,1.5-0.3,2.8-0.9,3.7c-0.6,1.2-1.8,2.3-3.3,3.3c-1.5,0.9-2.5,1.9-3,2.8
			c-0.6,1.3-0.9,2.9-0.9,5h-1.3c0-3,0.3-5.2,0.9-6.6c0.5-1.1,1.4-2.1,2.7-3c1.2-0.9,2-1.7,2.4-2.4c0.5-0.9,0.6-1.8,0.6-2.8
			c0-1.7-0.6-3-1.7-3.9c-1.3-1-2.8-1.5-4.3-1.5c-1.8,0-3.1,0.3-4.1,1s-1.5,1.1-1.5,1.4c0,0.5,0.5,0.9,1.6,1.3c1,0.4,1.5,1,1.5,2
			c0,0.7-0.3,1.3-0.8,1.8c-0.5,0.6-1.2,0.9-2.1,0.9c-0.7,0-1.4-0.3-2-0.8c-0.6-0.5-0.9-1.4-0.9-2.5c0-1.7,0.9-3.2,2.5-4.5
			c1.6-1.2,3.6-1.9,5.9-1.9C624.3,558.8,626.4,559.4,628.1,560.5z M624.3,582.6c0.5,0.5,0.8,1.2,0.8,2.1c0,0.8-0.3,1.5-0.8,2.1
			c-0.6,0.6-1.3,0.9-2.2,0.9c-0.9,0-1.7-0.3-2.2-0.9c-0.6-0.5-0.8-1.3-0.8-2.2c0-0.8,0.3-1.6,0.9-2.2c0.6-0.5,1.3-0.8,2.2-0.8
			C622.9,581.7,623.6,582,624.3,582.6z"/>
	</g>
</g>
</svg>
