<?xml version="1.0" encoding="utf-8"?>
<!-- Generator: Adobe Illustrator 22.1.0, SVG Export Plug-In . SVG Version: 6.00 Build 0)  -->
<svg version="1.1" id="圖層_1" xmlns="http://www.w3.org/2000/svg" xmlns:xlink="http://www.w3.org/1999/xlink" x="0px" y="0px"
	 viewBox="0 0 79 410" style="enable-background:new 0 0 79 410;" xml:space="preserve">
<style type="text/css">
	.st0{enable-background:new    ;}
	.st1{fill:#1EEE78;}
</style>
<g id="Group_1629" transform="translate(-188 -189)">
	<g class="st0">
		<path class="st1" d="M249.4,201c-0.3,0.3-0.6,0.4-0.9,0.4c-0.3,0-0.6-0.1-0.8-0.4c-0.2-0.2-0.2-0.5-0.2-0.9s0.3-0.6,0.6-0.8
			c0.4-0.2,0.6-0.5,0.9-0.9c0.2-0.3,0.4-0.9,0.5-1.5l0.1-0.1c0.1,0,0.1,0,0.1,0.1l0.3,1.2h6v-4.2c0,0,0-0.1,0.1-0.1
			c0.7,0,1.4,0.1,2,0.3c0.3,0.1,0.4,0.2,0.4,0.3c0,0.2-0.1,0.3-0.3,0.4c-0.1,0-0.2,0.1-0.2,0.2v3.1h2.1c0.4-1.2,0.7-2.3,0.8-3.3
			c0-0.1,0-0.2,0.1-0.2c0.6,0.1,1.2,0.2,1.8,0.3c0.3,0.1,0.5,0.2,0.5,0.4c0,0.2-0.1,0.3-0.4,0.3c-0.1,0-0.2,0.1-0.4,0.3
			c-0.5,0.8-1.1,1.6-1.8,2.2h2.3l0.3-0.2l0.7-0.5c0.1-0.1,0.2-0.1,0.3,0c0.7,0.3,1.3,0.7,1.8,1.1c0.1,0.1,0.2,0.3,0.1,0.4
			c-0.1,0.1-0.2,0.2-0.4,0.2l-0.3,0.1c-0.9,0.7-1.8,1.4-2.6,1.8c-0.1,0.1-0.2,0.1-0.3,0c0-0.1,0-0.1,0-0.3c0.3-0.7,0.6-1.5,0.8-2.2
			h-12.7l-0.7,0.1C250,199.7,249.8,200.5,249.4,201z M252.3,211.9c0,0.3-0.1,0.6-0.3,0.7c-0.3,0.2-0.6,0.2-0.9,0.3
			c-0.3,0-0.5-0.1-0.6-0.2c-0.1-0.1-0.1-0.2-0.1-0.5v-7c0-0.1,0-0.2,0.1-0.1c0.8,0.1,1.4,0.4,1.8,0.7h8.5c0.2,0,0.3,0,0.4-0.1
			l0.5-0.6c0.1-0.2,0.3-0.2,0.4-0.2c0.8,0.3,1.3,0.6,1.7,0.9c0.4,0.3,0.4,0.6-0.2,0.8c-0.1,0-0.2,0.1-0.2,0.2v5.3
			c0,0.3-0.1,0.5-0.4,0.6c-0.2,0.1-0.5,0.2-0.9,0.2c-0.2,0-0.4-0.1-0.6-0.2c-0.1-0.1-0.1-0.2-0.1-0.4v-0.5h-9.2V211.9z M251.3,194.5
			c0-0.1,0.1-0.1,0.2-0.1c1.2,0,2.1,0.4,2.6,1.3c0.2,0.3,0.2,0.7,0.1,1.1c-0.1,0.4-0.3,0.6-0.6,0.7c-0.8,0.2-1.2-0.1-1.3-1
			c-0.1-0.7-0.4-1.3-0.9-1.8C251.3,194.6,251.3,194.6,251.3,194.5z M254.1,204c0,0.3-0.1,0.5-0.3,0.7c-0.2,0.2-0.6,0.2-0.9,0.3
			c-0.2,0-0.4-0.1-0.6-0.2c-0.1-0.1-0.1-0.2-0.1-0.5v-4.4c0-0.1,0-0.2,0.1-0.2c0.7,0.2,1.4,0.4,1.8,0.7h5.2c0.1,0,0.2,0,0.2-0.1
			l0.5-0.5l0.2,0c0.6,0.2,1.2,0.5,1.7,0.9c0.4,0.3,0.3,0.5-0.2,0.7c-0.1,0.1-0.2,0.2-0.2,0.3v2.5c0,0.2-0.1,0.4-0.3,0.5
			c-0.2,0.1-0.5,0.2-0.9,0.2c-0.3,0-0.5-0.1-0.6-0.2c-0.1-0.1-0.1-0.3-0.1-0.5v-0.2L254.1,204L254.1,204z M256,206.3h-3.8v2.2h3.8
			V206.3z M256,211.3v-2.2h-3.8v2.2H256z M259.6,203.4v-2.5c-0.1-0.1-0.1-0.1-0.2,0h-5.3v2.5H259.6z M258,208.5h3.5v-2.2
			c-0.1-0.1-0.1-0.1-0.2-0.1H258V208.5z M261.5,211.3v-2.2H258v2.2H261.5z"/>
	</g>
	<g class="st0">
		<path class="st1" d="M257.4,227.2c-1.8,3.4-4.9,5.8-9.3,6.9c-0.1,0-0.2,0-0.2-0.1c0-0.1,0.1-0.3,0.5-0.4c4-2.3,6.4-4.7,7.3-7.2
			h-3.7l-1.1,0.2c-0.2,0.1-0.2,0.1-0.3,0l-0.2-0.7c0-0.1,0.1-0.1,0.2-0.1l1.3,0.1h3.5l0.2-0.1c0.1-0.2,0.3-0.3,0.6-0.5
			c0.1,0,0.1,0,0.2,0c0.4,0.3,0.8,0.6,1.2,1c0.2,0.2,0.3,0.3,0.2,0.5l-0.2,0.2c0.4,0.6,0.9,1.2,1.4,1.7c2,2,4.3,3.1,6.6,3.3
			c0.1,0,0.2,0,0.2,0.1c0,0.1,0,0.2-0.2,0.2c-0.4,0.2-0.7,0.4-1,0.8c-0.3,0.4-0.4,0.7-0.4,1c0,0.1-0.1,0.1-0.3,0.1l-0.2,0
			c-3-1-5.3-3.3-6.6-7L257.4,227.2z M255.6,238h-3.4l-1.1,0.2c-0.1,0.1-0.2,0-0.2-0.1l-0.2-0.7c0-0.1,0-0.1,0.2-0.1l1.3,0.1h3.4
			v-3.8h-2.5l-1.2,0.2c-0.1,0.1-0.2,0-0.2-0.1l-0.2-0.7c0-0.1,0-0.1,0.2-0.1l1.3,0.1h4.8c0.1,0,0.3-0.1,0.3-0.2l1-1.2
			c0.1-0.1,0.2-0.1,0.3,0c0.7,0.4,1.2,0.9,1.7,1.6c0.1,0.1,0.1,0.2,0.1,0.3c-0.1,0.1-0.2,0.1-0.3,0.1h-3.5v3.8h1.6
			c0.1,0,0.3-0.1,0.3-0.2l1-1.3c0.1-0.1,0.2-0.1,0.4,0c0.7,0.4,1.3,1,1.8,1.6c0.1,0.1,0.1,0.2,0.1,0.3c-0.1,0.1-0.2,0.1-0.3,0.1
			h-4.8v4.5h3.8c0.1,0,0.3-0.1,0.3-0.2l1-1.3c0.1-0.1,0.2-0.1,0.4,0c0.7,0.4,1.3,1,1.8,1.6c0.1,0.1,0.1,0.2,0.1,0.3
			c-0.1,0.1-0.2,0.1-0.3,0.1h-14.2l-1.1,0.2c-0.1,0.1-0.2,0-0.2-0.1l-0.2-0.7c0-0.1,0-0.1,0.2-0.1l1.3,0.1h5.3V238z"/>
	</g>
	<g class="st0">
		<path class="st1" d="M252.6,274c0,0.3-0.2,0.6-0.5,0.7c-0.4,0.2-0.8,0.1-1.2-0.1c-0.2-0.1-0.3-0.3-0.3-0.5v-11.5h-1.4l-1.2,0.2
			c-0.1,0.1-0.2,0-0.2-0.1l-0.2-0.7c0-0.1,0-0.1,0.2-0.1l1.4,0.1h1.4v-5.5v-0.2c0-0.1,0-0.1,0.1-0.1c0.6,0.1,1.2,0.1,1.9,0.3
			c0.3,0.1,0.5,0.2,0.5,0.4c0,0.2-0.1,0.3-0.4,0.4c-0.1,0-0.2,0.1-0.2,0.3v4.4h2.7v-5.7v-0.2c0-0.1,0-0.1,0.1-0.1
			c0.6,0.1,1.3,0.1,1.9,0.3c0.3,0.1,0.5,0.2,0.5,0.4c0,0.2-0.1,0.3-0.4,0.4c-0.1,0-0.2,0.1-0.2,0.3v4.7h2.8v-5.6v-0.2
			c0-0.1,0-0.1,0.1-0.1c0.6,0,1.2,0.1,1.9,0.3c0.3,0.1,0.5,0.2,0.5,0.4c0,0.2-0.1,0.3-0.4,0.4c-0.1,0-0.2,0.1-0.2,0.3v4.5h0.7
			c0.1,0,0.2,0,0.3-0.1l1-1.3c0.1-0.1,0.2-0.1,0.4,0c0.7,0.4,1.2,0.9,1.7,1.6c0.1,0.1,0.1,0.2,0.1,0.3c0,0.1-0.1,0.1-0.3,0.1H262
			v6.4c0,0.3-0.2,0.6-0.5,0.7c-0.4,0.2-0.8,0.1-1.2-0.1c-0.2-0.1-0.3-0.3-0.3-0.5v-0.3h-2.8v0.3c0,0.3-0.2,0.5-0.4,0.7
			c-0.4,0.2-0.8,0.1-1.2-0.1c-0.2-0.1-0.3-0.3-0.3-0.5v-6.5h-2.7v10.1h9.4c0.1,0,0.3-0.1,0.3-0.2l1-1.3c0.1-0.1,0.2-0.1,0.4,0
			c0.7,0.4,1.3,1,1.8,1.6c0.1,0.1,0.1,0.2,0.1,0.3c-0.1,0.1-0.2,0.1-0.3,0.1h-12.7V274z M260.1,268.3v-5.6h-2.8v5.6H260.1z"/>
	</g>
	<g class="st0">
		<path class="st1" d="M257.5,293.9L257.5,293.9c-0.8,1.3-1.8,2.4-3.1,3.4l0.6,0.1c0.3,0.1,0.4,0.2,0.4,0.3c0,0.1-0.1,0.3-0.4,0.3
			c-0.1,0-0.2,0.1-0.1,0.2c0,2.4-0.4,4.2-1.2,5.3c-1.1,1.3-2.8,2.1-5,2.3c-0.1,0-0.1,0-0.2-0.1c0-0.1,0-0.1,0.1-0.2
			c0.7-0.2,1.3-0.5,1.9-0.9c0.6-0.4,1.2-1,1.5-1.6c0.4-0.6,0.6-1.4,0.7-2.2l0.1-2.6c-1.6,0.9-3.1,1.5-4.6,1.7c-0.1,0-0.2,0-0.2-0.1
			s0-0.2,0.1-0.2c1.3-0.5,2.7-1.3,4.1-2.4c1.4-1.1,2.3-2.2,2.9-3.4h-3v0.5c0,0.3-0.1,0.5-0.3,0.7c-0.3,0.2-0.6,0.2-0.9,0.3
			c-0.3,0-0.5-0.1-0.6-0.2c-0.1-0.1-0.1-0.2-0.1-0.5v-7.3c0-0.1,0-0.2,0.1-0.2c0.8,0.2,1.5,0.5,2,0.8h8.3c0.2,0,0.3,0,0.4-0.1
			l0.5-0.6c0.1-0.1,0.3-0.2,0.4-0.1c0.7,0.3,1.3,0.6,1.7,0.9c0.4,0.3,0.4,0.6-0.2,0.8c-0.1,0-0.2,0.1-0.2,0.2v5.1
			c0,0.3-0.1,0.5-0.4,0.6c-0.2,0.1-0.5,0.2-0.9,0.2c-0.2,0-0.4-0.1-0.6-0.2c-0.1-0.1-0.1-0.2-0.1-0.4v-0.5H258
			c0.5,0.7,1.1,1.3,1.8,1.8c2,1.4,4.1,2.2,6.2,2.2c0.1,0,0.2,0,0.2,0.1c0,0.1,0,0.2-0.1,0.2c-0.4,0.2-0.7,0.5-0.9,0.9
			c-0.2,0.4-0.3,0.8-0.3,1c0,0.1-0.1,0.2-0.3,0.1c-1.1-0.2-2.3-0.8-3.6-1.7c-0.1,0-0.2,0.1-0.2,0.3v6.4c0,0.3-0.2,0.5-0.4,0.7
			c-0.4,0.2-0.8,0.1-1.2-0.1c-0.2-0.1-0.3-0.3-0.3-0.5v-7.6v-0.2c0-0.1,0-0.1,0.1-0.1l0.9,0.1C258.9,296.4,258.1,295.2,257.5,293.9z
			 M255.9,288.6h-3.6v2.2h3.6V288.6z M255.9,293.4v-2.1h-3.6v2.1H255.9z M257.8,290.8h3.6v-2.1c-0.1-0.1-0.1-0.1-0.2-0.1h-3.4V290.8
			z M261.4,293.4v-2.1h-3.6v2.1H261.4z"/>
	</g>
	<g class="st0">
		<path class="st1" d="M251.2,336.1c0,0.3-0.1,0.5-0.4,0.6c-0.4,0.2-0.8,0.2-1.3,0c-0.2-0.1-0.3-0.3-0.3-0.6v-7l-1.5,0.6
			c-0.1,0-0.2,0-0.2,0c0-0.1,0-0.1,0.1-0.2c1.8-1.1,3.4-2.6,4.9-4.3h-3.5l-1.3,0.2c-0.1,0-0.1,0-0.1-0.1l-0.2-0.7
			c0-0.1,0-0.1,0.2-0.1l1.4,0.1h1.8v-2.8h-1.3l-1.3,0.2c-0.1,0-0.1,0-0.2-0.1l-0.2-0.7c0-0.1,0-0.1,0.2-0.1l1.4,0.1h1.3v-3.5
			c0,0,0-0.1,0.1-0.1c0.7,0,1.4,0.1,2,0.3c0.3,0.1,0.4,0.2,0.4,0.3c0,0.2-0.1,0.3-0.3,0.4c-0.1,0-0.2,0.1-0.2,0.2v2.4h0.1
			c0.1,0,0.4-0.4,1-1.1c0.1-0.1,0.2-0.2,0.4-0.1c0.3,0.3,0.6,0.6,0.9,1.1c0.4-0.7,0.7-1.3,0.8-1.8c0-0.1,0.1-0.1,0.2,0
			c0.6,0.2,1.1,0.5,1.7,0.8c0.2,0.1,0.3,0.3,0.2,0.4c0,0.1-0.2,0.2-0.4,0.2c-0.1,0-0.2,0.1-0.3,0.2c-0.7,1.2-1.6,2.4-2.6,3.6h1.1
			c0.1,0,0.2,0,0.3-0.1l0.8-1.1c0.1-0.2,0.2-0.2,0.4-0.1c0.4,0.3,0.8,0.7,1.1,1.3c0.1,0.1,0.1,0.3,0.1,0.4c0,0.1-0.1,0.2-0.3,0.2
			h-3.9c-0.7,0.7-1.8,1.6-3.2,2.7v0.4h3c0.3,0.1,0.5,0,0.6-0.1l0.5-0.7c0.1-0.1,0.2-0.1,0.3-0.1c0.7,0.2,1.3,0.5,1.7,0.9
			c0.2,0.1,0.2,0.3,0.2,0.4c0,0.1-0.2,0.3-0.4,0.3c-0.1,0-0.2,0.1-0.2,0.2v6.5c0,0.3-0.1,0.5-0.4,0.7c-0.3,0.1-0.6,0.2-0.8,0.2
			c-0.2,0-0.4-0.1-0.5-0.2c-0.1-0.1-0.2-0.3-0.2-0.6v-1.1h-3.6V336.1z M254.9,331.3v-2.4c-0.1-0.1-0.2-0.1-0.3-0.1h-3.4v2.4H254.9z
			 M254.9,334.3v-2.5h-3.6v2.5H254.9z M254.9,321.8h-2.1v2.8h0.1l1.4-1.9L254.9,321.8z M263.1,319.2l0.2-0.1l0.5-0.5
			c0.1-0.1,0.2-0.1,0.2,0c0.5,0.2,1,0.5,1.5,0.8c0.2,0.1,0.2,0.2,0.2,0.4c0,0.1-0.1,0.2-0.3,0.3c-0.2,0.1-0.3,0.2-0.4,0.5
			c-1,2.4-1.7,4-2.1,4.8c0,0,0.2,0.3,0.5,0.6c1.9,1.8,2.8,3.7,2.7,5.7c-0.1,1.4-0.7,2.3-1.6,2.7c-0.4,0.2-0.9,0.3-1.4,0.2
			c-0.1,0-0.1-0.1-0.1-0.2c0-0.8-0.5-1.4-1.2-1.7c-0.1-0.1-0.1-0.2-0.1-0.3c0-0.1,0.1-0.1,0.2-0.1c0.4,0.1,0.8,0.1,1.2,0.1
			c0.4,0,0.7-0.1,0.8-0.3l0.2-0.4c0.3-1.4-0.1-3.1-1.2-4.9c-0.6-0.9-0.9-1.4-0.9-1.5c0.7-2.2,1.1-4.2,1.3-5.7h-2.1V336
			c0,0.4-0.1,0.6-0.3,0.8c-0.2,0.2-0.5,0.3-0.9,0.3c-0.3,0-0.4-0.1-0.6-0.2c-0.1-0.1-0.2-0.2-0.2-0.5v-17.8l0-0.1h0.2
			c0.5,0.1,1.1,0.4,1.8,0.7H263.1z"/>
	</g>
	<g class="st0">
		<path class="st1" d="M253.5,359.5c0,0.3-0.1,0.5-0.4,0.7c-0.4,0.1-0.8,0.1-1.1,0c-0.2-0.1-0.3-0.3-0.3-0.5v-3.6
			c-1.1,1.7-2.3,2.8-3.5,3.3c-0.1,0-0.2,0-0.3,0c0-0.1,0-0.2,0.1-0.2c1.4-1.3,2.5-3.3,3.3-6h-1.4l-1.2,0.2c-0.1,0.1-0.2,0-0.2-0.1
			l-0.2-0.7c0-0.1,0-0.1,0.2-0.1l1.3,0.1h1.8v-3v-0.2c0,0,0-0.1,0.1-0.1l1.9,0.2c0.3,0.1,0.5,0.2,0.5,0.4l-0.6,0.7v2h0.6
			c0.1,0,0.2,0,0.3-0.1l0.9-1c0.1-0.1,0.2-0.1,0.3,0c0.6,0.4,1,0.8,1.4,1.3c0.1,0.1,0.1,0.2,0.1,0.3c0,0.1-0.1,0.1-0.3,0.1h-3.2v1.1
			l0.3,0c1.2,0.2,2,0.7,2.5,1.5c0.2,0.3,0.2,0.6,0.2,1c-0.1,0.3-0.2,0.6-0.5,0.7c-0.6,0.2-1.1,0-1.3-0.8c-0.3-0.9-0.7-1.5-1.2-1.9
			V359.5z M250.8,361.7c0.1,0,0.1,0,0.1,0.1c0.2,0.9,0.1,1.8-0.1,2.7c-0.2,0.9-0.5,1.5-1,2c-0.3,0.3-0.5,0.4-0.9,0.4
			c-0.3,0-0.6-0.1-0.8-0.4c-0.1-0.1-0.2-0.3-0.2-0.4c-0.1-0.5,0.2-0.9,0.7-1.2c1-0.6,1.6-1.6,2-3.1
			C250.7,361.7,250.7,361.7,250.8,361.7z M252.6,361.5v-0.6c0-0.1,0-0.1,0.2-0.1c0.5,0,1.1,0.1,1.7,0.2c0.3,0.1,0.5,0.2,0.5,0.4
			l-0.5,0.6v3c0,0.1,0,0.2,0.1,0.4s0.3,0.2,0.5,0.3l0.2,0c2.8,0.1,4.7,0.1,5.7-0.2c0.2-0.2,0.5-0.8,0.7-1.9c0-0.1,0.1-0.2,0.2-0.2
			c0.1,0,0.1,0.1,0.2,0.2l0.1,1.1c0.1,0.3,0.2,0.6,0.4,0.7c0.3,0.2,0.5,0.4,0.5,0.8c0,0.4-0.2,0.6-0.7,0.8c-0.5,0.2-1.2,0.4-1.9,0.4
			l-3,0.1c-1.7,0-2.9-0.1-3.6-0.4c-0.5-0.2-0.9-0.5-1.1-0.8c-0.1-0.3-0.2-0.6-0.2-0.9L252.6,361.5L252.6,361.5z M255.8,360.5
			c0-0.1,0.1-0.1,0.2-0.1c1.8,0.4,3,1.1,3.5,2.1c0.2,0.3,0.2,0.7,0.1,1.1c-0.1,0.4-0.3,0.6-0.6,0.7c-0.7,0.2-1.2-0.1-1.3-1
			c-0.3-1.2-0.9-2.1-1.8-2.7C255.9,360.7,255.8,360.6,255.8,360.5z M259.4,359.5c0,0.4-0.1,0.6-0.3,0.7c-0.2,0.2-0.5,0.3-0.9,0.3
			c-0.2,0-0.4-0.1-0.5-0.2c-0.1-0.1-0.2-0.3-0.1-0.5V350v-0.1h0.2c0.5,0.1,1.1,0.3,1.7,0.7h2.8c0.2,0,0.3,0,0.4-0.1l0.5-0.6
			c0.1-0.1,0.3-0.2,0.4-0.1c0.7,0.3,1.3,0.5,1.6,0.8c0.4,0.3,0.3,0.5-0.2,0.8c-0.1,0.1-0.2,0.1-0.2,0.2v8.3c0,0.3-0.1,0.4-0.3,0.6
			c-0.2,0.1-0.5,0.2-0.9,0.2c-0.3,0-0.4-0.1-0.6-0.2c-0.1-0.1-0.1-0.2-0.1-0.4v-0.9h-3.5V359.5z M262.9,353.2v-2.1
			c-0.1-0.1-0.1-0.1-0.2,0h-3.3v2.2H262.9z M262.9,356v-2.2h-3.5v2.2H262.9z M262.9,358.5v-2h-3.5v2H262.9z M262,361.5
			c0-0.1,0.1-0.1,0.2,0h0.1c2,0.8,3.2,2,3.6,3.5c0.1,0.4,0.1,0.7,0,1.1c-0.1,0.3-0.4,0.6-0.7,0.6c-0.7,0.1-1.1-0.3-1.2-1.2
			c-0.2-1.6-0.8-2.9-1.9-3.7C262,361.7,262,361.6,262,361.5z"/>
	</g>
	<g class="st0">
		<path class="st1" d="M247.5,385.1c0-0.1,0.1-0.1,0.2-0.1c1.3,0.3,2.2,1,2.6,1.9c0.1,0.4,0.1,0.7-0.1,1.1c-0.1,0.3-0.4,0.6-0.7,0.6
			c-0.7,0.1-1.1-0.3-1.2-1.2c0-0.9-0.2-1.6-0.8-2.1C247.4,385.3,247.4,385.2,247.5,385.1z M252.4,385.2c0.1,0,0.1,0.1,0.1,0.3
			l-2.3,7.3c-0.1,0.7,0,1.6,0.4,2.5c0.4,0.9,0.5,1.7,0.3,2.4c-0.1,0.5-0.4,0.7-0.8,0.8c-0.4,0.1-0.7,0-0.9-0.3
			c-0.4-0.5-0.5-1.1-0.4-2.1c0.1-0.8,0.1-1.6-0.1-2.3c-0.1-0.4-0.5-0.7-1.1-1c-0.1-0.1-0.1-0.1-0.1-0.2c0-0.1,0.1-0.1,0.2-0.1
			l0.8,0.1c0.2,0,0.3-0.1,0.4-0.2l3.3-7.2C252.3,385.2,252.4,385.1,252.4,385.2z M248.8,380.5c0-0.1,0.1-0.1,0.2-0.1h0.6
			c1,0.1,1.8,0.5,2.4,1.1c0.2,0.3,0.3,0.7,0.2,1.1c0,0.4-0.2,0.6-0.5,0.8c-0.7,0.3-1.2,0-1.4-0.9c-0.2-0.8-0.7-1.4-1.3-1.8
			C248.8,380.6,248.8,380.6,248.8,380.5z M259.8,384.6h-5v2.5c0,2-0.1,3.8-0.4,5.5c-0.4,2.7-1.4,4.7-3,6c-0.1,0.1-0.2,0.1-0.2,0
			c0,0,0.1-0.3,0.3-0.9c0.9-2.1,1.4-5.6,1.4-10.6v-3.7c0-0.1,0-0.2,0.1-0.2c0.5,0.2,1.2,0.5,1.9,0.8h4.8l-0.1-2.7l-0.1-1.1
			c0-0.1,0.1-0.2,0.2-0.2c0.8,0,1.4,0.1,1.8,0.1c0.3,0.1,0.4,0.2,0.4,0.3c0,0.1-0.1,0.3-0.3,0.4c-0.2,0.1-0.3,1.2-0.1,3.1h2
			c0.1,0,0.2,0,0.3-0.1l0.7-1c0.1-0.2,0.2-0.2,0.4-0.1c0.4,0.3,0.7,0.7,1,1.2c0.1,0.1,0.2,0.3,0.1,0.4c0,0.1-0.1,0.2-0.3,0.2h-4.1
			c0.1,2.2,0.4,4.2,0.8,6.1c0.5-1.3,0.9-2.5,1-3.5c0-0.1,0.1-0.2,0.2-0.1c0.7,0.1,1.4,0.4,2,0.7c0.2,0.1,0.3,0.3,0.3,0.4
			c0,0.1-0.2,0.2-0.4,0.2c-0.1,0-0.2,0.1-0.3,0.2c-0.6,1.5-1.3,3.1-2.2,4.6c0.3,0.7,0.6,1.3,1,2c0.1,0.3,0.3,0.4,0.4,0.4l0.2-0.1
			l0.8-1.1c0.1-0.2,0.2-0.3,0.4-0.2c0.1,0,0.2,0.2,0.1,0.4c-0.3,1.3-0.3,2.3-0.1,2.8c0.2,0.5,0.2,0.9,0.1,1.1
			c-0.1,0.2-0.4,0.3-0.6,0.4c-0.3,0-0.7-0.2-1.1-0.5c-0.9-0.7-1.8-1.9-2.4-3.5c-2,2-4.1,3.2-6.5,3.8c-0.1,0-0.1,0-0.2-0.1l0.1-0.1
			c2.2-1.1,4.2-2.9,6-5.3C260.5,391,260,388.1,259.8,384.6z M256.8,386.9h0.3c0.1,0,0.2,0,0.2-0.1l0.7-0.9c0.1-0.1,0.2-0.2,0.3-0.1
			c0.3,0.2,0.6,0.6,0.8,1c0.1,0.1,0.2,0.3,0.1,0.4c0,0.1-0.1,0.2-0.3,0.2h-2.3l-1.3,0.2c-0.1,0-0.1,0-0.2-0.1l-0.1-0.7
			c0-0.1,0-0.1,0.2-0.1L256.8,386.9z M256.9,394.6c0,0.3-0.1,0.5-0.3,0.6c-0.2,0.1-0.5,0.2-0.8,0.2c-0.2,0-0.4-0.1-0.5-0.1
			c-0.1-0.1-0.1-0.2-0.1-0.4v-5.9c0-0.1,0-0.1,0.1-0.1c0.5,0.1,1,0.3,1.5,0.5h0.6l0.2-0.1c0.3-0.3,0.5-0.4,0.6-0.4
			c0.5,0.2,1,0.4,1.4,0.7l0.2,0.2l-0.4,0.7v3.4c0,0.2-0.1,0.4-0.3,0.5c-0.2,0.1-0.4,0.2-0.8,0.2c-0.2,0-0.4-0.1-0.5-0.2
			c-0.1-0.1-0.1-0.3-0.1-0.5v-0.3h-0.9V394.6z M257.8,393v-3.1c-0.1-0.1-0.1-0.1-0.2,0h-0.7v3.1H257.8z M262.1,380.2l0.1-0.1
			c0.6,0,1.1,0.1,1.6,0.3c0.5,0.2,0.8,0.5,1,0.9c0.1,0.2,0.2,0.5,0.1,0.8s-0.3,0.5-0.5,0.5c-0.6,0.1-1-0.2-1.1-0.8
			c-0.2-0.6-0.6-1.1-1.1-1.5L262.1,380.2z"/>
	</g>
	<g class="st0">
		<path class="st1" d="M250.7,428.7c0,0.3-0.2,0.5-0.4,0.6c-0.4,0.2-0.8,0.1-1.1-0.1c-0.2-0.1-0.3-0.3-0.3-0.6v-8.1
			c-0.4,0.5-0.8,0.9-1.2,1.3c-0.1,0.1-0.2,0.1-0.3,0c-0.1-0.1,0-0.2,0-0.3c1.3-1.9,2.1-4.6,2.4-8.3h-0.5l-1.3,0.2
			c-0.1,0-0.1,0-0.2-0.1l-0.1-0.7c0-0.1,0-0.1,0.2-0.1l1.4,0.1h2.7c0.1,0,0.2,0,0.3-0.1l0.8-1.1c0.1-0.2,0.2-0.2,0.4-0.1
			c0.4,0.3,0.8,0.7,1.1,1.3c0.1,0.1,0.1,0.3,0.1,0.4c0,0.1-0.1,0.2-0.3,0.2h-2.7c-0.3,2.1-0.8,3.8-1.5,5.3l-0.2,0.3h1.4
			c0.1,0,0.2,0,0.2-0.1l0.5-0.5h0.2c0.6,0.2,1.1,0.5,1.6,0.9c0.4,0.3,0.3,0.5-0.1,0.7c-0.1,0-0.2,0.1-0.2,0.3v7.4
			c0,0.2-0.1,0.4-0.3,0.5c-0.2,0.1-0.5,0.2-0.9,0.2c-0.3,0-0.4-0.1-0.5-0.2c-0.1-0.1-0.1-0.3-0.1-0.5v-1.1h-1V428.7z M251.7,425.9
			v-6.4c-0.1-0.1-0.1-0.1-0.2-0.1h-0.7v6.5H251.7z M254.8,419.1c-0.1,0.1-0.2,0-0.2-0.1l-0.2-0.7c0-0.1,0-0.1,0.2-0.1l1.1,0.1v-1.2
			c0-0.1,0-0.1,0.1-0.1c0.6,0,1.2,0.1,1.8,0.2c0.3,0.1,0.4,0.2,0.4,0.3l-0.5,0.5v0.4h5.7c0.1,0,0.3-0.1,0.3-0.2l1-1.2
			c0.1-0.1,0.2-0.1,0.3,0c0.6,0.4,1.2,0.9,1.6,1.5c0.1,0.1,0.1,0.2,0.1,0.3c-0.1,0.1-0.2,0.1-0.3,0.1h-8.7l-0.2,2.2
			c-0.4,4.2-1.8,7.2-4.1,8.7c-0.1,0-0.1,0-0.2,0l0.1-0.2c0.5-0.6,0.9-1.4,1.3-2.3c0.8-1.9,1.2-4.8,1.3-8.4L254.8,419.1z
			 M257.3,415.9L257.3,415.9c0,0.3-0.1,0.5-0.4,0.6c-0.4,0.2-0.8,0.2-1.2,0c-0.2-0.1-0.4-0.3-0.3-0.6v-4c0-0.1,0-0.1,0.1-0.1
			l1.8,0.3c0.3,0.1,0.5,0.2,0.5,0.4l-0.5,0.6v2.3h2v-4.2c0,0,0-0.1,0.1-0.1c0.7,0,1.3,0.1,1.9,0.2c0.3,0.1,0.4,0.2,0.4,0.3
			c0,0.2-0.1,0.3-0.3,0.3c-0.1,0-0.2,0.1-0.2,0.2v3.2h2.1V412c0-0.1,0-0.1,0.1-0.1l1.8,0.3c0.3,0.1,0.5,0.2,0.5,0.4l-0.5,0.6v2.9
			c0,0.3-0.1,0.5-0.4,0.6c-0.4,0.2-0.8,0.2-1.2,0c-0.2-0.1-0.4-0.3-0.4-0.6v-0.1H257.3z M263.7,425.4c0.9,1.3,1.7,2.1,2.6,2.5
			c0.1,0,0.2,0.1,0.2,0.1s-0.1,0.1-0.2,0.1c-0.7,0.2-1.2,0.8-1.5,1.5c-0.1,0.1-0.1,0.2-0.3,0c-1.5-1.5-2.4-3.7-2.6-6.5
			c-0.5,2.6-1.4,4.4-2.7,5.5c-1,0.7-2.1,1.1-3.1,1.3c-0.1,0-0.1,0-0.2-0.1c0-0.1,0-0.1,0.1-0.2c0.8-0.3,1.6-0.9,2.4-1.7
			c1.3-1.6,2-4.4,2-8.3c0-0.1,0-0.1,0.1-0.1c0.6,0,1.2,0.1,1.7,0.2c0.3,0.1,0.4,0.2,0.4,0.3c0,0.1-0.1,0.2-0.4,0.3l-0.1,0.2
			c-0.1,1.3,0.2,2.8,0.9,4.2c0.6-1.2,0.9-2.3,0.9-3.4c0,0,0-0.1,0.1-0.1c0.6,0,1.2,0.1,1.8,0.3c0.2,0.1,0.3,0.2,0.3,0.3
			c0,0.1-0.1,0.2-0.3,0.3l-0.1,0.1c-0.6,1.1-1.4,2.1-2.4,2.9L263.7,425.4z M259.3,421.1c0.1,0,0.1,0,0.1,0.1c0.4,1.7,0.1,3.1-0.7,4
			c-0.2,0.2-0.5,0.3-0.8,0.3c-0.3,0-0.5-0.1-0.7-0.3l-0.1-0.2c-0.2-0.5,0-1,0.6-1.3c0.8-0.5,1.3-1.4,1.6-2.6
			C259.2,421.2,259.2,421.1,259.3,421.1z"/>
	</g>
	<g class="st0">
		<path class="st1" d="M195.5,205.6h-2.7l-2.1,0.3c-0.2,0.1-0.4,0.1-0.4-0.1l-0.4-1.3c0-0.1,0.1-0.2,0.4-0.1l2.4,0.3h2.7v-6.1
			c-1.8,2.6-3.6,4.4-5.5,5.4c-0.3,0.1-0.4,0.1-0.5,0c0-0.1,0-0.3,0.1-0.4c2.8-2.8,4.7-7.1,5.7-12.8c0-0.3,0.2-0.3,0.4-0.3
			c1.4,0.3,2.7,0.8,3.7,1.4c0.3,0.2,0.5,0.4,0.4,0.6c-0.1,0.3-0.4,0.5-0.9,0.5c-0.2,0-0.4,0.2-0.5,0.5l-1,1.8h16.2
			c0.3,0,0.5-0.1,0.6-0.3l1.8-2.3c0.2-0.2,0.4-0.2,0.6-0.1c1.2,0.8,2.2,1.7,3,2.8c0.2,0.2,0.2,0.4,0.1,0.5c-0.1,0.2-0.3,0.3-0.6,0.3
			h-4v8.3h1c0.3,0,0.4-0.1,0.5-0.3l1.7-2.1c0.2-0.2,0.4-0.2,0.6,0c1.1,0.6,2,1.5,2.7,2.6c0.2,0.2,0.2,0.4,0.1,0.5
			c-0.1,0.2-0.3,0.3-0.6,0.3h-6.1v8h1.4c0.3,0,0.5-0.1,0.6-0.3l1.7-2.1c0.2-0.2,0.4-0.2,0.6,0c1.1,0.6,1.9,1.5,2.7,2.6
			c0.2,0.2,0.2,0.4,0.1,0.5c-0.1,0.2-0.3,0.3-0.6,0.3h-29.3l-2.1,0.3c-0.2,0.1-0.4,0.1-0.4-0.1l-0.4-1.3c0-0.1,0.1-0.2,0.4-0.1
			l2.4,0.3h3.1V205.6z M196,216c0.1,0,0.2,0.1,0.2,0.3c0.2,1.5,0,3-0.4,4.4c-0.4,1.4-1,2.4-1.9,3.2c-0.5,0.4-1.1,0.5-1.7,0.5
			c-0.6-0.1-1.1-0.4-1.4-0.8l-0.1-0.4c-0.3-1.2,0.2-2.1,1.4-2.5c1.6-0.8,2.9-2.3,3.7-4.4C195.9,216,196,215.9,196,216z M201,196.3
			h-2.2v8.3h2.2V196.3z M201,213.6v-8h-2.2v8H201z M199.4,216c0.1-0.1,0.2-0.1,0.4,0l0.1,0.1c2.5,1.5,3.9,3.3,4.2,5.3
			c0.1,0.7-0.1,1.3-0.5,2c-0.4,0.6-0.8,0.8-1.5,0.8c-1.3-0.1-1.8-0.9-1.6-2.5c0.2-2.1-0.2-3.8-1.2-5.2
			C199.4,216.3,199.4,216.2,199.4,216z M206.4,196.3h-2.1v8.3h2.1V196.3z M206.4,213.6v-8h-2.1v8H206.4z M206.4,216.2
			c0.1-0.1,0.2-0.1,0.4-0.1c2.8,1.1,4.6,2.8,5.2,5.1c0.1,0.7,0.1,1.3-0.3,2c-0.3,0.6-0.8,0.9-1.3,1c-1.4,0.1-2-0.7-1.9-2.3
			c0-2.3-0.7-4-2-5.3C206.3,216.4,206.3,216.3,206.4,216.2z M211.8,196.3h-2v8.3h2V196.3z M211.8,213.6v-8h-2v8H211.8z M212.3,216.4
			c0-0.1,0.1-0.2,0.4-0.2c0.7,0.1,1.5,0.3,2.3,0.6c2.2,0.9,3.8,2.2,4.6,3.9c0.3,0.6,0.4,1.3,0.2,2.1c-0.2,0.7-0.5,1.1-1.2,1.3
			c-1.3,0.5-2.2-0.2-2.5-1.9c-0.6-2.6-1.8-4.4-3.7-5.5C212.4,216.6,212.3,216.5,212.3,216.4z"/>
	</g>
	<g class="st0">
		<path class="st1" d="M190.8,238.5c0.1-0.1,0.2,0,0.3,0.1l0.9,1.7c1,2.3,1.3,4.4,0.6,6.3c-0.2,0.7-0.6,1.2-1.3,1.5
			c-0.5,0.4-1.1,0.4-1.7,0.1c-1.2-0.6-1.3-1.7-0.3-3c1.3-2.2,1.8-4.3,1.3-6.3C190.6,238.7,190.6,238.6,190.8,238.5z M196.1,254.4
			c-1.4,5.4-3.6,8.7-6.6,9.7c-0.2,0.1-0.3,0-0.3-0.1l0.1-0.3c1.8-2.3,3.2-5.8,4-10.7c0.6-3.8,1-11.3,1-22.4c0-0.1,0.1-0.2,0.2-0.2
			l3.3,0.4c0.5,0.1,0.8,0.3,0.8,0.5s-0.2,0.5-0.6,0.6c-0.2,0-0.3,0.1-0.3,0.3c0,3.7-0.1,7.2-0.3,10.6c1-1.5,1.7-3.2,2.1-5
			c0-0.1,0.1-0.2,0.2-0.1c1.1,0.3,2.1,0.7,3.1,1.2c0.4,0.2,0.5,0.5,0.5,0.7c-0.1,0.2-0.3,0.3-0.8,0.3c-0.1,0-0.2,0-0.3,0.2
			c-1.4,1.7-3.1,3-4.9,4c-0.2,3.2-0.5,6.2-0.9,8.8c2.5,0.6,4.2,1.9,5.1,4c0.3,0.6,0.3,1.3,0.1,2c-0.1,0.6-0.5,1-1.2,1.2
			c-1.3,0.3-2.1-0.4-2.3-2c-0.3-1.8-1-3.2-2-4.1L196.1,254.4z M212.2,263.2c0,0.6-0.3,0.9-0.8,1.2c-0.7,0.3-1.4,0.3-2.1-0.1
			c-0.4-0.2-0.5-0.6-0.5-1.1v-6.3c-2.9,3.4-6.3,5.6-10.3,6.7c-0.2,0.1-0.4,0-0.4-0.1c-0.1-0.2,0.3-0.5,0.9-0.8
			c4.6-3.1,7.6-6.8,9-11.1h-5.6l-2.1,0.3c-0.2,0.1-0.3,0.1-0.4-0.1l-0.4-1.3c0-0.1,0.1-0.2,0.4-0.1l2.4,0.2h6.4v-4.2H207v1
			c0,0.5-0.2,0.9-0.7,1.1c-0.7,0.3-1.4,0.3-2.2,0c-0.4-0.2-0.6-0.6-0.6-1v-11.1h-1.6l-2.1,0.3c-0.2,0.1-0.4,0.1-0.4-0.1l-0.4-1.3
			c0-0.2,0.1-0.2,0.4-0.1l2.4,0.2h1.6v-4.9c0-0.1,0.1-0.2,0.3-0.2l3.2,0.5c0.6,0.1,0.9,0.3,0.9,0.6l-0.9,1.1v2.9h6.9v-4.9
			c0-0.1,0.1-0.2,0.3-0.2l3.2,0.5c0.6,0.1,0.9,0.3,0.9,0.6l-0.9,1.1v2.9l0.3-0.2l1.7-2.1c0.1-0.2,0.3-0.2,0.6,0
			c1.1,0.7,2,1.5,2.7,2.6c0.2,0.2,0.2,0.4,0.1,0.5c-0.1,0.2-0.3,0.3-0.6,0.3h-4.8v10.9c0,0.5-0.2,0.9-0.7,1.1
			c-0.7,0.3-1.4,0.3-2.2,0c-0.4-0.2-0.6-0.6-0.6-1v-1h-1.7v4.2h4.9c0.3,0,0.5-0.1,0.6-0.2l1.7-2.1c0.1-0.2,0.3-0.2,0.6,0
			c1.1,0.7,2,1.5,2.7,2.6c0.2,0.2,0.2,0.4,0.1,0.5c-0.1,0.2-0.3,0.3-0.6,0.3h-9.8c0.8,1.8,2,3.4,3.8,5c2,1.7,4.2,2.9,6.4,3.5
			c0.2,0,0.3,0.1,0.3,0.3c0,0.1-0.1,0.2-0.3,0.3c-0.6,0.1-1.3,0.4-1.7,1c-0.5,0.5-0.8,1-0.9,1.5c-0.1,0.3-0.3,0.3-0.6,0.1
			c-3.3-1.9-5.8-5.2-7.3-10V263.2z M213.9,240.6v-4.2H207v4.2H213.9z M213.9,245.3v-3.9H207v3.9H213.9z"/>
	</g>
	<g class="st0">
		<path class="st1" d="M222.6,297.9c0.2,0,0.3,0.1,0.2,0.3c0,0.1-0.1,0.2-0.3,0.2c-1.4,0.2-2.3,1-3,2.6c-0.1,0.3-0.3,0.4-0.5,0.3
			c-3.6-2.3-6.3-5.7-8.1-9.9c-1.5-3.3-2.3-6.7-2.4-10h-2.1c-0.7,1-1.6,2-2.6,3c2.7,1.5,4.5,3.5,5.3,5.6c0.3,0.9,0.6,1.8,0.7,2.8
			c0.3,3.7-0.1,6.6-1.1,8.5c-0.9,1.7-2.7,2.6-5.2,2.6c-0.3,0-0.4-0.1-0.4-0.3c0-0.9-0.3-1.6-1-2.2c-0.6-0.5-1.1-0.8-1.7-1.1
			c-0.3-0.1-0.3-0.3-0.3-0.4c0.1-0.2,0.2-0.3,0.4-0.3c2.6,0.4,4.2,0.1,5-0.8c0.4-0.6,0.8-2.1,0.8-4.1c-4.6,3.5-9.9,5.9-16.1,7
			c-0.2,0-0.3,0-0.4-0.2c0-0.2,0-0.3,0.2-0.4c6.8-2.6,12.3-6.2,16.2-10.8l-0.4-1.6c-3.9,3.7-9,6.2-15.3,7.5c-0.2,0-0.4,0-0.4-0.2
			c0-0.2,0-0.3,0.2-0.4c5.7-2.4,10.3-5.7,13.7-9.8l-1.2-1c-3.7,2.7-8.1,4.6-13,5.4c-0.2,0.1-0.4,0-0.4-0.1c0-0.1,0-0.3,0.2-0.4
			c2.4-0.8,4.9-1.9,7.5-3.5c2.5-1.5,4.2-3.2,5.3-4.9h-4.8l-2.1,0.3c-0.2,0.1-0.3,0.1-0.4-0.1l-0.4-1.3c0-0.2,0.1-0.2,0.4-0.1
			l2.4,0.3h11.7c0.3,0,0.5-0.1,0.6-0.3l1.8-2.1c0.2-0.2,0.3-0.2,0.6,0c1.1,0.6,2.1,1.6,2.9,2.7l2.2-4.3h-21.8l-1.8,0.1
			c0.1,2.2-0.2,3.9-1.1,5c-0.4,0.5-0.9,0.8-1.5,0.9c-0.6,0-1.1-0.2-1.5-0.6c-0.3-0.4-0.4-0.9-0.3-1.5c0.1-0.6,0.4-1.2,1-1.5
			c1.3-1,2.2-2.7,2.4-4.9l0.1-0.2c0.1,0,0.2,0,0.3,0.2l0.4,1.5l1.9,0.1h8.5v-5.1c0-0.1,0-0.1,0.2-0.1c1.3,0,2.4,0.2,3.6,0.5
			c0.5,0.1,0.7,0.3,0.7,0.5c0,0.3-0.2,0.5-0.6,0.6c-0.3,0.1-0.4,0.2-0.4,0.4v3.1h9l0.5-0.3l1.2-0.9c0.2-0.1,0.4-0.1,0.5,0
			c1.2,0.6,2.2,1.3,3.2,2.1c0.3,0.3,0.3,0.4,0.2,0.6c-0.1,0.2-0.4,0.3-0.8,0.3l-0.5,0.1c-2.1,1.7-4.1,3.1-5.8,4.3h-0.5l-0.1-0.3
			h-5.6c0.6,2.7,1.5,5.1,2.8,7.1c1.1-1,2.4-2.7,3.9-5.1c0.1-0.1,0.2-0.1,0.3-0.1c0.9,0.6,1.9,1.3,2.7,2.2c0.3,0.3,0.4,0.6,0.3,0.8
			c-0.1,0.2-0.4,0.3-0.9,0.2h-0.4c-1.5,1.2-3.4,2.2-5.4,2.8C215.2,293.9,218.7,296.8,222.6,297.9z"/>
	</g>
	<g class="st0">
		<path class="st1" d="M194.5,342.5c0,0.7-0.2,1.2-0.5,1.4c-0.4,0.3-0.9,0.5-1.7,0.5c-0.5,0-0.8-0.1-1-0.4c-0.2-0.1-0.3-0.4-0.3-0.8
			v-31.7l0.1-0.3h0.3c1.1,0.3,2.3,0.8,3.6,1.4h20.6c0.3,0,0.5,0,0.7-0.2l0.9-1c0.2-0.3,0.5-0.4,0.8-0.3c1.3,0.5,2.3,1,3.1,1.5
			c0.7,0.6,0.6,1.1-0.4,1.5c-0.2,0.1-0.3,0.2-0.3,0.4V343c0,0.5-0.2,0.9-0.6,1.1c-0.4,0.3-0.9,0.4-1.6,0.4c-0.4,0-0.8-0.1-1-0.4
			c-0.1-0.2-0.2-0.4-0.2-0.7v-1.7h-22.4V342.5z M216.9,340.8v-27c-0.1-0.2-0.2-0.2-0.4-0.1h-22v27.1H216.9z M212,330.8h0.2
			c0.8,0.4,1.5,0.9,2.3,1.5c0.3,0.3,0.5,0.6,0.4,0.8c-0.1,0.2-0.4,0.2-0.7,0.1l-0.4,0.1l-2.2,1l-0.6,0.2c1.5,0.5,2.7,1.2,3.5,1.9
			c0.3,0.4,0.4,0.8,0.4,1.4c0,0.5-0.2,0.9-0.5,1.3c-0.4,0.3-0.8,0.4-1.3,0.4s-0.9-0.4-1.3-1c-1-1.4-3-3-5.8-4.5v5
			c0,0.5-0.2,0.8-0.6,1c-0.7,0.3-1.3,0.3-2.1,0c-0.3-0.2-0.5-0.6-0.4-1v-4.5c-2.3,1.8-4.6,2.9-7.1,3.4c-0.2,0-0.3,0-0.3-0.1
			c0-0.1,0-0.2,0.1-0.3c3.9-2.1,6.6-4.8,7.9-8.3h-1.8v0.4c0,0.5-0.2,0.9-0.5,1.1c-0.4,0.3-0.9,0.4-1.5,0.4c-0.4,0-0.8-0.1-1-0.3
			c-0.2-0.1-0.2-0.4-0.2-0.8v-6.8c0-0.2,0-0.3,0.1-0.3c1,0.2,2,0.5,2.9,1.1h7.5l0.3-0.2l0.9-0.9h0.3c1,0.4,1.9,0.9,2.8,1.5l0.3,0.4
			c0.1,0.1-0.2,0.5-0.8,1.3v3.1c0,0.4-0.2,0.7-0.5,0.9c-0.3,0.2-0.9,0.3-1.5,0.4c-0.4,0-0.8-0.1-0.9-0.3c-0.2-0.2-0.3-0.5-0.2-0.9
			v-0.1h-2.4L206,331v2.2c1.2,0.1,2.4,0.5,3.5,0.9C210.8,332.8,211.7,331.7,212,330.8z M203.9,318.4H200l-2.1,0.3
			c-0.2,0.1-0.4,0.1-0.4-0.1l-0.4-1.3c0-0.2,0.1-0.2,0.4-0.1l2.4,0.3h3.9v-3c0-0.1,0-0.1,0.2-0.1c1.2,0,2.4,0.2,3.5,0.5
			c0.4,0.1,0.6,0.3,0.6,0.5c0,0.3-0.2,0.5-0.6,0.6c-0.2,0.1-0.4,0.2-0.3,0.4v1.1h2.3c0.2,0,0.4-0.1,0.5-0.2l1.5-1.7
			c0.1-0.1,0.3-0.1,0.5,0c0.8,0.6,1.5,1.3,2.1,2.2c0.2,0.2,0.2,0.4,0.1,0.5c-0.1,0.2-0.3,0.2-0.6,0.2h-6.4v2.7h3.7
			c0.2,0,0.4-0.1,0.5-0.2l1.5-1.7c0.1-0.1,0.3-0.1,0.5,0c0.8,0.6,1.5,1.3,2.1,2.2c0.2,0.1,0.2,0.3,0.1,0.5c-0.1,0.2-0.3,0.3-0.6,0.3
			h-16.5l-2.1,0.3c-0.2,0.1-0.4,0.1-0.4-0.1l-0.4-1.3c0-0.2,0.1-0.2,0.4-0.1l2.4,0.3h5.3V318.4z M209.6,328.3v-3.2
			c-0.1-0.2-0.2-0.2-0.4-0.1h-6.8l-0.7,0.1v3.2H209.6z"/>
	</g>
	<g class="st0">
		<path class="st1" d="M201.5,377.2c0.9,0.5,1.8,1.1,2.6,1.8c0.4,0.3,0.5,0.6,0.5,0.8c-0.2,0.3-0.4,0.3-0.8,0.2
			c-0.2,0-0.5,0-0.8,0.2c-3.5,2.1-7.6,3.4-12.3,3.8c-0.3,0-0.4-0.1-0.4-0.1c0-0.1,0.3-0.4,1-0.5c4.3-1.4,7.6-3.5,9.8-6
			C201.2,377.1,201.4,377.1,201.5,377.2z M195.7,377.1c0,0.5-0.2,0.9-0.8,1.2c-0.7,0.3-1.4,0.2-2.1-0.1c-0.4-0.2-0.5-0.5-0.5-0.9
			v-13.8v-0.4c0-0.1,0.1-0.2,0.2-0.2l3.3,0.5c0.6,0.1,0.9,0.4,0.9,0.7l-1.1,1.2v10.3h20.5c0.3,0,0.4-0.1,0.5-0.3l1.8-2.1
			c0.2-0.2,0.4-0.2,0.6,0c1.2,0.7,2.1,1.6,2.9,2.7c0.2,0.2,0.2,0.4,0.1,0.5c-0.1,0.1-0.3,0.2-0.6,0.2h-25.8V377.1z M198.5,355.5
			c0,0.3,0.1,0.5,0.4,0.7c0.2,0.2,0.9,0.4,2,0.6c5.9,0.1,10.4,0.1,13.3,0l1.5-0.2c0.8-0.4,1.6-1.4,2.4-2.8c0.1-0.2,0.2-0.3,0.4-0.3
			c0.2,0,0.3,0.1,0.3,0.4c-0.3,1.4-0.3,2.3,0,2.7c0.6,0.3,0.9,0.7,0.9,1.3c0,0.6-0.5,1.1-1.6,1.4c-1.3,0.4-2.7,0.6-4.4,0.7l-6.9,0.1
			c-6.4,0-10-0.7-11.1-2.1c-0.4-0.6-0.5-1.2-0.5-1.7v-4.6v-1.1c0-0.1,0.1-0.2,0.3-0.3c1,0,2,0.2,3.1,0.4c0.6,0.1,0.9,0.3,0.9,0.6
			l-0.9,1.1v1.3c6.5-0.8,11.4-1.9,14.6-3.4c0.2-0.1,0.4-0.1,0.4,0c1,0.6,1.9,1.3,2.8,2.2c0.3,0.3,0.4,0.6,0.2,0.8
			c-0.1,0.2-0.4,0.3-0.7,0.2l-0.9-0.1c-5.3,0.8-10.8,1.2-16.5,1.1V355.5z M202.8,373.2c0,0.5-0.2,0.9-0.5,1.2
			c-0.5,0.3-1,0.4-1.5,0.5c-0.5,0-0.8-0.1-1-0.3c-0.2-0.1-0.3-0.4-0.2-0.9V361c0-0.2,0-0.3,0.1-0.3c1,0.2,2.1,0.6,3.1,1.1H213
			c0.1,0,0.3-0.1,0.4-0.2l0.8-0.9h0.4c1,0.4,2,0.9,2.9,1.5c0.6,0.5,0.5,0.9-0.3,1.2c-0.2,0.1-0.3,0.3-0.3,0.6v9.2
			c0,0.4-0.2,0.7-0.5,0.9c-0.4,0.2-0.9,0.4-1.6,0.4c-0.5,0-0.8-0.1-1-0.4c-0.2-0.3-0.3-0.6-0.2-0.9V373h-10.8V373.2z M213.6,365.2
			v-2.3c-0.1-0.1-0.2-0.2-0.4-0.1h-9.9l-0.6,0.1v2.3H213.6z M213.6,368.7v-2.6h-10.8v2.6H213.6z M213.6,372.1v-2.4h-10.8v2.4H213.6z
			 M216.2,379c1.8,0.5,3.1,1.2,3.9,1.9c0.4,0.4,0.6,0.8,0.6,1.4c0,0.6-0.1,1.1-0.4,1.5c-0.4,0.4-0.8,0.5-1.3,0.5
			c-0.5,0-1-0.4-1.5-0.9c-1.8-2-4.8-3.7-8.9-5.3c-0.2-0.1-0.3-0.2-0.3-0.3c0-0.2,0.2-0.3,0.4-0.2C211.3,377.8,213.8,378.2,216.2,379
			z"/>
	</g>
	<g class="st0">
		<path class="st1" d="M208.4,400c-2.4,3.9-4.3,6-5.7,6.5v13.9c0,0.4-0.2,0.8-0.6,1.1c-0.4,0.3-0.9,0.4-1.6,0.4
			c-0.5,0-0.8-0.1-1-0.4c-0.1-0.2-0.2-0.4-0.2-0.7v-1.7h-5.4v1.6c0,0.6-0.2,1.2-0.5,1.4c-0.4,0.3-0.9,0.5-1.7,0.5
			c-0.5,0-0.8-0.1-1-0.3c-0.2-0.2-0.3-0.5-0.3-0.9v-23.9l0.1-0.3h0.3c1,0.3,2.1,0.7,3.2,1.3h0.6c0.7-1.9,1-4.2,1-6.8l0.1-0.9
			c0-0.1,0.1-0.2,0.3-0.2c1.1,0.1,2.3,0.4,3.5,0.7c0.5,0.2,0.7,0.4,0.6,0.6c0,0.3-0.2,0.4-0.7,0.5c-0.1,0-0.3,0.1-0.3,0.3
			c-1.1,2.6-2.4,4.5-3.7,5.8h2.5c0.3,0,0.5,0,0.7-0.2l1-1c0.2-0.3,0.5-0.4,0.7-0.3c1.3,0.5,2.4,1,3.1,1.5c0.8,0.6,0.6,1.1-0.3,1.5
			c-0.2,0.1-0.3,0.2-0.3,0.4v5.3l0.1-0.2c2.6-3.7,4.2-8.6,4.9-14.7c0-0.2,0.2-0.3,0.5-0.3c1.4,0.2,2.8,0.6,3.9,1.2
			c0.4,0.2,0.5,0.4,0.5,0.6c0,0.3-0.4,0.5-0.9,0.5c-0.3,0-0.4,0.3-0.5,0.6l-2.1,4.9h7.1c0.3,0,0.6,0,0.7-0.2l1.2-1.3
			c0.2-0.3,0.5-0.3,0.9-0.1c2.2,1.3,3.3,2.2,3.3,2.7c0,0.3-0.3,0.5-0.9,0.8c-0.4,0.2-0.5,0.5-0.5,0.9c0.1,12.6-1,19.8-3.3,21.6
			c-1.2,0.9-2.5,1.4-3.9,1.4c-0.3,0-0.4-0.1-0.4-0.3c0-1.5-1.1-2.7-3.3-3.6c-0.3-0.1-0.4-0.3-0.4-0.5c0.1-0.3,0.3-0.4,0.6-0.3
			c2.7,0.3,4.3,0.3,4.9,0c0.3-0.1,0.6-0.6,0.9-1.5c0.5-2.1,0.9-5.7,1.1-10.5c0.1-5,0.1-7.7-0.1-8c0-0.1-0.2-0.1-0.4-0.1h-7.3
			l-0.8,0.1L208.4,400z M199.2,408.1v-8.5c-0.1-0.2-0.2-0.2-0.4-0.1h-5v8.5H199.2z M199.2,418.3v-9.2h-5.4v9.2H199.2z M206.2,405.2
			c0-0.1,0.2-0.2,0.4-0.2l1.7,0.6c1.3,0.5,2.4,1.3,3.5,2.3c0.9,0.9,1.5,1.8,1.7,2.6c0.3,0.7,0.3,1.4,0.1,2.1c-0.2,0.6-0.6,1-1.3,1.2
			c-1.3,0.3-2.1-0.4-2.3-2.1c-0.4-2.8-1.6-4.9-3.6-6.2C206.2,405.5,206.2,405.4,206.2,405.2z"/>
	</g>
	<g class="st0">
		<path class="st1" d="M192.5,434.3l-2.1,0.3c-0.2,0.1-0.4,0.1-0.4-0.1l-0.4-1.3c0-0.2,0.1-0.2,0.4-0.1l2.4,0.3h23
			c0.3,0,0.5-0.1,0.6-0.3l1.9-2.3c0.1-0.2,0.4-0.3,0.6-0.1c1.3,0.8,2.3,1.7,3.2,2.9c0.2,0.2,0.2,0.3,0.1,0.5
			c-0.1,0.2-0.3,0.3-0.6,0.3H216v25.7c0,0.9-0.2,1.7-0.6,2.3c-0.8,1-2.4,1.7-4.6,1.7c-0.3,0-0.4-0.1-0.4-0.3c0-1-0.1-1.7-0.5-2.1
			c-0.5-0.5-1.1-0.9-2-1.3c-0.2-0.1-0.3-0.2-0.3-0.4c0-0.2,0.1-0.3,0.3-0.3h3.7c0.6,0,0.9-0.2,0.9-0.6v-24.8H192.5z M197.5,454.3
			c0,0.6-0.2,1-0.5,1.2c-0.5,0.3-1,0.4-1.6,0.5c-0.5,0-0.8-0.1-1.1-0.3c-0.2-0.1-0.2-0.4-0.2-0.8v-15.6c0-0.2,0-0.3,0.1-0.3
			c1.4,0.3,2.6,0.8,3.6,1.4h3.8c0.3,0,0.5,0,0.7-0.2l0.9-1c0.2-0.3,0.5-0.4,0.8-0.3c1.3,0.5,2.3,1,3.1,1.5c0.7,0.6,0.6,1.1-0.4,1.5
			c-0.2,0.1-0.3,0.2-0.3,0.4v9.9c0,0.5-0.2,0.9-0.6,1.1c-0.4,0.2-0.9,0.4-1.6,0.4c-0.5,0-0.8-0.1-1.1-0.3c-0.1-0.2-0.2-0.4-0.2-0.7
			v-1.4h-5.4V454.3z M202.9,450.3v-8.9c-0.1-0.1-0.2-0.2-0.4,0h-5v9H202.9z"/>
	</g>
	<g class="st0">
		<path class="st1" d="M189.5,490.5h-0.2c-0.1-0.1,0.4-0.8,1.4-1.7c3.8-4.4,6.1-8.2,6.8-11.4c0-0.1,0.1-0.2,0.2-0.1
			c1.1,0.3,2.2,0.8,3.2,1.3c0.4,0.2,0.5,0.5,0.5,0.8c-0.1,0.3-0.4,0.4-0.8,0.4c-0.1,0-0.3,0-0.3,0.2c-0.8,1.2-1.7,2.4-2.7,3.7v19.7
			c0,0.6-0.3,0.9-0.7,1.1c-0.8,0.3-1.5,0.3-2.3,0c-0.4-0.2-0.5-0.6-0.5-1.1v-16.1C192.6,488.5,191.1,489.6,189.5,490.5z
			 M195.4,470.8c0-0.1,0.1-0.2,0.2-0.1c1.2,0.3,2.2,0.7,3.2,1.2c0.4,0.2,0.6,0.5,0.5,0.7c-0.1,0.3-0.4,0.4-0.8,0.4l-0.3,0.2
			c-2.4,3.6-5.2,6.3-8.4,7.9h-0.3c0-0.1,0-0.2,0-0.3c2.6-2.6,4.5-5.8,5.7-9.5L195.4,470.8z M203.2,483.3l-2.1,0.3
			c-0.2,0.1-0.4,0.1-0.4-0.1l-0.4-1.3c0-0.2,0.1-0.2,0.4-0.1l2.4,0.3h12.6c0.3,0,0.5-0.1,0.6-0.3l1.8-2.3c0.2-0.2,0.4-0.3,0.7-0.1
			c1.3,0.8,2.3,1.7,3.2,2.9c0.2,0.2,0.2,0.3,0.1,0.5c-0.1,0.2-0.3,0.3-0.6,0.3h-6.5v16.8c0,1.1-0.1,1.9-0.5,2.5
			c-0.7,1.2-2.1,1.8-4.2,1.8c-0.3,0-0.4-0.1-0.4-0.3c-0.1-1.5-1-2.7-2.9-3.3c-0.2-0.1-0.3-0.2-0.3-0.4c0-0.2,0.1-0.3,0.3-0.2
			l3.6,0.1c0.6,0,0.9-0.3,0.9-0.9v-16.1H203.2z M205.3,473.7h8.2c0.3,0,0.5-0.1,0.6-0.3l1.9-2.3c0.2-0.2,0.4-0.2,0.6-0.1
			c1.3,0.8,2.3,1.8,3.2,2.9c0.2,0.2,0.2,0.4,0.1,0.5c-0.1,0.2-0.3,0.3-0.6,0.3h-14.1l-2.1,0.3c-0.2,0.1-0.3,0.1-0.4-0.1l-0.4-1.3
			c0-0.2,0.1-0.2,0.4-0.1L205.3,473.7z"/>
	</g>
	<g class="st0">
		<path class="st1" d="M193.4,536.2c0,0.6-0.2,1.2-0.5,1.4c-0.4,0.3-0.9,0.5-1.7,0.5c-0.4,0-0.8-0.1-1-0.3c-0.2-0.2-0.3-0.5-0.3-0.9
			v-21.7l0.1-0.3h0.3c1,0.3,2.1,0.6,3.3,1.3h1.2c0.3,0,0.5,0,0.7-0.2l0.9-1c0.2-0.3,0.5-0.4,0.7-0.3c1.4,0.5,2.4,1,3.1,1.5
			c0.8,0.6,0.6,1.1-0.3,1.5c-0.2,0.1-0.3,0.2-0.3,0.4v17.5c0,0.5-0.2,0.8-0.6,1.1c-0.4,0.3-0.9,0.4-1.6,0.4c-0.4,0-0.8-0.1-1-0.4
			c-0.1-0.2-0.2-0.4-0.2-0.7v-2.7h-2.7V536.2z M196.1,532.5v-15.2c-0.1-0.2-0.2-0.2-0.4-0.1h-2.3v15.3H196.1z M203,534.3l0.2,0.2
			c1.4,3.2,1.5,5.8,0.2,7.8c-0.4,0.5-0.8,0.9-1.4,1c-0.5,0.1-1,0-1.5-0.4c-0.9-0.8-0.6-2.1,0.9-3.5c0.9-1.2,1.4-2.8,1.5-4.8
			C202.9,534.4,202.9,534.4,203,534.3z M206,531c0,0.7-0.1,1.2-0.5,1.4c-0.4,0.3-1,0.5-1.7,0.5c-0.5,0-0.8-0.1-1-0.4
			c-0.2-0.2-0.3-0.5-0.3-0.8V512l0.1-0.3h0.3c1,0.3,2.2,0.7,3.5,1.4h9.9c0.2,0,0.4-0.1,0.5-0.3l1.8-2.1c0.2-0.2,0.4-0.2,0.6,0
			c1.2,0.7,2.1,1.6,2.9,2.7c0.2,0.2,0.2,0.4,0.1,0.5c-0.1,0.1-0.3,0.2-0.6,0.2h-7.5v4.4h1.1c0.3,0,0.5-0.1,0.6-0.2l1.7-2.1
			c0.2-0.2,0.4-0.2,0.6,0c1.1,0.7,2,1.5,2.7,2.6c0.2,0.2,0.2,0.4,0.1,0.5c-0.1,0.2-0.3,0.3-0.6,0.3h-6.2v4.5h0.9
			c0.3,0,0.5-0.1,0.6-0.3l1.7-2.1c0.2-0.2,0.4-0.2,0.6,0c1.1,0.7,1.9,1.5,2.7,2.6c0.2,0.2,0.2,0.3,0.1,0.5c-0.1,0.2-0.3,0.3-0.6,0.3
			h-6v4.4h3.3l0.4-0.2l1.1-1.1c0.1-0.1,0.3-0.1,0.4,0c1.8,0.9,2.8,1.6,2.9,2.1c0,0.3-0.1,0.4-0.5,0.5l-0.2,0.3l-0.3,4.9
			c-0.4,3.5-1.7,6.1-3.8,7.5c-0.9,0.5-1.8,0.7-2.7,0.7c0-1.3-0.9-2.3-2.7-3c-0.3,0-0.5-0.2-0.4-0.5s0.2-0.4,0.5-0.4
			c1.3,0.2,2.2,0.3,2.7,0.2c1-0.3,1.7-0.9,2.1-1.7c0.7-1.5,1-4.4,1-8.6h-11.6l-0.5,0.1V531z M205.7,533.9c0.1-0.1,0.2-0.1,0.3,0
			c1.9,1.9,2.9,3.9,2.8,5.7c0,0.6-0.3,1.1-0.8,1.5c-0.4,0.4-0.8,0.5-1.3,0.4c-1-0.2-1.3-1-0.9-2.3c0.6-1.9,0.5-3.5-0.1-4.9
			C205.6,534.1,205.6,534,205.7,533.9z M210.7,514H206v4.4h4.7V514z M210.7,519.4H206v4.5h4.7V519.4z M210.7,529.3v-4.4H206v4.4h0.5
			H210.7z M208.9,532.9l0.3-0.1c2.2,1,3.5,2.6,3.9,4.7c0.1,0.5,0,1.1-0.4,1.7c-0.3,0.4-0.7,0.7-1.2,0.7c-1.1-0.1-1.5-0.8-1.4-2.1
			c0.2-1.9-0.2-3.5-1.2-4.6C208.8,533.1,208.8,533,208.9,532.9z M212.5,532c0-0.1,0.1-0.1,0.3-0.1c2.1,0.5,3.3,1.5,3.8,3.1
			c0.2,0.5,0.1,1.1-0.1,1.6c-0.2,0.5-0.5,0.8-1.1,0.8c-1,0.1-1.6-0.5-1.6-1.8c0.1-1.3-0.3-2.5-1.2-3.4L212.5,532z"/>
	</g>
	<g class="st0">
		<path class="st1" d="M212.1,554.5c1.8,1.2,2.7,2.9,2.7,5c0,1.5-0.3,2.8-0.9,3.7c-0.6,1.2-1.8,2.3-3.3,3.3c-1.5,0.9-2.5,1.9-3,2.8
			c-0.6,1.3-0.9,2.9-0.9,5h-1.3c0-3,0.3-5.2,0.9-6.6c0.5-1.1,1.4-2.1,2.7-3c1.2-0.9,2-1.7,2.4-2.4c0.5-0.9,0.6-1.8,0.6-2.8
			c0-1.7-0.6-3-1.7-3.9c-1.3-1-2.8-1.5-4.3-1.5c-1.8,0-3.1,0.3-4.1,1s-1.5,1.1-1.5,1.4c0,0.5,0.5,0.9,1.6,1.3c1,0.4,1.5,1,1.5,2
			c0,0.7-0.3,1.3-0.8,1.8c-0.5,0.6-1.2,0.9-2.1,0.9c-0.7,0-1.4-0.3-2-0.8c-0.6-0.5-0.9-1.4-0.9-2.5c0-1.7,0.9-3.2,2.5-4.5
			c1.6-1.2,3.6-1.9,5.9-1.9C208.3,552.8,210.4,553.4,212.1,554.5z M208.3,576.6c0.5,0.5,0.8,1.2,0.8,2.1c0,0.8-0.3,1.5-0.8,2.1
			c-0.6,0.6-1.3,0.9-2.2,0.9c-0.9,0-1.7-0.3-2.2-0.9c-0.6-0.5-0.8-1.3-0.8-2.2c0-0.8,0.3-1.6,0.9-2.2c0.6-0.5,1.3-0.8,2.2-0.8
			C206.9,575.7,207.6,576,208.3,576.6z"/>
	</g>
</g>
</svg>
