<svg xmlns="http://www.w3.org/2000/svg" width="171.908" height="26.186" viewBox="0 0 171.908 26.186">
  <g id="title_2018_word" transform="translate(-121.376 -1629)">
    <g id="Group_1099" data-name="Group 1099" transform="translate(-0.716)">
      <text id="全球發電結構" transform="translate(181 1629)" fill="#1eee78" font-size="18" font-family="MicrosoftJhengHeiBold, Microsoft JhengHei"><tspan x="0" y="19">全球發電結構</tspan></text>
      <g id="Group_1098" data-name="Group 1098" transform="translate(111 5)">
        <path id="Path_1398" data-name="Path 1398" d="M8016.161,1132.958c5.521-3.807,11.346-5.707,9.138-.952s-9.138,10.851-9.138,10.851l11.994-7.805" transform="matrix(0.921, 0.391, -0.391, 0.921, -6918.65, -2541.293)" fill="none" stroke="#1eee78" stroke-linecap="round" stroke-linejoin="round" stroke-width="4"/>
        <path id="Path_1399" data-name="Path 1399" d="M6.123.086c2.308.791,2.968,3.43,0,6.562S-.308,6.484.022,5.33,3.814-.705,6.123.086Z" transform="matrix(-0.875, 0.485, -0.485, -0.875, 42.501, 1638.445)" fill="none" stroke="#1eee78" stroke-width="4"/>
        <path id="Path_1400" data-name="Path 1400" d="M1.142,1.1,3.236,0S.7,9.4.7,13.02" transform="translate(44.341 1630.776) rotate(-8)" fill="none" stroke="#1eee78" stroke-linecap="round" stroke-linejoin="round" stroke-width="4"/>
        <path id="Path_1401" data-name="Path 1401" d="M8158.561,1157.663c.437-4.368-3.469-4.56-4.794-4.278s-4.159,2.206-2.646,4.726,2.646,1.7,6.049,4.915.567,7.184-3.4,6.05-3.592-4.726-1.891-6.05,10.725-8.857,10.725-8.857" transform="translate(-8095.945 475.7)" fill="none" stroke="#1eee78" stroke-linecap="round" stroke-linejoin="round" stroke-width="4"/>
      </g>
    </g>
  </g>
</svg>
