<?xml version="1.0" encoding="utf-8"?>
<!-- Generator: Adobe Illustrator 22.1.0, SVG Export Plug-In . SVG Version: 6.00 Build 0)  -->
<svg version="1.1" id="圖層_1" xmlns="http://www.w3.org/2000/svg" xmlns:xlink="http://www.w3.org/1999/xlink" x="0px" y="0px"
	 viewBox="0 0 78 397" style="enable-background:new 0 0 78 397;" xml:space="preserve">
<style type="text/css">
	.st0{enable-background:new    ;}
	.st1{fill:#1EEE78;}
</style>
<g id="global_energy_transition_The_Netherlands_title" transform="translate(-11664 10422)">
	<g class="st0">
		<path class="st1" d="M11665.2-10345.4c-0.2,0.1-0.3,0.1-0.3,0c-0.1-0.1,0-0.3,0.1-0.4c3.9-4,6.6-9.4,7.9-16.1
			c0-0.2,0.2-0.3,0.4-0.3c1.3,0.2,2.5,0.4,3.8,0.8c0.6,0.2,0.8,0.4,0.8,0.8c0,0.3-0.3,0.5-0.8,0.5c-0.2,0-0.3,0.2-0.4,0.4
			c-0.8,1.9-1.7,3.6-2.7,5.2l1.4,0.7c0.3,0.2,0.4,0.4,0.4,0.6l-1,0.8v16.5c0,0.6-0.2,1.1-0.7,1.3c-0.8,0.4-1.7,0.4-2.5,0
			c-0.4-0.2-0.7-0.6-0.7-1.2v-14.4C11669-10348.1,11667.2-10346.5,11665.2-10345.4z M11679.5-10366.8v2.7c0,0.6-0.2,1-0.7,1.2
			c-0.8,0.3-1.6,0.3-2.4,0c-0.5-0.2-0.7-0.6-0.7-1.1v-2.8h-6.9l-2.3,0.3c-0.2,0.1-0.4,0.1-0.4-0.1l-0.4-1.4c0-0.2,0-0.2,0.4-0.1
			l2.7,0.2h7v-4.1c0-0.2,0-0.2,0.2-0.2l3.5,0.6c0.7,0.1,1,0.3,1,0.7l-1,1.2v1.8h8v-3.9c0-0.2,0.1-0.2,0.3-0.2l3.5,0.6
			c0.7,0.1,1,0.3,1,0.7l-1,1.2v1.7h4c0.3,0,0.5-0.1,0.6-0.3l2.1-2.6c0.2-0.2,0.5-0.3,0.8-0.1c1.4,0.9,2.6,2,3.5,3.2
			c0.2,0.2,0.2,0.4,0.2,0.6c-0.1,0.2-0.3,0.3-0.6,0.3h-10.5v3.2c0,0.6-0.2,1-0.7,1.2c-0.8,0.3-1.6,0.3-2.4,0
			c-0.5-0.2-0.7-0.6-0.7-1.1v-3.2H11679.5z M11681.7-10359l-2.3,0.4c-0.2,0.1-0.4,0.1-0.4-0.1l-0.4-1.4c0-0.2,0.1-0.2,0.4-0.2
			l2.7,0.3h13.7c0.3,0,0.5-0.1,0.6-0.3l2-2.5c0.2-0.2,0.4-0.2,0.7-0.1c1.3,0.8,2.4,1.9,3.4,3.2c0.2,0.2,0.2,0.4,0.2,0.5
			c-0.1,0.2-0.3,0.3-0.7,0.3h-3.6v20.2c0,1.2-0.2,2.1-0.6,2.8c-0.8,1.3-2.3,2-4.6,2c-0.3,0-0.4-0.1-0.4-0.4c0-1.7-0.9-3-2.7-3.7
			c-0.2-0.1-0.3-0.2-0.3-0.4c0-0.2,0.2-0.3,0.4-0.2l3.4,0.1c0.7,0,1-0.3,1-1v-19.4H11681.7z M11683.2-10342.6c0,0.6-0.2,1.1-0.6,1.3
			c-0.5,0.3-1.1,0.5-1.7,0.5c-0.5,0-0.9-0.1-1.2-0.3c-0.2-0.2-0.3-0.4-0.2-0.9v-13.4c0-0.2,0-0.3,0.2-0.3c1.6,0.2,2.9,0.8,4,1.6h2.6
			c0.2,0,0.3-0.1,0.4-0.2l0.9-1h0.4c1.1,0.4,2.2,1,3.2,1.7c0.7,0.5,0.6,1-0.3,1.4c-0.2,0.1-0.4,0.3-0.4,0.6v8c0,0.4-0.2,0.8-0.6,1
			c-0.4,0.2-1,0.4-1.8,0.4c-0.5,0-0.9-0.1-1.1-0.4c-0.2-0.3-0.3-0.6-0.2-1v-1.2h-3.8V-10342.6z M11687-10345.9v-7.1
			c-0.1-0.2-0.2-0.2-0.4-0.1h-3.4v7.2H11687z"/>
	</g>
	<g class="st0">
		<path class="st1" d="M11685.3-10293.2c0,0.6-0.3,1-0.8,1.2c-0.6,0.2-1.3,0.2-2-0.1c-0.3-0.2-0.5-0.5-0.5-1v-5.4l-0.2,0.2
			c-2.2,2.3-5,3.8-8.4,4.5c-0.2,0-0.3,0-0.4-0.1c0-0.1,0-0.2,0.2-0.3c3.6-1.8,6-4.3,7.4-7.5h-2.9c0,0.5-0.2,0.9-0.4,1.1
			c-0.4,0.3-1,0.4-1.6,0.4c-0.4,0-0.7-0.1-1-0.3c-0.2-0.1-0.2-0.4-0.2-0.8v-7.9c0-0.2,0-0.3,0.1-0.2c1.2,0.2,2.2,0.6,2.8,1h4.5v-1.8
			h-6.3l-2.4,0.3c-0.2,0-0.3,0-0.3-0.1l-0.4-1.4c0-0.2,0-0.2,0.3-0.2l2.8,0.3h6.3v-2.6c-0.5,0.4-1.2,0.7-2.2,0.8
			c-0.5,0-0.9-0.1-1.1-0.4c-0.2-0.2-0.3-0.6-0.3-1h-7v21.2c0,0.8-0.2,1.2-0.5,1.5c-0.4,0.4-1,0.6-1.8,0.6c-0.4,0-0.8-0.1-1-0.4
			c-0.2-0.2-0.3-0.5-0.3-0.9v-29.8v-0.3h0.3c1,0.3,2.2,0.7,3.5,1.3h6.3c0.2,0,0.3-0.1,0.4-0.2l0.6-0.6l-1-0.2
			c-0.4-0.2-0.6-0.6-0.6-1.1v-1.4h-8.4l-2.3,0.4c-0.2,0.1-0.4,0.1-0.4-0.1l-0.4-1.4c0-0.2,0.1-0.2,0.4-0.2l2.7,0.3h8.4v-3.1
			c0-0.1,0-0.2,0.2-0.2l3.4,0.5c0.7,0.1,1,0.3,1,0.6l-1,1.2v1h5.7v-3.1c0-0.1,0.1-0.2,0.2-0.2l3.4,0.5c0.6,0.1,1,0.3,1,0.6l-0.9,1.2
			v1h5.3c0.2,0,0.5-0.1,0.6-0.3l2-2.4c0.2-0.2,0.4-0.2,0.7,0c1.3,0.8,2.3,1.7,3.2,3c0.2,0.2,0.2,0.4,0.2,0.5
			c-0.1,0.2-0.3,0.3-0.7,0.3h-11.2v1.3c0,0.6-0.2,1-0.8,1.2c-0.7,0.3-1.5,0.3-2.3,0c-0.4-0.2-0.7-0.6-0.7-1.1v-1.4h-5.7v1.3
			c0,0.6-0.3,1-0.8,1.3c1,0.3,1.9,0.8,2.8,1.5c0.7,0.5,0.6,1-0.3,1.4c-0.2,0.1-0.3,0.3-0.3,0.6v3.8l3,0.4v-7.7c0-0.2,0-0.3,0.2-0.3
			c1.2,0.2,2.3,0.6,3.4,1.2h6c0.4,0,0.7-0.1,0.8-0.3l1.2-1.4c0.2-0.2,0.4-0.2,0.6-0.1c1.5,0.7,2.7,1.4,3.3,2
			c0.7,0.6,0.5,1.2-0.6,1.7c-0.3,0.2-0.5,0.4-0.5,0.8v23.1c0,1.4-0.5,2.5-1.5,3.2c-1,0.6-2,0.9-3,0.8c-0.2,0-0.2-0.1-0.2-0.3
			c0-1.5-0.8-2.6-2.5-3.1c-0.2-0.1-0.3-0.2-0.3-0.5s0.2-0.4,0.6-0.3c1.7,0,2.7-0.1,2.9-0.3c0.2-0.3,0.4-0.6,0.4-0.9v-17.6h-7.1
			l-0.1,0.3c-0.8,1.1-1.8,1.4-3.2,1h-0.1c-0.2,0-0.3,0.2-0.3,0.5v1.4h4.1c0.3,0,0.5-0.1,0.6-0.3l0.9-1.5c0.2-0.3,0.4-0.3,0.7-0.2
			c1,0.7,2,1.4,2.8,2.3c0.2,0.2,0.2,0.4,0.2,0.5c-0.1,0.1-0.3,0.2-0.6,0.2h-8.7v1.8h3.9l0.4-0.2c0.6-0.6,1-0.9,1.2-0.8
			c1,0.4,2,0.8,2.9,1.5l0.3,0.4l-0.9,1.4v4.4c0,0.4-0.2,0.7-0.5,0.9c-0.3,0.2-0.8,0.3-1.6,0.4c-0.4,0-0.8-0.1-0.9-0.4
			c-0.2-0.2-0.2-0.5-0.2-0.8h-4.6v0.8c3.7,1,5.8,2.3,6.4,3.9c0.2,0.5,0.2,1,0,1.6c-0.2,0.6-0.6,0.9-1,1.1c-0.8,0.4-1.5-0.1-1.9-1.2
			c-0.6-1.7-1.8-3.2-3.4-4.3V-10293.2z M11678.6-10318.2v-1.8c-0.1-0.2-0.2-0.2-0.4-0.1h-6l-0.7,0.1v1.8H11678.6z M11678.6-10315.4
			v-1.8h-7.1v1.8H11678.6z M11682-10307.2h-4.2v4.5h4.2V-10307.2z M11678.4-10306.6l0.2-0.2c0.7,0,1.4,0.2,1.9,0.6
			c0.6,0.3,1,0.7,1.1,1.2c0.1,0.4,0.1,0.7,0,1.1c-0.1,0.4-0.4,0.6-0.9,0.6c-0.8,0.1-1.3-0.3-1.3-1.2c-0.1-0.6-0.4-1.3-0.9-1.8
			L11678.4-10306.6z M11685.3-10302.8c0.5-0.7,1.2-2.2,1.8-4.2l0.2-0.1l1.9,1c0.3,0.2,0.4,0.4,0.3,0.6c0,0.2-0.2,0.3-0.5,0.3
			l-0.4,0.2c-0.9,1-1.9,1.8-3,2.3h4.1v-4.5c-0.1-0.2-0.3-0.2-0.4,0h-4.2V-10302.8z M11696-10318.2v-1.6c0-0.2-0.2-0.3-0.4-0.3h-5.9
			l-0.8,0.1v1.8H11696z M11696-10315.4v-1.8h-7v1.8H11696z"/>
	</g>
	<g class="st0">
		<path class="st1" d="M11673.4-10263.5v0.3c-1,6.6-3.1,11.3-6.5,14.2c-0.2,0.2-0.4,0.2-0.5,0c-0.1-0.1,0.2-1,0.9-2.4
			c2-5,3-13.3,3-24.7v-8.8c0-0.3,0.1-0.4,0.3-0.3c1.2,0.4,2.5,1,4,1.8h18.8c0.4,0,0.6-0.1,0.8-0.3l1.2-1.4c0.2-0.2,0.4-0.2,0.7-0.1
			c1.6,0.8,2.8,1.5,3.4,2c0.8,0.7,0.6,1.3-0.6,1.8c-0.4,0.2-0.5,0.5-0.5,0.9v27.8c0,1.5-0.6,2.5-1.5,3.2c-1,0.6-2,0.9-3.1,0.8
			c-0.2,0-0.3,0-0.3-0.3c-0.2-1.7-1.3-2.8-3.1-3.1c-0.3,0-0.4-0.2-0.4-0.5c0-0.2,0.2-0.4,0.6-0.3c2,0,3.3-0.1,3.6-0.4
			c0.2-0.3,0.4-0.5,0.4-0.9v-9.3h-8.3v12.2c0,0.6-0.4,1-0.9,1.3c-0.8,0.3-1.6,0.3-2.4-0.1c-0.4-0.2-0.6-0.6-0.6-1.2v-12.2H11673.4z
			 M11682.4-10273h-8.2c-0.1,2.9-0.2,5.8-0.6,8.5h8.8V-10273z M11682.4-10282.4h-7.6l-0.6,0.1v0.2v6v2h8.2V-10282.4z
			 M11686.2-10274.1h8.3v-8c0-0.2-0.2-0.3-0.4-0.3h-7.9V-10274.1z M11686.2-10264.6h8.3v-8.5h-8.3V-10264.6z"/>
	</g>
	<g class="st0">
		<path class="st1" d="M11673.3-10232.8c0,4.6-0.3,8.9-0.8,12.8c-0.9,6.4-3.2,11-6.6,13.9c-0.2,0.2-0.4,0.2-0.5,0
			c-0.1-0.1,0.3-1,1.1-2.8c2-4.7,3-12.7,3-23.8v-8.7c0-0.3,0.1-0.4,0.3-0.3c1.1,0.4,2.4,0.9,3.8,1.6h19c0.2,0,0.5-0.1,0.7-0.4
			l1.1-1.4c0.2-0.3,0.6-0.3,0.9-0.1l3.2,1.8c1,0.8,0.8,1.4-0.6,2c-0.3,0.1-0.4,0.4-0.4,1c-0.4,9.9,0.1,17.6,1.6,23.2
			c0.3,1,0.6,1.5,1.1,1.5c0.3,0,0.6-0.4,0.8-1.4l1.1-2.8c0.1-0.3,0.2-0.4,0.5-0.4c0.3,0,0.4,0.2,0.3,0.6c-0.7,3.7-0.9,6.3-0.5,7.7
			c0.3,1.4,0.3,2.3,0,2.8c-0.4,0.5-1,0.7-1.6,0.7c-0.7,0-1.5-0.5-2.4-1.6c-3.8-4.8-5.4-15.5-4.8-31.8c0-0.4-0.2-0.5-0.5-0.4h-19.7
			V-10232.8z M11675.2-10208.8c-0.6,0.2-1,0.3-1,0.5c-0.1,0.3-0.2,0.5-0.4,0.5c-0.3,0-0.5-0.1-0.6-0.4c-0.6-1.4-1-2.6-1.1-3.5
			c0-0.2,0-0.4,0.3-0.3c1.4,0,3.8-0.1,7.4-0.4l1.8-0.1v-6.5h-2.5v0.4c0,0.6-0.2,1.1-0.6,1.3c-0.5,0.3-1.1,0.5-1.7,0.5
			c-0.5,0-0.9-0.1-1.2-0.3c-0.2-0.2-0.3-0.4-0.2-0.9v-11.7c0-0.2,0-0.3,0.2-0.3c1.4,0.2,2.6,0.7,3.7,1.4h2.4v-4.4
			c-2.8,0.3-5,0.4-6.7,0.4c-0.2,0-0.4-0.1-0.4-0.3c0-0.2,0.1-0.3,0.3-0.3c5.6-1.2,9.7-2.7,12.3-4.4l0.5-0.1c1.2,0.6,2.2,1.3,3.2,2.1
			c0.4,0.3,0.5,0.6,0.4,0.9l-6,1.1v4.9h1.9c0.2,0,0.3-0.1,0.4-0.2l1-1h0.4c1.1,0.4,2.2,1,3.2,1.7c0.7,0.5,0.6,1-0.3,1.4
			c-0.2,0.1-0.4,0.3-0.4,0.6v7.7c0,0.4-0.2,0.8-0.6,1c-0.4,0.2-1,0.4-1.8,0.4c-0.5,0-0.9-0.1-1.1-0.4c-0.2-0.2-0.3-0.6-0.2-1v-0.6
			h-2.5v6.1l4.1-0.6c-0.6-1-1.3-1.9-2.2-2.4c-0.1-0.1-0.2-0.2-0.1-0.4c0-0.1,0.2-0.2,0.4-0.1h0.2c3.5,1,5.8,2.7,6.8,5.2
			c0.3,0.7,0.4,1.4,0.1,2.2c-0.2,0.7-0.6,1.1-1.3,1.3c-0.7,0.2-1.2,0.1-1.7-0.4c-0.4-0.4-0.7-1-0.8-1.8c-0.2-0.9-0.4-1.8-0.8-2.6
			C11686.2-10211.4,11681.3-10210.1,11675.2-10208.8z M11681.5-10227.5h-2.5v7.5h2.5V-10227.5z M11685.2-10220h2.5v-7.4
			c-0.1-0.2-0.2-0.2-0.4-0.1h-2.1V-10220z"/>
	</g>
	<g class="st0">
		<path class="st1" d="M11672.9-10189.4l-2.2,0.3c-0.3,0.1-0.4,0.1-0.5,0l-0.4-1.4c0-0.2,0.1-0.2,0.4-0.2l2.6,0.2h8.6
			c0.2-2.4,0.3-5.4,0.3-8.8c0-0.2,0.1-0.3,0.2-0.3c1.3,0,2.5,0.1,3.7,0.4c0.6,0.1,1,0.4,1,0.7l-1,1l-0.6,7h8.8c0.4,0,0.6,0,0.8-0.2
			l1.4-1.4c0.2-0.3,0.6-0.4,1-0.1l2.8,1.8c0.6,0.4,0.9,0.8,0.9,1.2c0,0.4-0.3,0.6-0.9,0.9c-0.4,0.2-0.6,0.5-0.6,0.9
			c0,5-0.3,10.2-1,15.4c-0.7,4.1-1.6,6.6-2.9,7.4c-1.3,1-2.8,1.5-4.3,1.5c-0.4,0-0.6-0.1-0.6-0.3c0-1.5-1.5-2.7-4.3-3.5
			c-0.4-0.1-0.5-0.3-0.5-0.6c0-0.3,0.3-0.4,0.7-0.4c3.3,0.1,5.5,0,6.3-0.5c0.3-0.2,0.6-0.7,0.9-1.6c0.8-2.8,1.3-8.8,1.6-18l-0.3-1.5
			l-0.5-0.1h-9.5l-0.8,4.8c-0.6,3.2-1.6,6.1-2.8,8.8c-2.9,5.8-7.7,10.1-14.2,12.9c-0.2,0-0.3,0-0.4-0.1c0-0.1,0-0.3,0.2-0.4
			c3.4-2.2,6.4-5.1,9-8.8c2.9-4.2,4.7-10,5.4-17.1H11672.9z"/>
	</g>
	<g class="st0">
		<path class="st1" d="M11670.6-10121.2c0,0.8-0.2,1.3-0.6,1.6c-0.4,0.4-1.1,0.6-1.9,0.6c-0.5,0-0.9-0.1-1.1-0.4
			c-0.2-0.2-0.3-0.5-0.3-0.9v-36.1l0.1-0.3h0.3c1,0.3,2,0.6,3.2,1.2h7.2c0.2,0,0.3-0.1,0.4-0.2l0.9-1l0.4-0.1c1.2,0.4,2.4,1,3.4,1.8
			c0.8,0.5,0.6,1-0.3,1.4c-0.2,0.1-0.3,0.3-0.3,0.6v10.1c0,0.5-0.2,0.8-0.6,1.1c-0.4,0.2-1,0.4-1.9,0.4c-0.6,0-0.9-0.1-1.1-0.4
			c-0.2-0.2-0.3-0.6-0.3-1.1v-1.1h-7.7V-10121.2z M11678.3-10150.1v-4.3c-0.1-0.2-0.2-0.3-0.4-0.2h-6.5l-0.7,0.1v4.3H11678.3z
			 M11678.3-10145.1v-4h-7.7v4H11678.3z M11681.4-10131.1l-0.4,2.9c-1,3.4-3.6,5.9-7.7,7.4c-0.2,0.1-0.4,0-0.4-0.1
			c0-0.1,0-0.2,0.2-0.4c3.1-2.2,4.7-5.6,4.8-9.9h-2.8l-2.3,0.4c-0.2,0.1-0.4,0.1-0.4-0.1l-0.4-1.4c0-0.2,0.1-0.2,0.4-0.2l2.7,0.3
			h2.8l0.1-6.1h-1.7l-2.3,0.3c-0.2,0.1-0.4,0.1-0.4-0.1l-0.4-1.4c0-0.2,0.1-0.2,0.4-0.2l2.7,0.3h11.2c0.3,0,0.5-0.1,0.6-0.3l1.9-2.3
			c0.2-0.2,0.4-0.2,0.6,0c1.2,0.7,2.2,1.7,3,2.8c0.2,0.2,0.2,0.4,0.2,0.6c-0.1,0.2-0.3,0.3-0.7,0.3h-4.3v6.1h0.4
			c0.3,0,0.5-0.1,0.6-0.3l1.8-2.1c0.2-0.2,0.4-0.2,0.6,0c1.1,0.7,2,1.6,2.7,2.6c0.2,0.2,0.2,0.4,0.2,0.5c-0.1,0.2-0.3,0.3-0.7,0.3
			h-5.5v8.3c0,0.6-0.3,1.1-0.9,1.3c-0.7,0.3-1.5,0.2-2.2-0.1c-0.4-0.2-0.6-0.6-0.6-1.2v-8.3H11681.4z M11685.2-10138.2h-3.5
			l-0.2,6.1h3.7V-10138.2z M11689.4-10144v0.6c0,0.6-0.2,1.1-0.6,1.4c-0.5,0.3-1.2,0.5-1.8,0.5c-0.5,0-0.9-0.1-1.2-0.4
			c-0.2-0.2-0.2-0.5-0.2-1v-13.6c0-0.2,0-0.3,0.2-0.3c1.2,0.2,2.2,0.6,3.3,1.2h7.4l0.5-0.2l1-1c0.2-0.1,0.3-0.1,0.5,0
			c1.6,0.6,2.6,1.4,3.1,2.1c0,0.2-0.2,0.7-0.6,1.4v30.1c0,1.2-0.3,2.1-1.1,2.8c-0.8,0.7-2,1.1-3.6,1.1c-0.3,0-0.4-0.1-0.4-0.4
			c0-1-0.5-1.9-1.4-2.6c-0.8-0.7-1.6-1.1-2.1-1.3c-0.2-0.1-0.4-0.2-0.3-0.4c0-0.2,0.2-0.2,0.4-0.2l3.6,0.1c0.7,0,1.1-0.2,1.1-0.7
			v-19.2H11689.4z M11689.4-10154.4v4.3h7.6v-4.4h-7L11689.4-10154.4z M11696.9-10149h-7.6v4h7.6V-10149z"/>
	</g>
	<g class="st0">
		<path class="st1" d="M11682.2-10087.2c-3.4,5.9-8.6,9.5-15.7,10.6c-0.2,0-0.3,0-0.4-0.2c0-0.2,0-0.3,0.2-0.3c2.4-1,4.7-2.5,7-4.4
			c3-2.6,5.3-6,6.7-10.3c1.2-4,1.8-11.2,1.8-21.6c0-0.2,0.1-0.2,0.2-0.2l3.8,0.4c0.6,0.1,0.9,0.4,0.9,0.7c0,0.3-0.3,0.5-0.8,0.7
			c-0.2,0-0.3,0.2-0.3,0.4c0,3.3-0.1,6.5-0.4,9.6c-0.2,0.3,0.4,2.7,1.9,7.1c3.4-3.2,6.2-7.4,8.3-12.5c0-0.2,0.1-0.2,0.2-0.2
			c1.2,0.4,2.4,0.9,3.5,1.6c0.4,0.3,0.6,0.6,0.5,0.8c-0.1,0.3-0.4,0.4-0.9,0.4l-0.4,0.2c-3.2,4.6-6.9,8.1-11.1,10.3
			c3.4,7.6,8.2,12.1,14.4,13.6c0.2,0,0.4,0.2,0.4,0.4c0,0.2-0.1,0.2-0.4,0.3c-0.8,0.1-1.4,0.4-2,0.9c-0.6,0.5-1,1.2-1.4,2
			c-0.1,0.2-0.3,0.2-0.5,0.1l-0.8-0.4c-6.5-3.5-10.5-10.4-12-20.5C11684.6-10093.8,11683.7-10090.3,11682.2-10087.2z
			 M11674.8-10106.8c0.1,0,0.2,0.1,0.2,0.3c0.2,2.3,0,4.6-0.6,6.8c-0.6,2.2-1.6,3.8-2.9,5c-0.5,0.5-1,0.8-1.7,0.8
			c-0.7,0-1.2-0.3-1.6-0.8c-0.3-0.5-0.4-1.1-0.2-1.8c0.1-0.4,1-1.3,2.7-2.5c1.9-1.7,3.2-4.2,3.9-7.6
			C11674.6-10106.7,11674.7-10106.8,11674.8-10106.8z"/>
	</g>
	<g class="st0">
		<path class="st1" d="M11668.2-10041.5l-2.3,0.4c-0.2,0.1-0.4,0.1-0.4-0.1l-0.4-1.4c0-0.2,0.1-0.2,0.4-0.2l2.7,0.3h13.8v-4.6h-6.9
			v0.8c0,0.7-0.2,1.1-0.6,1.4c-0.5,0.3-1.1,0.5-1.8,0.5c-0.5,0-0.9-0.1-1.2-0.4c-0.2-0.2-0.3-0.5-0.2-0.9v-15.6c0-0.2,0-0.4,0.2-0.3
			c1.2,0.2,2.4,0.7,3.6,1.4h7v-4.4h-12.1l-2.3,0.4c-0.2,0.1-0.4,0.1-0.4-0.1l-0.4-1.4c0-0.2,0.1-0.2,0.4-0.2l2.7,0.3h12.1v-4.9v-0.4
			c0-0.1,0.1-0.2,0.2-0.2c1.2,0.1,2.5,0.3,3.8,0.6c0.7,0.2,1,0.4,1,0.8c0,0.4-0.3,0.6-0.9,0.8c-0.2,0-0.4,0.2-0.4,0.6v2.8h8
			c0.2,0,0.5-0.1,0.6-0.4l2.1-2.6c0.2-0.2,0.5-0.2,0.8-0.1c1.4,0.9,2.6,2,3.5,3.3c0.2,0.2,0.2,0.4,0.2,0.5c-0.1,0.2-0.3,0.3-0.6,0.3
			h-14.4v4.4h5.5c0.4,0,0.6,0,0.8-0.2l1-1.2c0.2-0.3,0.5-0.4,0.8-0.3c1.5,0.6,2.6,1.2,3.4,1.7c0.8,0.6,0.7,1.2-0.4,1.6
			c-0.2,0.1-0.3,0.2-0.3,0.4v12c0,0.5-0.2,0.9-0.7,1.2c-0.4,0.3-1,0.4-1.8,0.4c-0.5,0-0.9-0.1-1.2-0.4c-0.2-0.2-0.2-0.4-0.2-0.8
			v-1.4h-7v4.6h9.7c0.2,0,0.5-0.1,0.6-0.4l2.1-2.6c0.2-0.2,0.5-0.2,0.8,0c1.4,0.8,2.6,1.9,3.5,3.2c0.2,0.2,0.2,0.4,0.2,0.5
			c-0.1,0.2-0.3,0.3-0.6,0.3h-16.2v6.8c0,0.6-0.3,1.1-0.9,1.4c-0.8,0.3-1.6,0.3-2.4-0.1c-0.4-0.2-0.6-0.6-0.6-1.1v-7H11668.2z
			 M11682-10059.2h-6.9v5h6.9V-10059.2z M11682-10053.2h-6.9v5h6.9V-10053.2z M11685.9-10054.2h7v-4.9c-0.1-0.2-0.2-0.2-0.4-0.2
			h-6.6V-10054.2z M11685.9-10048.2h7v-5h-7V-10048.2z"/>
	</g>
	<g class="st0">
		<path class="st1" d="M11724.3-10412.5h13.2c0.1,0,0.3-0.1,0.3-0.2l1-1.3c0.1-0.1,0.2-0.1,0.4,0c0.7,0.4,1.3,1,1.8,1.6
			c0.1,0.1,0.1,0.2,0.1,0.3c-0.1,0.1-0.2,0.1-0.3,0.1h-16.4l-1.2,0.2c-0.1,0.1-0.2,0-0.2-0.1l-0.2-0.7c0-0.1,0-0.1,0.2-0.1
			L11724.3-10412.5z"/>
	</g>
	<g class="st0">
		<path class="st1" d="M11725.2-10378.9h-1l-1.3,0.2c-0.1,0-0.1,0-0.2-0.1l-0.1-0.7c0-0.1,0-0.1,0.2-0.1l1.4,0.1h1v-5.6
			c0,0,0-0.1,0.1-0.1c0.7,0,1.4,0.1,2,0.3c0.3,0.1,0.4,0.2,0.4,0.3c0,0.2-0.1,0.3-0.3,0.4c-0.1,0-0.2,0.1-0.2,0.2v4.5h1
			c0.1,0,0.2,0,0.3-0.1l0.7-1c0.1-0.1,0.2-0.1,0.4,0c0.4,0.3,0.7,0.7,1,1.1c0.1,0.1,0.2,0.3,0.1,0.4c0,0.1-0.1,0.1-0.3,0.1h-3.1v5.9
			l2.3-0.9c0.1-0.1,0.2-0.1,0.3,0c0.1,0.1,0,0.2-0.1,0.3c-0.4,0.4-1.5,1.1-3.3,2.2c-1.4,0.7-2.1,1.1-2.1,1.3c0,0.2-0.1,0.4-0.3,0.4
			c-0.1,0-0.3-0.1-0.4-0.4l-0.8-1.7c0-0.1,0-0.2,0.2-0.2l2.3-0.4V-10378.9z M11734.8-10373.7c-0.4,0.8-0.9,1.5-1.4,2.2
			c-0.6,0.7-1.4,1.4-2.3,1.9c-0.8,0.5-1.6,0.8-2.2,0.9c-0.1,0-0.2,0-0.2,0c0-0.1,0-0.1,0.1-0.2c2-1.2,3.3-2.8,4-4.8h-0.7l-0.4,0.5
			c-1.4,1.6-3,2.6-4.8,3c-0.1,0-0.2,0-0.2,0c0-0.1,0-0.1,0.1-0.2c2.2-1.3,3.8-3.1,4.6-5.4h-1.6l-1.2,0.2c-0.1,0-0.2,0-0.2-0.1
			l-0.2-0.7c0-0.1,0-0.1,0.2-0.1l1.3,0.1h8.4c0.1,0,0.3-0.1,0.3-0.1l1-1.2c0.1-0.1,0.2-0.1,0.3,0c0.6,0.4,1.2,0.9,1.6,1.5
			c0.1,0.1,0.1,0.2,0.1,0.3c-0.1,0.1-0.2,0.1-0.3,0.1h-7.6l-1,1.6h5.4l0.2-0.1l0.6-0.6c0.1-0.1,0.1-0.1,0.2,0
			c0.5,0.2,0.9,0.6,1.4,0.9c0.2,0.1,0.2,0.2,0.2,0.3c0,0.1-0.1,0.3-0.3,0.3l-0.1,0.2c-0.2,2.3-0.6,4.1-1.2,5.2
			c-0.8,1.3-1.8,1.9-3.1,1.9c0-0.8-0.3-1.3-0.8-1.7c-0.2-0.1-0.3-0.2-0.2-0.3c0.1-0.1,0.2-0.2,0.3-0.2l0.9,0.2
			c0.6-0.1,1-0.4,1.2-0.8c0.5-0.9,0.8-2.5,0.9-4.7h-0.7l0,0.2c-0.8,2-1.9,3.7-3.4,5c-1.3,1.2-2.8,1.9-4.2,2.1c-0.1,0-0.2,0-0.2-0.1
			c0-0.1,0-0.1,0.1-0.2c2.5-1.4,4.5-3.8,5.9-7.1H11734.8z M11732.7-10377.2c-0.3,0.2-0.6,0.2-0.9,0.3c-0.3,0-0.5-0.1-0.6-0.2
			c-0.1-0.1-0.1-0.2-0.1-0.5v-7c0-0.1,0-0.2,0.1-0.2c0.7,0.2,1.3,0.4,1.8,0.7h3.2c0.1,0,0.1,0,0.2-0.1l0.5-0.5l0.2,0
			c0.6,0.2,1.2,0.5,1.7,0.9c0.4,0.3,0.3,0.5-0.1,0.7c-0.1,0.1-0.2,0.2-0.2,0.3v4.9c0,0.2-0.1,0.4-0.3,0.5c-0.2,0.1-0.5,0.2-0.9,0.2
			c-0.3,0-0.5-0.1-0.6-0.2c-0.1-0.1-0.1-0.3-0.1-0.5h-3.5C11732.9-10377.5,11732.8-10377.3,11732.7-10377.2z M11736.4-10381.1v-2.3
			c-0.1-0.1-0.1-0.1-0.2-0.1h-3.2v2.4H11736.4z M11736.4-10378.3v-2.3h-3.5v2.3H11736.4z"/>
	</g>
	<g class="st0">
		<path class="st1" d="M11726.1-10345l-1.1,0.1c0,1.1-0.3,1.9-0.8,2.5c-0.3,0.2-0.6,0.3-0.9,0.3c-0.3,0-0.6-0.2-0.8-0.4
			c-0.2-0.3-0.2-0.5-0.1-0.9c0.1-0.3,0.4-0.6,0.7-0.7c0.7-0.4,1.2-1,1.5-2c0-0.1,0.1-0.1,0.1-0.1s0.1,0,0.1,0.1l0.1,0.5l1.1,0.1h4.6
			v-1.5h-4.8l-1.2,0.2c-0.1,0.1-0.2,0-0.2-0.1l-0.2-0.7c0-0.1,0-0.1,0.2-0.1l1.4,0.1h10c0.1,0,0.3-0.1,0.3-0.2l1-1.3
			c0.1-0.1,0.2-0.1,0.4,0c0.7,0.4,1.3,1,1.8,1.6c0.1,0.1,0.1,0.2,0.1,0.3c-0.1,0.1-0.2,0.1-0.3,0.1h-6.5v1.5h5.3l0.3-0.2l0.6-0.5
			c0.1,0,0.2,0,0.3,0c0.6,0.3,1.2,0.7,1.8,1.1c0.1,0.1,0.2,0.2,0.2,0.4c-0.1,0.1-0.2,0.2-0.4,0.2l-0.2,0.1c-0.9,0.8-1.7,1.5-2.5,2
			c-0.1,0.1-0.2,0.1-0.3,0l0-0.3c0.3-0.7,0.6-1.5,0.8-2.2h-5.7v3.8l0.2,0.1c0.2,0.2,0.3,0.3,0.2,0.5c-0.1,0.1-0.2,0.2-0.4,0.1
			c0.7,0.5,1.7,1,3.1,1.4c1.7,0.5,3.5,0.7,5.4,0.6c0.1,0,0.2,0,0.2,0.1c0,0.1,0,0.2-0.1,0.2c-0.7,0.4-1,1-1.1,1.7
			c0,0.2-0.1,0.2-0.3,0.2c-3.7-0.9-6.3-2.3-7.7-4.1c-2.6,2.5-5.7,4-9.4,4.4c-0.1,0-0.1,0-0.2-0.1c0-0.2,0.1-0.2,0.3-0.2
			c3.4-1.1,6-3,7.7-5.4v-3.3H11726.1z M11726.9-10335.4l-1.1,0.1c-0.2,0.1-0.2,0.1-0.3,0l-0.2-0.7c0-0.1,0.1-0.1,0.2-0.1l1.3,0.1
			h8.6c0.2,0,0.3,0,0.3-0.1l0.5-0.6c0.1-0.1,0.2-0.1,0.4-0.1c0.7,0.4,1.2,0.7,1.5,0.9c0.3,0.3,0.2,0.6-0.2,0.7
			c-0.1,0-0.2,0.2-0.2,0.3v2.1c0,0.8-0.3,1.3-0.7,1.5c-0.5,0.3-0.9,0.4-1.3,0.4c-0.1,0-0.1-0.1-0.1-0.2c0-0.4-0.2-0.8-0.4-1
			c-0.2-0.2-0.6-0.3-1-0.4c-0.1,0-0.2-0.1-0.1-0.3c0-0.1,0.1-0.1,0.3-0.1c0.7,0.1,1.1,0.1,1.3-0.1c0.1-0.1,0.2-0.2,0.2-0.4v-1.9
			c0-0.2-0.1-0.3-0.2-0.3h-3.7v4.5c0,0.3-0.2,0.5-0.5,0.6c-0.4,0.2-0.7,0.1-1.1-0.1c-0.2-0.1-0.3-0.3-0.3-0.6v-4.5H11726.9z
			 M11729.7-10343.7v0.5h-4.1v-0.5H11729.7z M11729.7-10342v0.5h-4.1v-0.5H11729.7z M11730.6-10337.7h1.1c0.1,0,0.2,0,0.3-0.1
			l0.9-1.1c0.1-0.1,0.2-0.1,0.3,0c0.6,0.4,1.1,0.8,1.4,1.4c0.1,0.1,0.1,0.2,0.1,0.3c-0.1,0.1-0.2,0.1-0.3,0.1h-3.8l-1.1,0.2
			c-0.1,0.1-0.2,0-0.2,0l-0.2-0.7c0-0.1,0-0.1,0.2-0.1L11730.6-10337.7z M11737.5-10343.7v0.5h-4v-0.5H11737.5z M11737.7-10342v0.5
			h-4.2v-0.5H11737.7z"/>
	</g>
	<g class="st0">
		<path class="st1" d="M11725.7-10295.3c0,0.3-0.2,0.5-0.4,0.6c-0.4,0.2-0.8,0.1-1.1-0.1c-0.2-0.1-0.3-0.3-0.3-0.6v-8.1
			c-0.4,0.5-0.8,0.9-1.2,1.3c-0.1,0.1-0.2,0.1-0.3,0c-0.1-0.1,0-0.2,0-0.3c1.3-1.9,2.1-4.6,2.4-8.3h-0.5l-1.3,0.2
			c-0.1,0-0.1,0-0.2-0.1l-0.1-0.7c0-0.1,0-0.1,0.2-0.1l1.4,0.1h2.7c0.1,0,0.2,0,0.3-0.1l0.8-1.1c0.1-0.2,0.2-0.2,0.4-0.1
			c0.4,0.3,0.8,0.7,1.1,1.3c0.1,0.1,0.1,0.3,0.1,0.4c0,0.1-0.1,0.2-0.3,0.2h-2.7c-0.3,2.1-0.8,3.8-1.5,5.3l-0.2,0.3h1.4
			c0.1,0,0.2,0,0.2-0.1l0.5-0.5h0.2c0.6,0.2,1.1,0.5,1.6,0.9c0.4,0.3,0.3,0.5-0.1,0.7c-0.1,0-0.2,0.1-0.2,0.3v7.4
			c0,0.2-0.1,0.4-0.3,0.5c-0.2,0.1-0.5,0.2-0.9,0.2c-0.3,0-0.4-0.1-0.5-0.2c-0.1-0.1-0.1-0.3-0.1-0.5v-1.1h-1V-10295.3z
			 M11726.7-10298.1v-6.4c-0.1-0.1-0.1-0.1-0.2-0.1h-0.7v6.5H11726.7z M11729.8-10304.9c-0.1,0.1-0.2,0-0.2-0.1l-0.2-0.7
			c0-0.1,0-0.1,0.2-0.1l1.1,0.1v-1.2c0-0.1,0-0.1,0.1-0.1c0.6,0,1.2,0.1,1.8,0.2c0.3,0.1,0.4,0.2,0.4,0.3l-0.5,0.5v0.4h5.7
			c0.1,0,0.3-0.1,0.3-0.2l1-1.2c0.1-0.1,0.2-0.1,0.3,0c0.6,0.4,1.2,0.9,1.6,1.5c0.1,0.1,0.1,0.2,0.1,0.3c-0.1,0.1-0.2,0.1-0.3,0.1
			h-8.7l-0.2,2.2c-0.4,4.2-1.8,7.2-4.1,8.7c-0.1,0-0.1,0-0.2,0l0.1-0.2c0.5-0.6,0.9-1.4,1.3-2.3c0.8-1.9,1.2-4.8,1.3-8.4
			L11729.8-10304.9z M11732.3-10308.1L11732.3-10308.1c0,0.3-0.1,0.5-0.4,0.6c-0.4,0.2-0.8,0.2-1.2,0c-0.2-0.1-0.4-0.3-0.3-0.6v-4
			c0-0.1,0-0.1,0.1-0.1l1.8,0.3c0.3,0.1,0.5,0.2,0.5,0.4l-0.5,0.6v2.3h2v-4.2c0,0,0-0.1,0.1-0.1c0.7,0,1.3,0.1,1.9,0.2
			c0.3,0.1,0.4,0.2,0.4,0.3c0,0.2-0.1,0.3-0.3,0.3c-0.1,0-0.2,0.1-0.2,0.2v3.2h2.1v-3.4c0-0.1,0-0.1,0.1-0.1l1.8,0.3
			c0.3,0.1,0.5,0.2,0.5,0.4l-0.5,0.6v2.9c0,0.3-0.1,0.5-0.4,0.6c-0.4,0.2-0.8,0.2-1.2,0c-0.2-0.1-0.4-0.3-0.4-0.6v-0.1H11732.3z
			 M11738.7-10298.6c0.9,1.3,1.7,2.1,2.6,2.5c0.1,0,0.2,0.1,0.2,0.1s-0.1,0.1-0.2,0.1c-0.7,0.2-1.2,0.8-1.5,1.5
			c-0.1,0.1-0.1,0.2-0.3,0c-1.5-1.5-2.4-3.7-2.6-6.5c-0.5,2.6-1.4,4.4-2.7,5.5c-1,0.7-2.1,1.1-3.1,1.3c-0.1,0-0.1,0-0.2-0.1
			c0-0.1,0-0.1,0.1-0.2c0.8-0.3,1.6-0.9,2.4-1.7c1.3-1.6,2-4.4,2-8.3c0-0.1,0-0.1,0.1-0.1c0.6,0,1.2,0.1,1.7,0.2
			c0.3,0.1,0.4,0.2,0.4,0.3c0,0.1-0.1,0.2-0.4,0.3l-0.1,0.2c-0.1,1.3,0.2,2.8,0.9,4.2c0.6-1.2,0.9-2.3,0.9-3.4c0,0,0-0.1,0.1-0.1
			c0.6,0,1.2,0.1,1.8,0.3c0.2,0.1,0.3,0.2,0.3,0.3c0,0.1-0.1,0.2-0.3,0.3l-0.1,0.1c-0.6,1.1-1.4,2.1-2.4,2.9L11738.7-10298.6z
			 M11734.3-10302.9c0.1,0,0.1,0,0.1,0.1c0.4,1.7,0.1,3.1-0.7,4c-0.2,0.2-0.5,0.3-0.8,0.3c-0.3,0-0.5-0.1-0.7-0.3l-0.1-0.2
			c-0.2-0.5,0-1,0.6-1.3c0.8-0.5,1.3-1.4,1.6-2.6C11734.2-10302.8,11734.2-10302.9,11734.3-10302.9z"/>
	</g>
	<g class="st0">
		<path class="st1" d="M11731.8-10267.9h-1.2l-1.2,0.1c-0.1,0-0.2,0-0.2,0l-0.2-0.7c0-0.1,0.1-0.1,0.2-0.1l1.3,0.1h1.2v-3.2h-4.4v3
			c0.8-0.4,1.6-0.9,2.4-1.4c0.1-0.1,0.1-0.1,0.2,0c0.1,0,0.1,0.1,0,0.2c-0.7,0.8-1.6,1.6-2.6,2.4v7.4c0,0.5-0.2,0.9-0.7,1.3
			c-0.5,0.4-1.1,0.6-1.9,0.6c-0.1,0-0.2,0-0.2-0.1c0-0.7-0.5-1.2-1.4-1.6c-0.1,0-0.2-0.1-0.2-0.2c0-0.1,0.1-0.1,0.2-0.1
			c1.3,0,2,0,2.1-0.1c0.1-0.1,0.1-0.2,0.1-0.4v-5.4l-1.1,0.7c-0.1,0.1-0.1,0.2-0.1,0.3c0,0.2,0,0.3-0.1,0.4c-0.2,0.1-0.3,0-0.4-0.2
			c-0.4-0.6-0.7-1.2-1-1.9c-0.1-0.1,0-0.2,0.1-0.2c0.9-0.2,1.8-0.5,2.7-0.8v-3.8h-1l-1.3,0.2c-0.1,0-0.1,0-0.2-0.1l-0.2-0.7
			c0-0.1,0-0.1,0.2-0.1l1.4,0.1h1v-4.8c0-0.1,0-0.2,0.1-0.2l1.8,0.2c0.3,0.1,0.5,0.2,0.5,0.3l-0.5,0.6v3.8h0.5c0.1,0,0.2,0,0.3-0.1
			l0.7-1c0.1-0.1,0.2-0.2,0.4-0.1c0.4,0.3,0.7,0.7,1,1.2v0h1.6v-4.6c0-0.1,0-0.1,0.1-0.1c0.6,0,1.2,0.1,1.8,0.1
			c0.3,0.1,0.5,0.2,0.5,0.3c0,0.2-0.1,0.3-0.4,0.4c-0.1,0-0.2,0.1-0.1,0.2v2.1c0,4.8-0.2,8.1-0.7,10c-0.9,3-2.5,4.8-4.9,5.4
			c-0.1,0-0.2,0-0.2-0.1c0-0.1,0-0.1,0.1-0.2c1.8-1.3,3-3.4,3.5-6.1l-0.5,0.5l-1.3,1.1c-0.1,0.1-0.1,0.2-0.1,0.3
			c0,0.2,0,0.3-0.1,0.4c-0.2,0.1-0.3,0-0.4-0.2c-0.4-0.6-0.7-1.2-1-1.9c-0.1-0.1,0-0.2,0.1-0.2c1.5-0.3,2.7-0.6,3.6-1
			L11731.8-10267.9z M11737.2-10258.9c0,0.3-0.1,0.5-0.4,0.7c-0.4,0.2-0.8,0.1-1.2-0.1c-0.2-0.1-0.3-0.3-0.3-0.5v-17.9v-0.2
			c0-0.1,0-0.1,0.1-0.1c0.6,0.1,1.3,0.1,1.9,0.3c0.3,0.1,0.5,0.2,0.5,0.4c0,0.2-0.1,0.3-0.4,0.4c-0.1,0-0.2,0.1-0.2,0.3v3.3h1.2
			c0.1,0,0.2,0,0.3-0.1l0.9-1.1c0.1-0.1,0.2-0.1,0.3,0c0.6,0.4,1.1,0.8,1.4,1.4c0.1,0.1,0.1,0.2,0.1,0.3c-0.1,0.1-0.2,0.1-0.3,0.1
			h-3.9v3.5h1.2c0.1,0,0.2,0,0.3-0.1l0.9-1.1c0.1-0.1,0.2-0.1,0.3,0c0.6,0.4,1.1,0.8,1.4,1.4c0.1,0.1,0.1,0.2,0.1,0.3
			c-0.1,0.1-0.2,0.1-0.3,0.1h-3.9v3.6h1.2c0.1,0,0.2,0,0.3-0.1l0.9-1.1c0.1-0.1,0.2-0.1,0.3,0c0.6,0.4,1.1,0.8,1.4,1.4
			c0.1,0.1,0.1,0.2,0.1,0.3c-0.1,0.1-0.2,0.1-0.3,0.1h-3.9V-10258.9z"/>
	</g>
	<g class="st0">
		<path class="st1" d="M11733.3-10235.7c-1.3,2.1-2.4,3.3-3.2,3.6v7.7c0,0.2-0.1,0.5-0.4,0.6c-0.2,0.1-0.5,0.2-0.9,0.2
			c-0.3,0-0.4-0.1-0.6-0.2c-0.1-0.1-0.1-0.2-0.1-0.4v-0.9h-3v0.9c0,0.4-0.1,0.6-0.3,0.8c-0.2,0.2-0.5,0.3-0.9,0.3
			c-0.3,0-0.4-0.1-0.6-0.2c-0.1-0.1-0.2-0.3-0.2-0.5v-13.3l0-0.1h0.2c0.5,0.1,1.1,0.4,1.8,0.7h0.3c0.4-1.1,0.6-2.4,0.6-3.8l0-0.5
			c0-0.1,0.1-0.1,0.1-0.1c0.6,0.1,1.3,0.2,2,0.4c0.3,0.1,0.4,0.2,0.4,0.4c0,0.2-0.1,0.2-0.4,0.3c-0.1,0-0.1,0.1-0.2,0.2
			c-0.6,1.4-1.3,2.5-2.1,3.2h1.4c0.2,0,0.3,0,0.4-0.1l0.5-0.6c0.1-0.2,0.3-0.2,0.4-0.2c0.7,0.3,1.3,0.6,1.7,0.9
			c0.4,0.3,0.4,0.6-0.2,0.8c-0.1,0-0.2,0.1-0.2,0.2v2.9l0.1-0.1c1.4-2.1,2.4-4.8,2.7-8.2c0-0.1,0.1-0.2,0.3-0.2
			c0.8,0.1,1.5,0.3,2.2,0.6c0.2,0.1,0.3,0.2,0.3,0.4c0,0.2-0.2,0.3-0.5,0.3c-0.1,0-0.2,0.1-0.3,0.4l-1.1,2.7h4c0.2,0,0.3,0,0.4-0.1
			l0.7-0.7c0.1-0.2,0.3-0.2,0.5,0c1.2,0.7,1.9,1.2,1.9,1.5c0,0.2-0.1,0.3-0.5,0.4c-0.2,0.1-0.3,0.3-0.3,0.5c0.1,7-0.5,11-1.9,12
			c-0.7,0.5-1.4,0.8-2.1,0.8c-0.2,0-0.2-0.1-0.2-0.2c0-0.8-0.6-1.5-1.8-2c-0.2,0-0.2-0.1-0.2-0.3c0-0.1,0.2-0.2,0.4-0.2
			c1.5,0.2,2.4,0.2,2.7,0c0.2-0.1,0.3-0.3,0.5-0.8c0.3-1.2,0.5-3.1,0.6-5.8c0.1-2.8,0.1-4.3-0.1-4.4c0-0.1-0.1-0.1-0.2,0h-4.1
			l-0.4,0.1L11733.3-10235.7z M11728.2-10231.1v-4.7c-0.1-0.1-0.1-0.1-0.2,0h-2.8v4.7H11728.2z M11728.2-10225.5v-5.1h-3v5.1
			H11728.2z M11732.1-10232.8c0-0.1,0.1-0.1,0.2-0.1l0.9,0.4c0.7,0.3,1.4,0.7,1.9,1.3c0.5,0.5,0.8,1,1,1.4c0.2,0.4,0.2,0.8,0,1.2
			c-0.1,0.4-0.3,0.6-0.7,0.7c-0.7,0.2-1.2-0.2-1.3-1.2c-0.2-1.6-0.9-2.7-2-3.5C11732.1-10232.6,11732.1-10232.7,11732.1-10232.8z"/>
	</g>
	<g class="st0">
		<path class="st1" d="M11723.1-10193.3c0-0.1,0-0.1,0.1-0.1c0.5,0,1.1,0.1,1.7,0.2c0.2,0.1,0.3,0.1,0.4,0.3c0,0.1-0.1,0.2-0.3,0.3
			c-0.1,0-0.2,0.1-0.2,0.2c-0.5,2.2-1.2,4-2.2,5.4c-0.1,0.1-0.1,0.1-0.2,0.1c-0.1,0-0.1-0.1-0.1-0.2c0.5-2.1,0.7-4,0.8-5.8V-10193.3
			z M11727.2-10186.8c0,0.3-0.2,0.5-0.4,0.6c-0.4,0.2-0.7,0.1-1.1-0.1c-0.2-0.1-0.3-0.3-0.3-0.6v-8.1c-1,0.3-1.6,0.5-1.6,0.6
			c-0.1,0.2-0.1,0.3-0.2,0.3c-0.1,0-0.3-0.1-0.3-0.2c-0.4-1-0.6-1.6-0.6-1.9c0-0.1,0-0.2,0.2-0.2h2.3c1.3-2.1,2.2-4.2,2.6-6.3
			c0-0.1,0.1-0.1,0.2-0.1l1.5,0.5c0.2,0.1,0.3,0.2,0.3,0.4c0,0.1-0.1,0.2-0.3,0.3c-0.1,0-0.2,0.1-0.2,0.2c-0.8,1.8-1.9,3.5-3.3,5
			l2.5-0.2c-0.2-0.5-0.4-0.8-0.6-1.1c-0.1-0.1-0.1-0.1-0.1-0.2c0-0.1,0.1-0.1,0.2-0.1c0.7,0.2,1.3,0.5,1.7,0.8l-0.2-0.6
			c0-0.1,0-0.1,0.2-0.1l1.3,0.1h4l0.5-2.1h-3l-0.4,0.9c-0.2,0.2-0.5,0.3-0.9,0.2c-0.4-0.1-0.6-0.2-0.7-0.3c-0.1-0.1-0.1-0.3,0-0.5
			c0.9-2.1,1.4-3.9,1.6-5.6c0-0.1,0.1-0.2,0.2-0.1l1.6,0.2c0.3,0.1,0.4,0.2,0.5,0.3c0,0.1-0.1,0.3-0.4,0.3c-0.1,0-0.2,0.1-0.2,0.4
			l-0.2,0.8h2.5l0.3-0.1l0.6-0.6h0.3c0.6,0.3,1.1,0.6,1.5,1c0.1,0.1,0.2,0.2,0.1,0.3c0,0.1-0.2,0.2-0.4,0.3c-0.1,0-0.2,0-0.2,0.1
			l-1.3,4.5h1.2c0.1,0,0.3-0.1,0.3-0.2l1-1.2c0.1-0.1,0.2-0.1,0.3,0c0.7,0.4,1.2,0.9,1.7,1.6c0.1,0.1,0.1,0.2,0.1,0.3
			c-0.1,0.1-0.2,0.1-0.3,0.1h-4.9c0.2,1.4,0.6,2.7,1.3,3.8c0.5-0.7,1.1-1.5,1.5-2.6c0-0.1,0.1-0.1,0.1-0.1c0.6,0.3,1.1,0.6,1.6,1
			c0.2,0.2,0.3,0.3,0.2,0.4c-0.1,0.1-0.2,0.2-0.5,0.1c-0.1,0-0.2,0-0.2,0.1c-0.6,0.5-1.4,1.1-2.5,1.6c1,1.4,2.1,2.5,3.4,3.4l0.1,0.2
			l-0.1,0.1c-0.7,0.2-1.2,0.7-1.5,1.4c0,0.1-0.1,0.1-0.2,0c-0.9-0.8-1.7-2.1-2.4-3.7c-0.4-1.1-0.8-2.2-1-3.3v6.4
			c0,0.6-0.1,1-0.3,1.3c-0.4,0.7-1.2,1-2.3,1c-0.1,0-0.2-0.1-0.2-0.2c0.1-0.8-0.3-1.4-1.2-1.9c-0.1,0-0.1-0.1-0.1-0.2
			c0-0.1,0.1-0.1,0.2-0.1l1.6,0.1c0.3,0,0.5-0.1,0.5-0.5v-2.8l-0.2,0.1c-0.8,0.7-1.8,1.4-2.9,2.2c-0.3,0.2-0.4,0.3-0.4,0.4
			c0,0.2,0,0.3-0.1,0.4c-0.2,0.1-0.5-0.2-1-0.9c-0.2,0.2-0.4,0.3-0.6,0.3c-0.7,0-1-0.4-1-1.3c0-1.2-0.3-2.3-0.9-3.1V-10186.8z
			 M11725.1-10204.5l0.1-0.3c0-0.1,0.1-0.1,0.2-0.1c0.5,0.1,1,0.2,1.6,0.4c0.2,0.1,0.3,0.2,0.3,0.4c0,0.1-0.1,0.2-0.3,0.3
			c-0.1,0-0.2,0.1-0.2,0.2c-0.6,1.1-1.2,2-1.9,2.5c0.5,0.5,0.7,0.8,0.8,1c0.1,0.4,0.1,0.7,0,1.1c-0.1,0.3-0.3,0.5-0.7,0.6
			c-0.3,0.1-0.6,0-0.9-0.2c-0.2-0.2-0.3-0.5-0.4-0.9c0-0.9-0.4-1.7-1-2.2c-0.1-0.1-0.1-0.1-0.1-0.2c0-0.1,0.1-0.1,0.2-0.1
			c0.6,0.2,1.1,0.4,1.5,0.6C11724.7-10202.2,11725-10203.3,11725.1-10204.5z M11730-10190.5c1.9-0.8,3.3-1.4,4.3-1.9v-4.8h-3.5
			l-1.2,0.2h0c0.3,0.3,0.5,0.5,0.6,0.7c0.1,0.4,0.1,0.7,0,1.1c-0.1,0.3-0.3,0.5-0.7,0.6c-0.3,0.1-0.6,0-0.8-0.2
			c0-0.1-0.2-0.5-0.3-1.2c-0.5,0.1-0.9,0.3-1.1,0.4v1.8h0l0.8,0.5C11729.2-10192.4,11729.9-10191.4,11730-10190.5L11730-10190.5z
			 M11730.7-10195.8c0-0.1,0.1-0.1,0.2-0.1c1.2,0,2.1,0.4,2.6,1.3c0.2,0.3,0.2,0.7,0.1,1.1c-0.1,0.4-0.3,0.6-0.6,0.7
			c-0.7,0.2-1.2-0.1-1.3-1c-0.1-0.7-0.4-1.3-0.9-1.7C11730.7-10195.7,11730.7-10195.7,11730.7-10195.8z M11733.2-10202.6l-0.7,2.4
			h2.9l0.7-2.4h-2.4L11733.2-10202.6z"/>
	</g>
	<g class="st0">
		<path class="st1" d="M11722.8-10161.5c-0.1,0-0.1,0-0.2-0.1l0.1-0.2c2.5-1.8,4.4-4.1,5.5-7l0.1-0.2c0-0.1,0.1-0.1,0.2-0.1
			c0.6,0.2,1.2,0.5,1.8,0.8c0.2,0.1,0.4,0.3,0.3,0.4c-0.1,0.1-0.2,0.2-0.4,0.2c-0.1,0-0.2,0-0.2,0.1l-0.6,0.9h3.4
			c0.1,0,0.2-0.1,0.3-0.2c0.2-0.2,0.4-0.4,0.7-0.5c0.1-0.1,0.2,0,0.3,0c0.7,0.3,1.3,0.7,1.8,1.1c0.1,0.1,0.2,0.3,0.1,0.4
			c-0.1,0.1-0.2,0.2-0.4,0.2l-0.2,0.1l-2.9,2.5h4c0.2,0,0.3,0,0.4-0.1l0.5-0.6c0.1-0.1,0.3-0.2,0.4-0.1c0.7,0.3,1.3,0.6,1.7,0.9
			c0.4,0.3,0.3,0.6-0.2,0.8c-0.1,0-0.2,0.1-0.2,0.2v5.1c0,0.3-0.1,0.5-0.4,0.6c-0.2,0.1-0.5,0.2-0.9,0.2c-0.3,0-0.5-0.1-0.6-0.2
			c-0.1-0.1-0.1-0.2-0.1-0.4v-0.9h-9.9v4c0,0.3,0,0.5,0.1,0.7c0.1,0.1,0.3,0.2,0.5,0.3c0.3,0.1,1.8,0.1,4.6,0.1c2.8,0,4.5-0.1,5-0.1
			s0.9-0.2,1.2-0.3c0.4-0.4,0.7-1.2,0.9-2.2c0-0.2,0.1-0.2,0.2-0.2c0.1,0,0.2,0.1,0.2,0.3l0,1.4c0,0.4,0.1,0.7,0.4,0.9
			c0.4,0.2,0.6,0.5,0.6,0.9c0,0.4-0.4,0.7-1.1,0.9c-1.1,0.2-2.5,0.4-4.1,0.5c-4.8,0.1-7.8,0-8.8-0.3c-0.7-0.2-1.1-0.5-1.4-1
			c-0.2-0.4-0.3-0.8-0.3-1.1v-9.8C11724.5-10162.1,11723.6-10161.7,11722.8-10161.5z M11727.4-10163h4.2c0.6-1,1.2-2,1.6-3.1h-3.7
			l-0.7,0.1l-2.4,2.5C11726.7-10163.3,11727-10163.2,11727.4-10163z M11727.3-10158h3.9v-4.5h-3.9V-10158z M11737.1-10158v-4.4
			c-0.1-0.1-0.1-0.1-0.2-0.1h-3.8v4.5H11737.1z"/>
	</g>
	<g class="st0">
		<path class="st1" d="M11724.6-10118.3l-1.1,0.2c-0.1,0.1-0.2,0-0.2-0.1l-0.2-0.7c0-0.1,0-0.1,0.2-0.1l1.3,0.1h6.2v-2.3h-3.6v0.1
			c0,0.3-0.1,0.5-0.3,0.7c-0.3,0.1-0.6,0.2-0.9,0.2c-0.3,0-0.5-0.1-0.6-0.2c-0.1-0.1-0.1-0.2-0.1-0.5v-5.3c0-0.1,0-0.2,0.1-0.2
			c0.9,0.2,1.6,0.5,2.1,0.8h3.3v-2h-1.2v0.3c0,0.3-0.1,0.5-0.4,0.6c-0.4,0.2-0.8,0.2-1.2,0c-0.2-0.1-0.3-0.3-0.3-0.6v-3h-3.1
			l-1.1,0.2c-0.1,0.1-0.2,0-0.2-0.1l-0.2-0.7c0-0.1,0-0.1,0.2-0.1l1.3,0.1h3.1v-2.2c0-0.1,0-0.1,0.1-0.1l1.7,0.3
			c0.3,0.1,0.5,0.2,0.5,0.4l-0.5,0.6v1.1h4.2v-2.2c0-0.1,0-0.1,0.1-0.1l1.8,0.3c0.3,0.1,0.5,0.2,0.5,0.4l-0.5,0.6v1.1h2
			c0.1,0,0.2-0.1,0.3-0.2l1-1.2c0.1-0.1,0.2-0.1,0.3,0c0.6,0.4,1.2,0.9,1.6,1.5c0.1,0.1,0.1,0.2,0.1,0.3c-0.1,0.1-0.2,0.1-0.3,0.1
			h-4.9v3c0,0.3-0.1,0.5-0.4,0.6c-0.4,0.2-0.8,0.2-1.2,0c-0.2-0.1-0.4-0.3-0.4-0.6v-0.3h-1.1v2h3.2c0.1,0,0.2,0,0.2-0.1l0.5-0.5
			l0.2,0c0.6,0.2,1.2,0.5,1.7,0.9c0.4,0.3,0.3,0.5-0.2,0.7c-0.1,0-0.2,0.1-0.2,0.3v3.2c0,0.2-0.1,0.4-0.3,0.5
			c-0.2,0.1-0.5,0.2-0.9,0.2c-0.3,0-0.5-0.1-0.6-0.2c-0.1-0.1-0.1-0.3-0.1-0.6v-0.2h-3.6v2.3h4.7c0.1,0,0.3-0.1,0.3-0.2l1-1.2
			c0.1-0.1,0.2-0.1,0.4,0c0.7,0.4,1.2,0.9,1.7,1.6c0.1,0.1,0.1,0.2,0.1,0.3c-0.1,0.1-0.2,0.1-0.3,0.1h-7.8v3.5
			c0,0.3-0.2,0.5-0.5,0.6c-0.4,0.2-0.7,0.1-1.1-0.1c-0.2-0.1-0.3-0.3-0.3-0.6v-3.5H11724.6z M11730.7-10124.9h-3.3l-0.3,0.1v3.2h3.6
			V-10124.9z M11733.7-10127.9v-2.2h-4.2v2.2H11733.7z M11732.6-10121.7h3.6v-3.1c0-0.1-0.1-0.1-0.2-0.1h-3.4V-10121.7z"/>
	</g>
	<g class="st0">
		<path class="st1" d="M11722.9-10087.6c-0.1,0-0.2,0-0.2-0.1s0-0.1,0.1-0.2c1.4-0.8,2.7-1.9,4.1-3.3c2-2.3,3.2-4.2,3.5-5.6
			c0-0.1,0.1-0.1,0.1-0.1c0.7,0.1,1.4,0.3,2,0.6c0.3,0.1,0.3,0.2,0.3,0.4c0,0.1-0.1,0.2-0.3,0.2c0.4,0.7,1,1.4,1.6,2
			c2.1,2,4.4,3.1,6.8,3.5c0.1,0,0.2,0,0.2,0.1c0,0.1,0,0.1-0.2,0.2c-0.9,0.4-1.4,0.9-1.4,1.8c0,0.1-0.1,0.1-0.3,0.1
			c-3.1-1-5.5-3.4-7-7.3C11730-10091.8,11726.9-10089.2,11722.9-10087.6z M11727-10081c0,0.3-0.1,0.5-0.3,0.6
			c-0.3,0.2-0.5,0.2-0.9,0.3c-0.3,0-0.5-0.1-0.6-0.2c-0.1-0.1-0.1-0.2-0.1-0.5v-7.1c0-0.1,0-0.2,0.1-0.1c0.6,0.1,1.2,0.3,1.7,0.6
			h1.3c0.2,0,0.3,0,0.4-0.1l0.5-0.6c0.1-0.1,0.3-0.2,0.4-0.1c0.7,0.3,1.3,0.5,1.7,0.8c0.4,0.3,0.3,0.5-0.2,0.8
			c-0.1,0.1-0.2,0.1-0.2,0.2v5.1c0,0.3-0.1,0.4-0.3,0.6c-0.2,0.1-0.5,0.2-0.9,0.2c-0.2,0-0.4-0.1-0.5-0.2c-0.1-0.1-0.1-0.2-0.1-0.4
			v-0.9h-2V-10081z M11729-10082.5v-4.2c-0.1-0.1-0.1-0.1-0.2-0.1h-1.8v4.3H11729z M11729.7-10090.1h1.7c0.1,0,0.3-0.1,0.3-0.2
			l1-1.2c0.1-0.1,0.2-0.1,0.3,0c0.6,0.4,1.2,0.9,1.6,1.5c0.1,0.1,0.1,0.2,0.1,0.3c-0.1,0.1-0.2,0.1-0.3,0.1h-4.7l-1.1,0.2
			c-0.1,0.1-0.2,0-0.2-0.1l-0.2-0.7c0-0.1,0-0.1,0.2-0.1L11729.7-10090.1z M11736.2-10087.6l0.2-0.1l0.5-0.5c0-0.1,0.1-0.1,0.2,0
			l0.1,0c1.3,0.6,1.7,1.1,1.2,1.5c-0.1,0-0.1,0.1-0.1,0.2v4.6c0,0.6-0.2,1-0.5,1.4c-0.4,0.4-1,0.6-1.8,0.6c-0.1,0-0.2-0.1-0.2-0.2
			c0.1-0.7-0.4-1.4-1.2-1.8c-0.1-0.1-0.2-0.1-0.1-0.2c0-0.1,0.1-0.1,0.2-0.1l1.3-0.1c0.3,0,0.5-0.1,0.5-0.4v-4.4h-2.4v7.9
			c0,0.4-0.1,0.6-0.3,0.7c-0.2,0.2-0.5,0.3-0.9,0.3c-0.2,0-0.4-0.1-0.5-0.2c-0.1-0.1-0.2-0.2-0.1-0.5v-9.3v-0.1h0.2
			c0.5,0.1,1,0.3,1.6,0.6H11736.2z"/>
	</g>
</g>
</svg>
