<svg xmlns="http://www.w3.org/2000/svg" width="115.783" height="71.033" viewBox="0 0 115.783 71.033">
  <g id="title_2018_tw" transform="translate(-331.217 -1676.967)">
    <text id="台灣發電結構" transform="translate(335 1723)" fill="#1eee78" font-size="18" font-family="MicrosoftJhengHeiBold, Microsoft JhengHei"><tspan x="0" y="19">台灣發電結構</tspan></text>
    <g id="Group_1133" data-name="Group 1133" transform="translate(191 413)">
      <path id="Path_1394" data-name="Path 1394" d="M8016.161,1136.574c10.811-7.456,22.219-11.176,17.895-1.864s-17.895,21.25-17.895,21.25l23.487-15.285" transform="matrix(0.899, 0.438, -0.438, 0.899, -6553.909, -3255.763)" fill="none" stroke="#1eee78" stroke-linecap="round" stroke-linejoin="round" stroke-width="6"/>
      <path id="Path_1395" data-name="Path 1395" d="M11.99.169c4.521,1.55,5.812,6.716,0,12.851S-.6,12.7.042,10.437,7.469-1.381,11.99.169Z" transform="matrix(-0.875, 0.485, -0.485, -0.875, 199.026, 1289.432)" fill="none" stroke="#1eee78" stroke-width="6"/>
      <path id="Path_1396" data-name="Path 1396" d="M2.237,2.154,6.338,0S0,21.25,0,28.333" transform="translate(202.63 1270.496) rotate(-8)" fill="none" stroke="#1eee78" stroke-linecap="round" stroke-linejoin="round" stroke-width="6"/>
      <path id="Path_1397" data-name="Path 1397" d="M8166.137,1161.844c.855-8.553-6.793-8.93-9.389-8.378s-8.145,4.319-5.183,9.255,5.183,3.332,11.847,9.625,1.11,14.068-6.664,11.847-7.034-9.255-3.7-11.847,21-17.345,21-17.345" transform="translate(-7927.718 113.719)" fill="none" stroke="#1eee78" stroke-linecap="round" stroke-linejoin="round" stroke-width="6"/>
    </g>
  </g>
</svg>
